{
.appVersion = "3106";
.formatVersion = 3;
date = "2021-12-15 14:08:08 +0000";
familyName = "New Font";
fontMaster = (
{
id = m01;
metricValues = (
{
over = 16;
pos = 800;
},
{
over = 16;
pos = 700;
},
{
over = 16;
pos = 500;
},
{
over = -16;
},
{
over = -16;
pos = -200;
},
{
over = -16;
}
);
name = Regular;
},
{
iconName = SemiBold;
id = "5D05F7D8-7336-4C54-9046-4D1B683AB1D3";
metricValues = (
{
pos = 800;
},
{
pos = 700;
},
{
pos = 500;
},
{
},
{
pos = -200;
},
{
}
);
name = SemiBold;
},
{
iconName = Bold;
id = "868F064F-B1BF-49D1-B6CA-957F77525378";
metricValues = (
{
pos = 800;
},
{
pos = 700;
},
{
pos = 500;
},
{
},
{
pos = -200;
},
{
}
);
name = Bold;
}
);
glyphs = (
{
glyphname = A;
lastChange = "2021-12-15 14:24:36 +0000";
layers = (
{
layerId = m01;
shapes = (
{
closed = 1;
nodes = (
(349,663,o),
(338,659,o),
(329,649,o),
(323,641,o),
(315,624,o),
(311,613,o),
(304,591,o),
(302,586,qs),
(128,139,ls),
(102,72,o),
(81,45,qs),
(74,36,o),
(36,26,o),
(24,26,qs),
(20,26,o),
(20,12,qs),
(20,1,o),
(24,-3,q),
(41,-2,o),
(78,0,o),
(108,2,o),
(128,2,qs),
(131,2,o),
(231,-3,q),
(233,2,o),
(232,26,o),
(229,26,qs),
(220,26,o),
(180,35,o),
(171,42,qs),
(163,48,o),
(163,62,qs),
(163,81,o),
(180,131,qs),
(223,241,l),
(228,244,l),
(303,249,o),
(355,249,qs),
(392,249,o),
(431,246,qs),
(434,246,o),
(437,242,q),
(478,129,l),
(482,118,ls),
(485,108,o),
(492,73,o),
(492,60,qs),
(492,52,o),
(490,44,qs),
(487,36,o),
(451,26,o),
(439,26,qs),
(435,26,o),
(434,1,o),
(438,-3,q),
(553,2,o),
(554,2,qs),
(564,2,o),
(664,-3,q),
(666,3,o),
(666,7,qs),
(666,26,o),
(662,26,qs),
(650,26,o),
(600,45,o),
(594,60,qs),
(583,85,o),
(565,132,qs),
(365,660,l),
(356,663,l)
);
},
{
closed = 1;
nodes = (
(247,303,q),
(333,526,l),
(414,305,l),
(411,300,l),
(364,297,o),
(320,297,qs),
(301,297,o),
(249,299,qs),
(247,299,o)
);
}
);
width = 684;
},
{
layerId = "5D05F7D8-7336-4C54-9046-4D1B683AB1D3";
shapes = (
{
closed = 1;
nodes = (
(379,665,qs),
(370,665,o),
(362,658,qs),
(348,646,o),
(325,586,qs),
(139,136,ls),
(120,88,o),
(101,58,qs),
(94,47,o),
(41,30,o),
(29,30,qs),
(27,30,o),
(27,12,qs),
(27,1,o),
(31,-3,q),
(46,-2,o),
(117,3,o),
(169,3,o),
(253,-3,o),
(258,-3,q),
(260,3,o),
(260,29,o),
(257,30,q),
(249,30,o),
(204,40,o),
(195,46,qs),
(184,53,o),
(184,79,o),
(203,131,qs),
(241,224,l),
(241,228,o),
(247,228,qs),
(307,231,o),
(415,231,o),
(447,229,qs),
(450,229,o),
(454,225,q),
(489,132,ls),
(508,83,o),
(508,63,qs),
(508,56,o),
(505,50,qs),
(501,42,o),
(459,30,o),
(447,30,qs),
(443,30,o),
(443,1,o),
(447,-3,q),
(570,3,o),
(577,3,qs),
(583,3,o),
(703,-3,q),
(705,0,o),
(705,12,qs),
(705,30,o),
(701,30,qs),
(689,30,o),
(637,48,o),
(631,63,qs),
(616,96,o),
(601,136,qs),
(391,660,l),
(386,665,o)
);
},
{
closed = 1;
nodes = (
(269,292,q),
(351,492,l),
(427,292,l),
(425,288,l),
(378,285,o),
(343,285,qs),
(306,285,o),
(271,288,qs),
(269,288,o)
);
}
);
width = 736;
},
{
layerId = "868F064F-B1BF-49D1-B6CA-957F77525378";
shapes = (
{
closed = 1;
nodes = (
(419,0,o),
(423,-4,q),
(567,4,o),
(574,4,qs),
(600,4,o),
(715,-4,o),
(719,-4,q),
(721,-1,o),
(721,33,o),
(717,33,qs),
(703,33,o),
(649,50,o),
(643,66,qs),
(629,102,o),
(610,148,qs),
(405,655,l),
(396,668,o),
(381,668,qs),
(355,668,o),
(344,642,qs),
(123,134,l),
(118,122,ls),
(113,111,o),
(96,76,o),
(88,64,qs),
(81,53,o),
(25,32,o),
(13,32,qs),
(11,32,o),
(11,11,qs),
(11,0,o),
(15,-4,q),
(34,-3,o),
(104,4,o),
(154,4,o),
(233,-3,o),
(246,-4,q),
(248,2,o),
(248,32,o),
(245,33,q),
(235,33,o),
(208,36,o),
(172,54,o),
(172,86,o),
(192,131,qs),
(225,207,o),
(225,207,q),
(228,212,o),
(232,212,qs),
(267,213,o),
(333,213,qs),
(410,213,o),
(429,212,qs),
(432,212,o),
(436,208,q),
(466,135,ls),
(491,70,o),
(491,68,qs),
(491,52,o),
(445,33,o),
(423,33,qs),
(419,33,o)
);
},
{
closed = 1;
nodes = (
(257,280,q),
(335,459,l),
(407,280,l),
(404,275,l),
(373,273,o),
(333,273,qs),
(289,273,o),
(259,276,qs),
(257,276,o)
);
}
);
width = 720;
}
);
note = A;
unicode = 65;
},
{
glyphname = Abreveacute;
lastChange = "2021-12-15 14:24:37 +0000";
layers = (
{
layerId = m01;
shapes = (
{
closed = 1;
nodes = (
(327,790,o),
(332,790,qs),
(342,790,o),
(467,856,o),
(467,868,qs),
(467,878,o),
(441,891,o),
(422,891,qs),
(410,891,o),
(406,888,qs),
(391,877,o),
(349,837,o),
(320,805,o),
(320,803,qs),
(320,798,o)
);
},
{
closed = 1;
nodes = (
(261,802,q),
(261,804,o),
(251,804,o),
(236,796,o),
(236,793,qs),
(236,791,l),
(237,789,o),
(237,788,qs),
(245,751,o),
(312,700,o),
(356,700,qs),
(399,700,o),
(467,753,o),
(475,787,qs),
(475,788,o),
(476,790,q),
(476,793,ls),
(476,796,o),
(461,804,o),
(451,804,o),
(451,802,q),
(443,775,o),
(392,746,o),
(320,746,o),
(269,775,o)
);
},
{
closed = 1;
nodes = (
(349,663,o),
(338,659,o),
(329,649,o),
(323,641,o),
(315,624,o),
(311,613,o),
(304,591,o),
(302,586,qs),
(128,139,ls),
(102,72,o),
(81,45,qs),
(74,36,o),
(36,26,o),
(24,26,qs),
(20,26,o),
(20,12,qs),
(20,1,o),
(24,-3,q),
(41,-2,o),
(78,0,o),
(108,2,o),
(128,2,qs),
(131,2,o),
(231,-3,q),
(233,2,o),
(232,26,o),
(229,26,qs),
(220,26,o),
(180,35,o),
(171,42,qs),
(163,48,o),
(163,62,qs),
(163,81,o),
(180,131,qs),
(223,241,l),
(228,244,l),
(303,249,o),
(355,249,qs),
(392,249,o),
(431,246,qs),
(434,246,o),
(437,242,q),
(478,129,l),
(482,118,ls),
(485,108,o),
(492,73,o),
(492,60,qs),
(492,52,o),
(490,44,qs),
(487,36,o),
(451,26,o),
(439,26,qs),
(435,26,o),
(434,1,o),
(438,-3,q),
(553,2,o),
(554,2,qs),
(564,2,o),
(664,-3,q),
(666,3,o),
(666,7,qs),
(666,26,o),
(662,26,qs),
(650,26,o),
(600,45,o),
(594,60,qs),
(583,85,o),
(565,132,qs),
(365,660,l),
(356,663,l)
);
},
{
closed = 1;
nodes = (
(247,303,q),
(333,526,l),
(414,305,l),
(411,300,l),
(364,297,o),
(320,297,qs),
(301,297,o),
(249,299,qs),
(247,299,o)
);
}
);
width = 684;
},
{
layerId = "5D05F7D8-7336-4C54-9046-4D1B683AB1D3";
width = 600;
},
{
layerId = "868F064F-B1BF-49D1-B6CA-957F77525378";
shapes = (
{
ref = acutecomb.cap;
},
{
pos = (244,0);
ref = Abreve;
}
);
width = 964;
}
);
note = uni1EAE;
unicode = 7854;
},
{
glyphname = Abrevegrave;
lastChange = "2021-12-15 14:24:37 +0000";
layers = (
{
layerId = m01;
shapes = (
{
closed = 1;
nodes = (
(384,837,o),
(342,877,o),
(327,888,qs),
(323,891,o),
(311,891,qs),
(292,891,o),
(266,878,o),
(266,868,qs),
(266,856,o),
(391,790,o),
(401,790,qs),
(406,790,o),
(413,798,o),
(413,803,qs),
(413,805,o)
);
},
{
closed = 1;
nodes = (
(261,802,q),
(261,804,o),
(251,804,o),
(236,796,o),
(236,793,qs),
(236,791,l),
(237,789,o),
(237,788,qs),
(245,751,o),
(312,700,o),
(356,700,qs),
(399,700,o),
(467,753,o),
(475,787,qs),
(475,788,o),
(476,790,q),
(476,793,ls),
(476,796,o),
(461,804,o),
(451,804,o),
(451,802,q),
(443,775,o),
(392,746,o),
(320,746,o),
(269,775,o)
);
},
{
closed = 1;
nodes = (
(349,663,o),
(338,659,o),
(329,649,o),
(323,641,o),
(315,624,o),
(311,613,o),
(304,591,o),
(302,586,qs),
(128,139,ls),
(102,72,o),
(81,45,qs),
(74,36,o),
(36,26,o),
(24,26,qs),
(20,26,o),
(20,12,qs),
(20,1,o),
(24,-3,q),
(41,-2,o),
(78,0,o),
(108,2,o),
(128,2,qs),
(131,2,o),
(231,-3,q),
(233,2,o),
(232,26,o),
(229,26,qs),
(220,26,o),
(180,35,o),
(171,42,qs),
(163,48,o),
(163,62,qs),
(163,81,o),
(180,131,qs),
(223,241,l),
(228,244,l),
(303,249,o),
(355,249,qs),
(392,249,o),
(431,246,qs),
(434,246,o),
(437,242,q),
(478,129,l),
(482,118,ls),
(485,108,o),
(492,73,o),
(492,60,qs),
(492,52,o),
(490,44,qs),
(487,36,o),
(451,26,o),
(439,26,qs),
(435,26,o),
(434,1,o),
(438,-3,q),
(553,2,o),
(554,2,qs),
(564,2,o),
(664,-3,q),
(666,3,o),
(666,7,qs),
(666,26,o),
(662,26,qs),
(650,26,o),
(600,45,o),
(594,60,qs),
(583,85,o),
(565,132,qs),
(365,660,l),
(356,663,l)
);
},
{
closed = 1;
nodes = (
(247,303,q),
(333,526,l),
(414,305,l),
(411,300,l),
(364,297,o),
(320,297,qs),
(301,297,o),
(249,299,qs),
(247,299,o)
);
}
);
width = 684;
},
{
layerId = "5D05F7D8-7336-4C54-9046-4D1B683AB1D3";
width = 600;
},
{
layerId = "868F064F-B1BF-49D1-B6CA-957F77525378";
shapes = (
{
ref = gravecomb.cap;
},
{
pos = (244,0);
ref = Abreve;
}
);
width = 964;
}
);
note = uni1EB0;
unicode = 7856;
},
{
glyphname = Abrevehookabove;
lastChange = "2021-12-15 14:24:37 +0000";
layers = (
{
layerId = m01;
shapes = (
{
closed = 1;
nodes = (
(261,802,q),
(261,804,o),
(251,804,o),
(236,796,o),
(236,793,qs),
(236,791,l),
(237,789,o),
(237,788,qs),
(245,751,o),
(312,700,o),
(356,700,qs),
(399,700,o),
(467,753,o),
(475,787,qs),
(475,788,o),
(476,790,q),
(476,793,ls),
(476,796,o),
(461,804,o),
(451,804,o),
(451,802,q),
(443,775,o),
(392,746,o),
(320,746,o),
(269,775,o)
);
},
{
closed = 1;
nodes = (
(389,873,qs),
(389,856,o),
(369,841,qs),
(367,839,o),
(339,820,o),
(329,810,o),
(329,805,qs),
(329,793,o),
(348,777,o),
(360,777,qs),
(376,777,o),
(376,783,q),
(371,790,o),
(371,797,qs),
(371,800,o),
(375,806,o),
(378,809,o),
(388,814,o),
(390,816,qs),
(400,823,ls),
(410,830,o),
(415,835,o),
(430,848,o),
(436,857,o),
(442,871,o),
(442,878,qs),
(442,903,o),
(406,930,o),
(378,930,qs),
(347,930,o),
(292,901,o),
(282,887,q),
(282,858,o),
(299,858,qs),
(310,858,o),
(346,894,o),
(360,894,qs),
(389,894,o)
);
},
{
closed = 1;
nodes = (
(349,663,o),
(338,659,o),
(329,649,o),
(323,641,o),
(315,624,o),
(311,613,o),
(304,591,o),
(302,586,qs),
(128,139,ls),
(102,72,o),
(81,45,qs),
(74,36,o),
(36,26,o),
(24,26,qs),
(20,26,o),
(20,12,qs),
(20,1,o),
(24,-3,q),
(41,-2,o),
(78,0,o),
(108,2,o),
(128,2,qs),
(131,2,o),
(231,-3,q),
(233,2,o),
(232,26,o),
(229,26,qs),
(220,26,o),
(180,35,o),
(171,42,qs),
(163,48,o),
(163,62,qs),
(163,81,o),
(180,131,qs),
(223,241,l),
(228,244,l),
(303,249,o),
(355,249,qs),
(392,249,o),
(431,246,qs),
(434,246,o),
(437,242,q),
(478,129,l),
(482,118,ls),
(485,108,o),
(492,73,o),
(492,60,qs),
(492,52,o),
(490,44,qs),
(487,36,o),
(451,26,o),
(439,26,qs),
(435,26,o),
(434,1,o),
(438,-3,q),
(553,2,o),
(554,2,qs),
(564,2,o),
(664,-3,q),
(666,3,o),
(666,7,qs),
(666,26,o),
(662,26,qs),
(650,26,o),
(600,45,o),
(594,60,qs),
(583,85,o),
(565,132,qs),
(365,660,l),
(356,663,l)
);
},
{
closed = 1;
nodes = (
(247,303,q),
(333,526,l),
(414,305,l),
(411,300,l),
(364,297,o),
(320,297,qs),
(301,297,o),
(249,299,qs),
(247,299,o)
);
}
);
width = 684;
},
{
layerId = "5D05F7D8-7336-4C54-9046-4D1B683AB1D3";
width = 600;
},
{
layerId = "868F064F-B1BF-49D1-B6CA-957F77525378";
shapes = (
{
ref = hookabovecomb.cap;
},
{
pos = (180,0);
ref = Abreve;
}
);
width = 900;
}
);
note = uni1EB2;
unicode = 7858;
},
{
glyphname = Abrevetilde;
lastChange = "2021-12-15 14:24:37 +0000";
layers = (
{
layerId = m01;
shapes = (
{
closed = 1;
nodes = (
(322,906,o),
(295,906,qs),
(272,906,o),
(219,870,o),
(219,843,qs),
(219,828,o),
(228,828,qs),
(232,828,o),
(234,829,q),
(250,862,o),
(281,862,qs),
(307,862,o),
(388,821,o),
(416,821,qs),
(438,821,o),
(492,861,o),
(492,888,qs),
(492,903,o),
(483,903,qs),
(479,903,o),
(477,902,q),
(459,865,o),
(428,865,qs),
(401,865,o)
);
},
{
closed = 1;
nodes = (
(261,802,q),
(261,804,o),
(251,804,o),
(236,796,o),
(236,793,qs),
(236,791,l),
(237,789,o),
(237,788,qs),
(245,751,o),
(312,700,o),
(356,700,qs),
(399,700,o),
(467,753,o),
(475,787,qs),
(475,788,o),
(476,790,q),
(476,793,ls),
(476,796,o),
(461,804,o),
(451,804,o),
(451,802,q),
(443,775,o),
(392,746,o),
(320,746,o),
(269,775,o)
);
},
{
closed = 1;
nodes = (
(349,663,o),
(338,659,o),
(329,649,o),
(323,641,o),
(315,624,o),
(311,613,o),
(304,591,o),
(302,586,qs),
(128,139,ls),
(102,72,o),
(81,45,qs),
(74,36,o),
(36,26,o),
(24,26,qs),
(20,26,o),
(20,12,qs),
(20,1,o),
(24,-3,q),
(41,-2,o),
(78,0,o),
(108,2,o),
(128,2,qs),
(131,2,o),
(231,-3,q),
(233,2,o),
(232,26,o),
(229,26,qs),
(220,26,o),
(180,35,o),
(171,42,qs),
(163,48,o),
(163,62,qs),
(163,81,o),
(180,131,qs),
(223,241,l),
(228,244,l),
(303,249,o),
(355,249,qs),
(392,249,o),
(431,246,qs),
(434,246,o),
(437,242,q),
(478,129,l),
(482,118,ls),
(485,108,o),
(492,73,o),
(492,60,qs),
(492,52,o),
(490,44,qs),
(487,36,o),
(451,26,o),
(439,26,qs),
(435,26,o),
(434,1,o),
(438,-3,q),
(553,2,o),
(554,2,qs),
(564,2,o),
(664,-3,q),
(666,3,o),
(666,7,qs),
(666,26,o),
(662,26,qs),
(650,26,o),
(600,45,o),
(594,60,qs),
(583,85,o),
(565,132,qs),
(365,660,l),
(356,663,l)
);
},
{
closed = 1;
nodes = (
(247,303,q),
(333,526,l),
(414,305,l),
(411,300,l),
(364,297,o),
(320,297,qs),
(301,297,o),
(249,299,qs),
(247,299,o)
);
}
);
width = 684;
},
{
layerId = "5D05F7D8-7336-4C54-9046-4D1B683AB1D3";
width = 600;
},
{
layerId = "868F064F-B1BF-49D1-B6CA-957F77525378";
shapes = (
{
ref = tildecomb.cap;
},
{
pos = (664,0);
ref = Abreve;
}
);
width = 1384;
}
);
note = uni1EB4;
unicode = 7860;
},
{
glyphname = Acircumflexacute;
lastChange = "2021-12-15 14:24:37 +0000";
layers = (
{
layerId = m01;
shapes = (
{
closed = 1;
nodes = (
(441,789,o),
(444,789,qs),
(454,789,o),
(574,848,o),
(574,859,qs),
(574,865,o),
(543,882,o),
(525,882,qs),
(513,882,o),
(509,879,qs),
(494,868,o),
(457,832,o),
(432,804,o),
(432,802,qs),
(432,798,o)
);
},
{
closed = 1;
nodes = (
(469,718,qs),
(469,719,o),
(451,733,o),
(420,760,o),
(407,772,qs),
(387,792,o),
(366,820,qs),
(361,828,o),
(355,828,qs),
(352,828,o),
(345,820,qs),
(331,800,o),
(303,774,qs),
(289,761,o),
(246,722,o),
(242,718,q),
(242,698,o),
(252,698,qs),
(261,698,o),
(331,738,o),
(355,756,q),
(441,698,o),
(460,698,qs),
(469,698,o)
);
},
{
closed = 1;
nodes = (
(349,663,o),
(338,659,o),
(329,649,o),
(323,641,o),
(315,624,o),
(311,613,o),
(304,591,o),
(302,586,qs),
(128,139,ls),
(102,72,o),
(81,45,qs),
(74,36,o),
(36,26,o),
(24,26,qs),
(20,26,o),
(20,12,qs),
(20,1,o),
(24,-3,q),
(41,-2,o),
(78,0,o),
(108,2,o),
(128,2,qs),
(131,2,o),
(231,-3,q),
(233,2,o),
(232,26,o),
(229,26,qs),
(220,26,o),
(180,35,o),
(171,42,qs),
(163,48,o),
(163,62,qs),
(163,81,o),
(180,131,qs),
(223,241,l),
(228,244,l),
(303,249,o),
(355,249,qs),
(392,249,o),
(431,246,qs),
(434,246,o),
(437,242,q),
(478,129,l),
(482,118,ls),
(485,108,o),
(492,73,o),
(492,60,qs),
(492,52,o),
(490,44,qs),
(487,36,o),
(451,26,o),
(439,26,qs),
(435,26,o),
(434,1,o),
(438,-3,q),
(553,2,o),
(554,2,qs),
(564,2,o),
(664,-3,q),
(666,3,o),
(666,7,qs),
(666,26,o),
(662,26,qs),
(650,26,o),
(600,45,o),
(594,60,qs),
(583,85,o),
(565,132,qs),
(365,660,l),
(356,663,l)
);
},
{
closed = 1;
nodes = (
(247,303,q),
(333,526,l),
(414,305,l),
(411,300,l),
(364,297,o),
(320,297,qs),
(301,297,o),
(249,299,qs),
(247,299,o)
);
}
);
width = 684;
},
{
layerId = "5D05F7D8-7336-4C54-9046-4D1B683AB1D3";
width = 600;
},
{
layerId = "868F064F-B1BF-49D1-B6CA-957F77525378";
shapes = (
{
ref = acutecomb.cap;
},
{
pos = (244,0);
ref = Acircumflex;
}
);
width = 964;
}
);
note = uni1EA4;
unicode = 7844;
},
{
glyphname = Acircumflexgrave;
lastChange = "2021-12-15 14:24:37 +0000";
layers = (
{
layerId = m01;
shapes = (
{
closed = 1;
nodes = (
(508,761,o),
(517,761,qs),
(520,761,o),
(531,769,o),
(531,772,qs),
(531,776,o),
(484,840,o),
(464,859,qs),
(459,864,o),
(441,864,qs),
(425,864,o),
(397,852,o),
(397,847,qs),
(397,836,o)
);
},
{
closed = 1;
nodes = (
(349,663,o),
(338,659,o),
(329,649,o),
(323,641,o),
(315,624,o),
(311,613,o),
(304,591,o),
(302,586,qs),
(128,139,ls),
(102,72,o),
(81,45,qs),
(74,36,o),
(36,26,o),
(24,26,qs),
(20,26,o),
(20,12,qs),
(20,1,o),
(24,-3,q),
(41,-2,o),
(78,0,o),
(108,2,o),
(128,2,qs),
(131,2,o),
(231,-3,q),
(233,2,o),
(232,26,o),
(229,26,qs),
(220,26,o),
(180,35,o),
(171,42,qs),
(163,48,o),
(163,62,qs),
(163,81,o),
(180,131,qs),
(223,241,l),
(228,244,l),
(303,249,o),
(355,249,qs),
(392,249,o),
(431,246,qs),
(434,246,o),
(437,242,q),
(478,129,l),
(482,118,ls),
(485,108,o),
(492,73,o),
(492,60,qs),
(492,52,o),
(490,44,qs),
(487,36,o),
(451,26,o),
(439,26,qs),
(435,26,o),
(434,1,o),
(438,-3,q),
(553,2,o),
(554,2,qs),
(564,2,o),
(664,-3,q),
(666,3,o),
(666,7,qs),
(666,26,o),
(662,26,qs),
(650,26,o),
(600,45,o),
(594,60,qs),
(583,85,o),
(565,132,qs),
(365,660,l),
(356,663,l)
);
},
{
closed = 1;
nodes = (
(247,303,q),
(333,526,l),
(414,305,l),
(411,300,l),
(364,297,o),
(320,297,qs),
(301,297,o),
(249,299,qs),
(247,299,o)
);
},
{
closed = 1;
nodes = (
(469,718,qs),
(469,719,o),
(451,733,o),
(420,760,o),
(407,772,qs),
(387,792,o),
(366,820,qs),
(361,828,o),
(355,828,qs),
(352,828,o),
(345,820,qs),
(331,800,o),
(303,774,qs),
(289,761,o),
(246,722,o),
(242,718,q),
(242,698,o),
(252,698,qs),
(261,698,o),
(331,738,o),
(355,756,q),
(441,698,o),
(460,698,qs),
(469,698,o)
);
}
);
width = 684;
},
{
layerId = "5D05F7D8-7336-4C54-9046-4D1B683AB1D3";
width = 600;
},
{
layerId = "868F064F-B1BF-49D1-B6CA-957F77525378";
shapes = (
{
ref = gravecomb.cap;
},
{
pos = (244,0);
ref = Acircumflex;
}
);
width = 964;
}
);
note = uni1EA6;
unicode = 7846;
},
{
glyphname = Acircumflextilde;
lastChange = "2021-12-15 14:24:37 +0000";
layers = (
{
layerId = m01;
shapes = (
{
closed = 1;
nodes = (
(322,906,o),
(295,906,qs),
(272,906,o),
(219,870,o),
(219,843,qs),
(219,828,o),
(228,828,qs),
(232,828,o),
(234,829,q),
(250,862,o),
(281,862,qs),
(307,862,o),
(388,821,o),
(416,821,qs),
(438,821,o),
(492,861,o),
(492,888,qs),
(492,903,o),
(483,903,qs),
(479,903,o),
(477,902,q),
(459,865,o),
(428,865,qs),
(401,865,o)
);
},
{
closed = 1;
nodes = (
(469,711,qs),
(469,712,o),
(451,725,o),
(420,749,o),
(407,760,qs),
(384,781,o),
(366,804,q),
(362,811,o),
(355,811,qs),
(352,811,o),
(345,804,qs),
(330,786,o),
(303,762,qs),
(288,749,o),
(246,715,o),
(242,711,q),
(242,693,o),
(252,693,qs),
(261,693,o),
(331,728,o),
(355,744,q),
(381,728,o),
(452,693,o),
(460,693,qs),
(469,693,o)
);
},
{
closed = 1;
nodes = (
(349,663,o),
(338,659,o),
(329,649,o),
(323,641,o),
(315,624,o),
(311,613,o),
(304,591,o),
(302,586,qs),
(128,139,ls),
(102,72,o),
(81,45,qs),
(74,36,o),
(36,26,o),
(24,26,qs),
(20,26,o),
(20,12,qs),
(20,1,o),
(24,-3,q),
(41,-2,o),
(78,0,o),
(108,2,o),
(128,2,qs),
(131,2,o),
(231,-3,q),
(233,2,o),
(232,26,o),
(229,26,qs),
(220,26,o),
(180,35,o),
(171,42,qs),
(163,48,o),
(163,62,qs),
(163,81,o),
(180,131,qs),
(223,241,l),
(228,244,l),
(303,249,o),
(355,249,qs),
(392,249,o),
(431,246,qs),
(434,246,o),
(437,242,q),
(478,129,l),
(482,118,ls),
(485,108,o),
(492,73,o),
(492,60,qs),
(492,52,o),
(490,44,qs),
(487,36,o),
(451,26,o),
(439,26,qs),
(435,26,o),
(434,1,o),
(438,-3,q),
(553,2,o),
(554,2,qs),
(564,2,o),
(664,-3,q),
(666,3,o),
(666,7,qs),
(666,26,o),
(662,26,qs),
(650,26,o),
(600,45,o),
(594,60,qs),
(583,85,o),
(565,132,qs),
(365,660,l),
(356,663,l)
);
},
{
closed = 1;
nodes = (
(247,303,q),
(333,526,l),
(414,305,l),
(411,300,l),
(364,297,o),
(320,297,qs),
(301,297,o),
(249,299,qs),
(247,299,o)
);
}
);
width = 684;
},
{
layerId = "5D05F7D8-7336-4C54-9046-4D1B683AB1D3";
width = 600;
},
{
layerId = "868F064F-B1BF-49D1-B6CA-957F77525378";
shapes = (
{
ref = tildecomb.cap;
},
{
pos = (664,0);
ref = Acircumflex;
}
);
width = 1384;
}
);
note = uni1EAA;
unicode = 7850;
},
{
glyphname = Aogonek;
lastChange = "2021-12-15 14:24:36 +0000";
layers = (
{
layerId = m01;
shapes = (
{
closed = 1;
nodes = (
(128,72,o),
(107,45,qs),
(100,36,o),
(62,26,o),
(50,26,qs),
(46,26,o),
(46,12,qs),
(46,1,o),
(50,-3,q),
(67,-2,o),
(104,0,o),
(134,2,o),
(154,2,qs),
(157,2,o),
(257,-3,q),
(259,2,o),
(258,26,o),
(255,26,qs),
(246,26,o),
(206,35,o),
(197,42,qs),
(189,48,o),
(189,62,qs),
(189,81,o),
(206,131,qs),
(249,241,l),
(254,244,l),
(329,249,o),
(381,249,qs),
(418,249,o),
(457,246,qs),
(460,246,o),
(463,242,q),
(504,129,l),
(508,118,ls),
(511,108,o),
(518,73,o),
(518,60,qs),
(518,52,o),
(516,44,qs),
(513,36,o),
(477,26,o),
(465,26,qs),
(461,26,o),
(460,1,o),
(464,-3,q),
(482,-2,o),
(529,1,o),
(545,2,q),
(500,-27,o),
(433,-108,o),
(433,-146,qs),
(433,-173,o),
(467,-223,o),
(504,-223,qs),
(559,-223,o),
(609,-157,qs),
(614,-150,o),
(614,-139,qs),
(614,-126,o),
(609,-126,qs),
(608,-126,o),
(588,-145,o),
(550,-164,o),
(528,-164,qs),
(505,-164,o),
(487,-137,o),
(487,-121,qs),
(487,-91,o),
(552,-21,o),
(591,2,q),
(627,1,o),
(690,-3,q),
(692,3,o),
(692,7,qs),
(692,26,o),
(688,26,qs),
(676,26,o),
(626,45,o),
(620,60,qs),
(609,85,o),
(591,132,qs),
(391,660,l),
(382,663,l),
(375,663,o),
(364,659,o),
(355,649,o),
(349,641,o),
(341,624,o),
(337,613,o),
(330,591,o),
(328,586,qs),
(154,139,ls)
);
},
{
closed = 1;
nodes = (
(437,300,l),
(390,297,o),
(346,297,qs),
(327,297,o),
(275,299,qs),
(273,299,o),
(273,303,q),
(359,526,l),
(440,305,l)
);
}
);
width = 746;
},
{
layerId = "5D05F7D8-7336-4C54-9046-4D1B683AB1D3";
shapes = (
{
closed = 1;
nodes = (
(250,292,q),
(332,492,l),
(408,292,l),
(406,288,o),
(406,288,q),
(360,285,o),
(324,285,qs),
(286,285,o),
(252,288,qs),
(250,288,o)
);
},
{
closed = 1;
nodes = (
(686,12,qs),
(686,30,o),
(682,30,qs),
(670,30,o),
(618,48,o),
(612,63,qs),
(597,96,o),
(582,136,qs),
(372,660,l),
(367,665,o),
(360,665,qs),
(351,665,o),
(343,658,qs),
(329,646,o),
(306,586,qs),
(120,136,ls),
(101,88,o),
(82,58,qs),
(75,47,o),
(22,30,o),
(10,30,qs),
(8,30,o),
(8,12,qs),
(8,1,o),
(12,-3,q),
(27,-2,o),
(98,3,o),
(150,3,o),
(234,-3,o),
(239,-3,q),
(241,3,o),
(241,29,o),
(238,30,q),
(230,30,o),
(185,40,o),
(176,46,qs),
(165,53,o),
(165,79,o),
(184,131,qs),
(222,224,l),
(222,228,o),
(228,228,qs),
(288,231,o),
(396,231,o),
(428,229,qs),
(431,229,o),
(435,225,q),
(470,132,ls),
(489,83,o),
(489,63,qs),
(489,56,o),
(486,50,qs),
(482,42,o),
(440,30,o),
(428,30,qs),
(424,30,o),
(424,1,o),
(428,-3,q),
(551,3,o),
(558,3,qs),
(570,3,l),
(524,-19,o),
(445,-106,o),
(445,-144,qs),
(445,-175,o),
(489,-221,o),
(521,-221,qs),
(554,-221,o),
(617,-177,o),
(635,-153,qs),
(640,-146,o),
(640,-134,qs),
(640,-118,o),
(636,-118,q),
(635,-119,o),
(615,-133,o),
(598,-143,o),
(569,-153,o),
(555,-153,qs),
(535,-153,o),
(514,-131,o),
(514,-116,qs),
(514,-87,o),
(575,-22,o),
(614,1,q),
(615,1,o),
(640,-1,o),
(675,-3,o),
(684,-3,q),
(686,0,o)
);
}
);
width = 692;
},
{
layerId = "868F064F-B1BF-49D1-B6CA-957F77525378";
shapes = (
{
closed = 1;
nodes = (
(411,275,o),
(411,275,q),
(380,273,o),
(339,273,qs),
(296,273,o),
(266,276,qs),
(264,276,o),
(264,280,q),
(342,458,l),
(414,280,l)
);
},
{
closed = 1;
nodes = (
(93,71,l),
(86,59,o),
(20,32,o),
(8,32,qs),
(6,32,o),
(6,11,qs),
(6,0,o),
(10,-4,q),
(28,-3,o),
(102,4,o),
(154,4,o),
(248,-3,o),
(258,-4,q),
(260,2,o),
(260,32,o),
(257,33,q),
(250,33,o),
(201,44,o),
(191,49,qs),
(178,56,o),
(178,70,qs),
(178,86,o),
(198,131,qs),
(231,207,l),
(234,212,o),
(238,212,qs),
(273,213,o),
(339,213,qs),
(418,213,o),
(437,212,qs),
(440,212,o),
(444,208,q),
(473,134,ls),
(497,72,o),
(497,60,o),
(494,55,qs),
(489,48,o),
(440,33,o),
(429,33,qs),
(425,33,o),
(425,0,o),
(429,-4,q),
(555,3,o),
(579,3,q),
(532,-11,o),
(445,-100,o),
(445,-140,qs),
(445,-176,o),
(497,-218,o),
(526,-218,qs),
(563,-218,o),
(632,-171,o),
(649,-149,qs),
(655,-141,o),
(655,-127,qs),
(655,-109,o),
(650,-109,q),
(638,-119,o),
(589,-142,o),
(570,-142,qs),
(553,-142,o),
(529,-125,o),
(529,-110,qs),
(529,-54,o),
(623,2,q),
(632,1,o),
(699,-3,o),
(714,-4,q),
(716,-1,o),
(716,33,o),
(712,33,qs),
(699,33,o),
(648,50,o),
(641,66,qs),
(625,103,o),
(610,141,qs),
(389,659,l),
(384,667,o),
(374,667,qs),
(368,667,o),
(355,656,o),
(342,633,o),
(334,618,o),
(321,588,o),
(320,586,qs),
(122,134,l)
);
}
);
width = 721;
}
);
note = Aogonek;
unicode = 260;
},
{
glyphname = AE;
lastChange = "2021-12-15 14:24:36 +0000";
layers = (
{
layerId = m01;
shapes = (
{
closed = 1;
nodes = (
(413,295,qs),
(395,295,o),
(343,297,qs),
(341,297,o),
(342,301,q),
(479,524,o),
(479,524,q),
(484,531,o),
(488,531,qs),
(497,531,o),
(497,523,qs),
(497,308,ls),
(497,297,o),
(485,297,qs),
(433,295,o)
);
},
{
closed = 1;
nodes = (
(484,244,qs),
(497,241,o),
(497,233,qs),
(497,135,ls),
(497,76,o),
(490,49,qs),
(487,41,o),
(436,26,o),
(424,26,qs),
(420,26,o),
(420,12,qs),
(420,1,o),
(424,-3,q),
(542,2,ls),
(585,2,o),
(826,-4,o),
(883,-4,q),
(885,11,o),
(899,57,o),
(911,92,o),
(932,149,o),
(937,162,q),
(931,168,o),
(912,168,qs),
(900,168,o),
(898,162,qs),
(887,124,o),
(850,69,o),
(835,61,qs),
(802,44,o),
(709,44,qs),
(661,44,ls),
(596,44,o),
(593,54,qs),
(584,80,o),
(584,145,qs),
(584,300,ls),
(584,309,o),
(656,309,qs),
(749,309,o),
(762,301,qs),
(768,297,o),
(773,292,o),
(783,265,o),
(790,238,qs),
(793,230,o),
(806,230,qs),
(818,230,o),
(822,234,q),
(822,423,l),
(817,428,o),
(805,428,qs),
(791,428,o),
(790,421,qs),
(784,398,o),
(782,387,o),
(769,363,o),
(761,361,o),
(733,353,o),
(708,353,o),
(680,353,qs),
(627,353,ls),
(584,353,o),
(584,359,qs),
(584,519,ls),
(584,579,o),
(589,603,qs),
(591,616,o),
(677,616,qs),
(744,616,ls),
(791,616,o),
(845,585,o),
(860,530,q),
(861,523,o),
(887,523,o),
(892,528,q),
(890,540,o),
(867,635,o),
(863,664,q),
(806,664,o),
(584,656,o),
(540,656,qs),
(473,656,o),
(424,658,q),
(420,654,o),
(420,643,qs),
(420,629,o),
(424,629,qs),
(437,629,o),
(469,616,o),
(469,604,qs),
(469,596,o),
(462,584,qs),
(185,137,ls),
(143,68,o),
(116,43,qs),
(99,26,o),
(55,26,qs),
(51,26,o),
(48,10,qs),
(46,-1,o),
(48,-3,q),
(117,0,o),
(153,0,qs),
(195,0,o),
(255,-3,q),
(257,2,o),
(262,26,o),
(260,26,qs),
(220,26,o),
(206,40,qs),
(199,47,o),
(202,60,qs),
(206,79,o),
(235,129,qs),
(304,239,l),
(309,242,o),
(309,242,q),
(386,247,o),
(408,247,qs),
(463,247,o)
);
}
);
width = 982;
},
{
layerId = "5D05F7D8-7336-4C54-9046-4D1B683AB1D3";
shapes = (
{
closed = 1;
nodes = (
(446,293,o),
(439,288,o),
(433,286,o),
(431,286,qs),
(384,283,o),
(379,283,qs),
(342,283,o),
(308,286,qs),
(306,286,o),
(307,290,q),
(434,494,o),
(434,494,q),
(437,500,o),
(442,500,qs),
(446,500,o),
(446,496,qs),
(446,296,ls)
);
},
{
closed = 1;
nodes = (
(113,86,o),
(87,56,qs),
(78,45,o),
(22,24,o),
(11,24,qs),
(6,24,o),
(4,10,qs),
(2,-3,o),
(5,-6,q),
(18,-5,o),
(98,0,o),
(125,0,qs),
(151,0,o),
(220,-5,o),
(230,-6,q),
(233,0,o),
(238,24,o),
(235,25,q),
(226,25,o),
(186,35,o),
(178,42,qs),
(169,51,o),
(172,64,qs),
(175,79,o),
(205,129,qs),
(263,222,l),
(263,226,o),
(270,226,qs),
(330,229,o),
(384,229,qs),
(409,229,o),
(441,227,qs),
(444,227,o),
(446,223,q),
(446,133,ls),
(446,77,o),
(439,50,qs),
(436,42,o),
(390,30,o),
(377,30,qs),
(373,30,o),
(373,12,qs),
(373,-2,o),
(377,-6,q),
(505,0,ls),
(548,0,o),
(790,-5,o),
(847,-5,q),
(849,10,o),
(863,58,o),
(875,91,o),
(898,155,o),
(901,164,q),
(895,170,o),
(873,170,qs),
(860,170,o),
(859,164,q),
(848,130,o),
(808,76,o),
(792,68,qs),
(751,47,o),
(673,47,qs),
(636,47,ls),
(573,47,o),
(568,60,qs),
(559,86,o),
(559,141,qs),
(559,296,ls),
(559,304,o),
(631,304,qs),
(710,304,o),
(723,296,qs),
(730,291,o),
(733,289,o),
(744,263,o),
(751,236,qs),
(754,228,o),
(767,228,qs),
(782,228,o),
(786,232,q),
(786,421,l),
(781,426,o),
(767,426,qs),
(752,426,o),
(751,419,qs),
(748,409,o),
(745,394,qs),
(739,364,o),
(717,354,o),
(659,354,qs),
(656,354,o),
(655,354,qs),
(603,354,ls),
(559,354,o),
(559,360,qs),
(559,517,ls),
(559,570,o),
(565,598,qs),
(567,611,o),
(641,611,qs),
(693,611,ls),
(788,611,o),
(821,522,qs),
(824,515,o),
(835,515,qs),
(851,515,o),
(856,520,q),
(855,525,o),
(831,632,o),
(827,662,q),
(770,662,o),
(548,654,o),
(504,654,qs),
(437,654,o),
(377,658,q),
(373,654,o),
(373,640,qs),
(373,624,o),
(377,624,qs),
(389,624,o),
(424,613,o),
(428,605,qs),
(430,601,o),
(430,600,qs),
(430,592,o),
(425,584,qs),
(142,134,ls)
);
}
);
width = 914;
},
{
layerId = "868F064F-B1BF-49D1-B6CA-957F77525378";
shapes = (
{
closed = 1;
nodes = (
(106,69,ls),
(97,57,o),
(28,33,o),
(16,33,qs),
(15,33,o),
(10,13,o),
(10,8,qs),
(10,-2,o),
(12,-4,q),
(29,-3,o),
(113,4,o),
(139,4,qs),
(164,4,o),
(240,-3,o),
(254,-4,q),
(257,2,o),
(263,33,o),
(260,33,qs),
(224,33,o),
(200,44,qs),
(187,51,o),
(190,67,qs),
(193,84,o),
(223,129,qs),
(270,205,l),
(272,210,o),
(278,210,qs),
(313,211,o),
(370,211,qs),
(413,211,o),
(439,210,qs),
(448,210,o),
(448,200,qs),
(448,135,ls),
(448,79,o),
(442,56,q),
(439,49,o),
(393,33,o),
(382,33,qs),
(378,33,o),
(378,13,qs),
(378,0,o),
(382,-4,q),
(522,2,ls),
(565,2,o),
(807,-2,o),
(864,-2,q),
(869,32,o),
(918,170,q),
(912,176,o),
(888,176,qs),
(876,176,o),
(874,170,qs),
(862,139,o),
(819,89,o),
(802,80,qs),
(752,54,o),
(690,54,qs),
(664,54,ls),
(601,54,o),
(596,70,qs),
(588,93,o),
(588,141,qs),
(588,295,ls),
(588,304,o),
(660,304,qs),
(725,304,o),
(738,296,q),
(739,295,o),
(745,292,o),
(747,290,o),
(752,282,o),
(756,272,o),
(762,252,o),
(766,238,qs),
(769,230,o),
(782,230,qs),
(799,230,o),
(803,234,q),
(803,423,l),
(798,428,o),
(781,428,qs),
(767,428,o),
(766,421,qs),
(762,407,o),
(760,392,qs),
(757,367,o),
(752,363,qs),
(746,359,o),
(684,359,qs),
(631,359,ls),
(588,359,o),
(588,365,qs),
(588,519,ls),
(588,573,o),
(593,597,qs),
(595,610,o),
(658,610,qs),
(696,610,ls),
(735,610,o),
(817,556,o),
(836,518,qs),
(839,511,o),
(850,511,qs),
(868,511,o),
(873,516,q),
(845,654,o),
(844,664,q),
(788,664,o),
(566,656,o),
(521,656,qs),
(454,656,o),
(383,664,q),
(380,661,o),
(380,627,o),
(384,627,qs),
(395,627,o),
(433,609,o),
(433,598,qs),
(433,590,o),
(429,584,qs),
(147,132,l)
);
},
{
closed = 1;
nodes = (
(439,273,qs),
(428,273,o),
(411,272,o),
(397,271,o),
(383,271,qs),
(348,271,o),
(318,274,qs),
(316,274,o),
(316,278,q),
(438,475,ls),
(441,480,o),
(445,480,qs),
(448,480,o),
(448,475,qs),
(448,282,ls),
(448,273,o)
);
}
);
width = 931;
}
);
note = AE;
unicode = 198;
},
{
glyphname = B;
lastChange = "2021-12-15 14:24:36 +0000";
layers = (
{
layerId = m01;
shapes = (
{
closed = 1;
nodes = (
(415,76,o),
(347,53,o),
(298,45,o),
(273,45,qs),
(234,45,o),
(219,59,qs),
(203,72,o),
(203,148,qs),
(203,294,ls),
(203,315,o),
(207,327,q),
(257,331,o),
(279,331,qs),
(371,331,o),
(457,240,o),
(457,176,qs),
(457,133,o)
);
},
{
closed = 1;
nodes = (
(109,49,qs),
(104,40,o),
(53,26,o),
(40,26,qs),
(37,26,o),
(37,0,o),
(40,-3,q),
(161,0,l),
(298,0,ls),
(413,0,o),
(552,101,o),
(552,187,qs),
(552,254,o),
(444,353,o),
(405,360,q),
(402,363,o),
(410,366,qs),
(424,371,o),
(463,395,o),
(509,457,o),
(509,529,o),
(481,588,o),
(437,624,o),
(380,648,o),
(326,657,o),
(300,657,qs),
(275,657,o),
(210,656,o),
(159,656,qs),
(92,656,o),
(40,658,q),
(36,654,o),
(36,641,qs),
(36,629,o),
(40,629,qs),
(53,629,o),
(106,615,o),
(109,607,qs),
(116,580,o),
(116,521,qs),
(116,143,ls),
(116,61,o)
);
},
{
closed = 1;
nodes = (
(269,373,qs),
(203,373,o),
(203,380,qs),
(203,499,l),
(207,600,ls),
(207,608,o),
(213,609,qs),
(238,616,o),
(284,616,qs),
(352,616,o),
(421,539,o),
(421,470,qs),
(421,429,o),
(366,380,o),
(325,376,qs),
(301,373,o)
);
}
);
width = 592;
},
{
layerId = "5D05F7D8-7336-4C54-9046-4D1B683AB1D3";
shapes = (
{
closed = 1;
nodes = (
(406,82,o),
(357,59,o),
(315,50,o),
(293,50,qs),
(242,50,o),
(229,60,qs),
(217,70,o),
(217,112,qs),
(217,298,ls),
(217,313,o),
(225,318,q),
(258,323,o),
(287,323,qs),
(366,323,o),
(437,240,o),
(437,176,qs),
(437,137,o)
);
},
{
closed = 1;
nodes = (
(97,52,qs),
(93,43,o),
(43,30,o),
(30,30,qs),
(27,30,o),
(27,13,qs),
(27,0,o),
(30,-3,q),
(163,1,l),
(305,0,ls),
(420,-1,o),
(559,101,o),
(559,187,qs),
(559,255,o),
(468,348,o),
(431,354,q),
(427,357,o),
(435,360,qs),
(448,365,o),
(485,390,o),
(527,452,o),
(527,488,qs),
(527,534,o),
(484,604,o),
(416,641,o),
(344,659,o),
(308,659,qs),
(283,659,o),
(213,658,o),
(162,658,qs),
(95,658,o),
(29,661,q),
(25,657,o),
(25,643,qs),
(25,628,o),
(29,628,qs),
(44,628,o),
(94,614,o),
(97,603,qs),
(104,581,o),
(104,521,qs),
(104,143,ls),
(104,73,o)
);
},
{
closed = 1;
nodes = (
(277,372,qs),
(217,372,o),
(217,382,qs),
(217,499,l),
(219,595,ls),
(219,604,o),
(227,606,qs),
(244,611,o),
(291,611,qs),
(406,611,o),
(406,476,qs),
(406,394,o),
(333,378,q),
(314,372,o)
);
}
);
width = 586;
},
{
layerId = "868F064F-B1BF-49D1-B6CA-957F77525378";
shapes = (
{
closed = 1;
nodes = (
(325,55,qs),
(260,55,o),
(250,62,qs),
(243,67,o),
(243,76,qs),
(243,301,ls),
(243,306,o),
(254,310,qs),
(272,315,o),
(305,315,qs),
(428,315,o),
(428,176,qs),
(428,55,o)
);
},
{
closed = 1;
nodes = (
(97,55,qs),
(94,47,o),
(43,33,o),
(31,33,qs),
(27,33,o),
(27,13,qs),
(27,0,o),
(31,-4,q),
(52,-2,ls),
(74,-1,o),
(147,2,o),
(177,2,qs),
(324,0,ls),
(438,-2,o),
(578,101,o),
(578,187,qs),
(578,255,o),
(502,342,o),
(467,348,q),
(464,351,o),
(472,354,qs),
(495,363,o),
(555,431,o),
(555,483,qs),
(555,530,o),
(511,602,o),
(440,642,o),
(364,661,o),
(327,661,qs),
(209,659,o),
(176,659,qs),
(109,659,o),
(29,664,q),
(26,661,o),
(26,645,qs),
(26,627,o),
(30,627,qs),
(41,627,o),
(94,607,o),
(97,599,qs),
(103,576,o),
(103,521,qs),
(103,143,ls),
(103,78,o)
);
},
{
closed = 1;
nodes = (
(295,371,qs),
(243,371,o),
(243,385,qs),
(243,499,l),
(243,590,ls),
(243,600,o),
(252,602,qs),
(266,606,o),
(310,606,qs),
(402,606,o),
(402,482,qs),
(402,447,o),
(383,402,o),
(367,388,o),
(352,380,qs),
(334,371,o)
);
}
);
width = 605;
}
);
note = B;
unicode = 66;
},
{
glyphname = C;
lastChange = "2021-12-15 14:24:36 +0000";
layers = (
{
layerId = m01;
shapes = (
{
closed = 1;
nodes = (
(624,188,o),
(607,192,o),
(601,192,qs),
(598,192,o),
(587,159,o),
(566,110,o),
(552,95,qs),
(498,37,o),
(399,37,qs),
(316,37,o),
(195,126,o),
(139,262,o),
(139,343,qs),
(139,452,o),
(277,625,o),
(375,625,qs),
(422,625,o),
(497,602,o),
(538,571,o),
(567,528,o),
(576,501,o),
(579,488,q),
(582,483,o),
(592,483,qs),
(613,483,o),
(613,498,qs),
(613,508,o),
(615,642,q),
(490,667,o),
(372,667,qs),
(234,667,o),
(44,464,o),
(44,322,qs),
(44,188,o),
(229,-6,o),
(361,-6,qs),
(527,-6,o),
(600,38,qs),
(606,41,o),
(634,172,o),
(634,183,q),
(629,186,ls)
);
}
);
width = 656;
},
{
layerId = "5D05F7D8-7336-4C54-9046-4D1B683AB1D3";
shapes = (
{
closed = 1;
nodes = (
(574,191,qs),
(572,191,o),
(561,159,o),
(540,112,o),
(527,98,qs),
(475,42,o),
(386,42,qs),
(274,42,o),
(151,217,o),
(151,343,qs),
(151,456,o),
(260,618,o),
(358,618,qs),
(412,618,o),
(494,587,o),
(536,539,o),
(557,501,o),
(561,483,q),
(569,479,o),
(575,479,qs),
(599,479,o),
(599,494,qs),
(599,510,o),
(593,639,o),
(590,640,qs),
(467,667,o),
(354,667,qs),
(215,667,o),
(25,464,o),
(25,322,qs),
(25,188,o),
(211,-6,o),
(343,-6,qs),
(488,-6,o),
(575,36,qs),
(583,40,o),
(613,169,o),
(613,182,q),
(609,191,o)
);
}
);
width = 639;
},
{
layerId = "868F064F-B1BF-49D1-B6CA-957F77525378";
shapes = (
{
closed = 1;
nodes = (
(566,190,qs),
(565,190,o),
(554,159,o),
(533,114,o),
(520,101,qs),
(466,47,o),
(392,47,qs),
(291,47,o),
(181,218,o),
(181,343,qs),
(181,611,o),
(360,611,qs),
(409,611,o),
(488,582,o),
(533,536,o),
(556,496,o),
(561,478,q),
(576,475,o),
(577,475,qs),
(604,475,o),
(604,505,o),
(589,637,o),
(584,638,qs),
(464,667,o),
(355,667,qs),
(214,667,o),
(25,464,o),
(25,322,qs),
(25,188,o),
(213,-7,o),
(345,-7,qs),
(458,-7,o),
(570,34,qs),
(580,38,o),
(611,166,o),
(611,180,q),
(607,190,o)
);
}
);
width = 638;
}
);
note = C;
unicode = 67;
},
{
glyphname = D;
lastChange = "2021-12-15 14:24:36 +0000";
layers = (
{
layerId = m01;
shapes = (
{
closed = 1;
nodes = (
(38,658,q),
(34,654,o),
(34,641,qs),
(34,629,o),
(38,629,qs),
(51,629,o),
(104,615,o),
(107,607,qs),
(114,580,o),
(114,521,qs),
(114,143,ls),
(114,61,o),
(107,49,qs),
(102,40,o),
(51,26,o),
(38,26,qs),
(35,26,o),
(35,12,qs),
(35,0,o),
(38,-3,q),
(159,0,ls),
(199,1,o),
(318,-3,o),
(330,-3,qs),
(492,-3,o),
(676,191,o),
(676,336,qs),
(676,466,o),
(494,658,o),
(331,658,qs),
(312,658,o),
(195,656,o),
(157,656,qs),
(90,656,o)
);
},
{
closed = 1;
nodes = (
(214,598,qs),
(226,614,o),
(334,614,qs),
(339,614,ls),
(455,614,o),
(576,454,o),
(576,340,qs),
(576,43,o),
(346,43,qs),
(319,43,o),
(220,53,o),
(216,63,qs),
(201,97,o),
(201,139,qs),
(201,535,ls),
(201,580,o)
);
}
);
width = 722;
},
{
layerId = "5D05F7D8-7336-4C54-9046-4D1B683AB1D3";
shapes = (
{
closed = 1;
nodes = (
(29,661,q),
(25,657,o),
(25,643,qs),
(25,628,o),
(29,628,qs),
(44,628,o),
(94,614,o),
(97,603,qs),
(104,581,o),
(104,521,qs),
(104,143,ls),
(104,73,o),
(97,52,qs),
(93,43,o),
(43,30,o),
(30,30,qs),
(27,30,o),
(27,13,qs),
(27,0,o),
(30,-3,q),
(163,1,ls),
(190,1,o),
(313,-3,o),
(334,-3,qs),
(496,-3,o),
(681,192,o),
(681,336,qs),
(681,466,o),
(498,658,o),
(335,658,qs),
(162,658,o),
(162,658,q),
(95,658,o)
);
},
{
closed = 1;
nodes = (
(230,592,qs),
(242,608,o),
(338,608,qs),
(343,608,ls),
(444,608,o),
(553,452,o),
(553,340,qs),
(553,48,o),
(350,48,qs),
(244,48,o),
(228,64,q),
(217,82,o),
(217,138,qs),
(217,530,ls),
(217,574,o)
);
}
);
width = 708;
},
{
layerId = "868F064F-B1BF-49D1-B6CA-957F77525378";
shapes = (
{
closed = 1;
nodes = (
(29,664,q),
(26,661,o),
(26,645,qs),
(26,627,o),
(30,627,qs),
(41,627,o),
(94,607,o),
(97,599,qs),
(103,576,o),
(103,521,qs),
(103,143,ls),
(103,78,o),
(97,55,qs),
(94,47,o),
(43,33,o),
(31,33,qs),
(27,33,o),
(27,13,qs),
(27,0,o),
(31,-4,q),
(177,2,ls),
(212,2,o),
(330,-3,o),
(349,-3,qs),
(511,-3,o),
(697,192,o),
(697,336,qs),
(697,466,o),
(513,659,o),
(350,659,qs),
(176,659,o),
(176,659,q),
(109,659,o)
);
},
{
closed = 1;
nodes = (
(256,587,qs),
(268,603,o),
(353,603,qs),
(358,603,ls),
(444,603,o),
(541,450,o),
(541,340,qs),
(541,197,o),
(449,53,o),
(365,53,qs),
(274,53,o),
(252,66,qs),
(243,71,o),
(243,136,qs),
(243,524,ls),
(243,569,o)
);
}
);
width = 724;
}
);
note = D;
unicode = 68;
},
{
glyphname = Eth;
lastChange = "2021-12-15 14:24:36 +0000";
layers = (
{
layerId = m01;
shapes = (
{
closed = 1;
nodes = (
(65,321,qs),
(65,308,o),
(70,308,qs),
(416,308,o),
(416,308,q),
(422,322,o),
(422,338,qs),
(422,348,o),
(416,348,qs),
(71,348,o),
(71,348,q),
(65,339,o)
);
},
{
closed = 1;
nodes = (
(55,658,q),
(51,654,o),
(51,641,qs),
(51,629,o),
(55,629,qs),
(68,629,o),
(121,615,o),
(124,607,qs),
(131,580,o),
(131,521,qs),
(131,143,ls),
(131,61,o),
(124,49,qs),
(119,40,o),
(68,26,o),
(55,26,qs),
(52,26,o),
(52,12,qs),
(52,0,o),
(55,-3,q),
(176,0,ls),
(214,1,o),
(335,-3,o),
(347,-3,qs),
(509,-3,o),
(693,191,o),
(693,336,qs),
(693,466,o),
(511,658,o),
(348,658,qs),
(329,658,o),
(210,656,o),
(174,656,qs),
(107,656,o)
);
},
{
closed = 1;
nodes = (
(231,598,qs),
(243,614,o),
(351,614,qs),
(356,614,ls),
(472,614,o),
(597,453,o),
(597,340,qs),
(597,194,o),
(478,43,o),
(363,43,qs),
(336,43,o),
(237,53,o),
(233,63,qs),
(218,97,o),
(218,139,qs),
(218,535,ls),
(218,580,o)
);
}
);
width = 731;
},
{
layerId = "5D05F7D8-7336-4C54-9046-4D1B683AB1D3";
shapes = (
{
closed = 1;
nodes = (
(48,322,qs),
(48,308,o),
(54,308,qs),
(400,308,l),
(406,321,o),
(406,338,qs),
(406,350,o),
(400,350,qs),
(54,350,l),
(48,342,o)
);
},
{
closed = 1;
nodes = (
(34,661,q),
(31,658,o),
(31,643,qs),
(31,628,o),
(35,628,qs),
(47,628,o),
(100,611,o),
(103,603,qs),
(110,578,o),
(110,521,qs),
(110,143,ls),
(110,70,o),
(103,52,qs),
(99,43,o),
(48,30,o),
(36,30,qs),
(32,30,o),
(32,12,qs),
(32,0,o),
(36,-4,q),
(55,-2,ls),
(75,-1,o),
(141,1,o),
(169,1,qs),
(206,2,o),
(324,-3,o),
(340,-3,qs),
(422,-3,o),
(555,51,o),
(641,144,o),
(686,266,o),
(686,336,qs),
(686,397,o),
(643,511,o),
(560,603,o),
(425,658,o),
(342,658,qs),
(322,658,o),
(204,658,o),
(168,658,qs),
(101,658,o)
);
},
{
closed = 1;
nodes = (
(236,592,qs),
(248,608,o),
(344,608,qs),
(350,608,ls),
(418,608,o),
(517,531,o),
(562,411,o),
(562,340,qs),
(562,195,o),
(456,48,o),
(356,48,qs),
(330,48,o),
(244,56,o),
(235,64,q),
(223,82,o),
(223,138,qs),
(223,530,ls),
(223,575,o)
);
}
);
width = 718;
},
{
layerId = "868F064F-B1BF-49D1-B6CA-957F77525378";
shapes = (
{
closed = 1;
nodes = (
(32,322,qs),
(32,307,o),
(37,307,qs),
(383,307,l),
(389,320,o),
(389,339,qs),
(389,353,o),
(383,353,qs),
(38,353,l),
(32,344,o)
);
},
{
closed = 1;
nodes = (
(14,664,q),
(11,661,o),
(11,645,qs),
(11,627,o),
(15,627,qs),
(26,627,o),
(79,607,o),
(82,599,qs),
(88,576,o),
(88,521,qs),
(88,143,ls),
(88,78,o),
(82,55,qs),
(79,47,o),
(28,33,o),
(16,33,qs),
(12,33,o),
(12,13,qs),
(12,0,o),
(16,-4,q),
(162,2,ls),
(198,2,o),
(315,-3,o),
(334,-3,qs),
(496,-3,o),
(680,191,o),
(680,336,qs),
(680,419,o),
(606,563,o),
(445,659,o),
(335,659,qs),
(161,659,ls),
(95,659,o)
);
},
{
closed = 1;
nodes = (
(241,587,qs),
(253,603,o),
(338,603,qs),
(343,603,ls),
(429,603,o),
(528,450,o),
(528,340,qs),
(528,197,o),
(435,53,o),
(350,53,qs),
(259,53,o),
(237,66,qs),
(228,71,o),
(228,136,qs),
(228,524,ls),
(228,569,o)
);
}
);
width = 706;
}
);
note = Eth;
unicode = 208;
},
{
glyphname = Dtail;
lastChange = "2021-12-15 14:24:02 +0000";
layers = (
{
layerId = m01;
shapes = (
{
closed = 1;
nodes = (
(55,658,q),
(51,654,o),
(51,641,qs),
(51,629,o),
(55,629,qs),
(68,629,o),
(121,615,o),
(124,607,qs),
(131,580,o),
(131,521,qs),
(131,353,l),
(68,353,l),
(66,353,ls),
(65,353,o),
(62,351,o),
(61,349,qs),
(53,325,o),
(53,315,qs),
(53,312,o),
(54,310,q),
(59,308,o),
(59,308,q),
(131,308,l),
(131,143,ls),
(131,61,o),
(124,49,qs),
(119,40,o),
(68,26,o),
(55,26,qs),
(52,26,o),
(52,12,qs),
(52,0,o),
(55,-3,q),
(176,0,ls),
(214,1,o),
(335,-3,o),
(347,-3,qs),
(509,-3,o),
(693,191,o),
(693,336,qs),
(693,466,o),
(511,658,o),
(348,658,qs),
(329,658,o),
(210,656,o),
(174,656,qs),
(107,656,o)
);
},
{
closed = 1;
nodes = (
(231,598,qs),
(243,614,o),
(351,614,qs),
(356,614,ls),
(472,614,o),
(597,453,o),
(597,340,qs),
(597,194,o),
(478,43,o),
(363,43,qs),
(336,43,o),
(237,53,o),
(233,63,qs),
(218,97,o),
(218,139,qs),
(218,308,l),
(352,308,l),
(359,314,l),
(365,330,o),
(367,344,qs),
(368,349,o),
(364,354,o),
(361,353,o),
(360,353,qs),
(218,353,l),
(218,535,ls),
(218,580,o)
);
}
);
width = 746;
},
{
layerId = "5D05F7D8-7336-4C54-9046-4D1B683AB1D3";
width = 600;
},
{
layerId = "868F064F-B1BF-49D1-B6CA-957F77525378";
width = 600;
}
);
note = uni0189;
unicode = (393,598);
},
{
glyphname = E;
lastChange = "2021-12-15 14:24:36 +0000";
layers = (
{
layerId = m01;
shapes = (
{
closed = 1;
nodes = (
(33,658,q),
(29,654,o),
(29,641,qs),
(29,629,o),
(33,629,qs),
(46,629,o),
(99,615,o),
(102,607,qs),
(109,580,o),
(109,521,qs),
(109,143,ls),
(109,61,o),
(102,49,qs),
(97,40,o),
(46,26,o),
(33,26,qs),
(30,26,o),
(30,0,o),
(33,-3,q),
(154,0,ls),
(224,0,o),
(444,-4,o),
(495,-4,q),
(497,11,o),
(511,57,o),
(523,92,o),
(544,149,o),
(549,162,q),
(543,168,o),
(524,168,qs),
(512,168,o),
(510,162,qs),
(499,124,o),
(462,69,o),
(447,61,qs),
(414,44,o),
(321,44,qs),
(273,44,ls),
(208,44,o),
(205,54,qs),
(196,80,o),
(196,145,qs),
(196,300,ls),
(196,309,o),
(268,309,qs),
(361,309,o),
(374,301,qs),
(380,297,o),
(385,292,o),
(395,265,o),
(402,238,qs),
(405,230,o),
(418,230,qs),
(430,230,o),
(434,234,q),
(434,423,l),
(429,428,o),
(417,428,qs),
(403,428,o),
(402,421,qs),
(396,398,o),
(394,387,o),
(381,363,o),
(373,361,o),
(345,353,o),
(320,353,o),
(292,353,qs),
(239,353,ls),
(196,353,o),
(196,359,qs),
(196,519,ls),
(196,579,o),
(201,603,qs),
(203,616,o),
(289,616,qs),
(356,616,ls),
(403,616,o),
(457,585,o),
(472,530,q),
(473,523,o),
(499,523,o),
(504,528,q),
(502,540,o),
(479,635,o),
(475,664,q),
(419,664,o),
(197,656,o),
(152,656,qs),
(85,656,o)
);
}
);
width = 571;
},
{
layerId = "5D05F7D8-7336-4C54-9046-4D1B683AB1D3";
shapes = (
{
closed = 1;
nodes = (
(29,661,q),
(25,657,o),
(25,643,qs),
(25,628,o),
(29,628,qs),
(44,628,o),
(94,614,o),
(97,603,qs),
(104,581,o),
(104,521,qs),
(104,143,ls),
(104,73,o),
(97,52,qs),
(93,43,o),
(43,30,o),
(30,30,qs),
(27,30,o),
(27,13,qs),
(27,0,o),
(30,-3,q),
(163,1,ls),
(214,3,o),
(465,-3,o),
(505,-3,q),
(507,12,o),
(521,60,o),
(533,93,o),
(556,157,o),
(559,166,q),
(553,172,o),
(531,172,qs),
(518,172,o),
(517,166,q),
(506,132,o),
(466,78,o),
(450,70,qs),
(409,49,o),
(331,49,qs),
(294,49,ls),
(231,49,o),
(226,62,qs),
(217,88,o),
(217,143,qs),
(217,298,ls),
(217,306,o),
(289,306,qs),
(368,306,o),
(381,298,qs),
(388,293,o),
(391,291,o),
(402,265,o),
(409,238,qs),
(412,230,o),
(425,230,qs),
(440,230,o),
(444,234,q),
(444,423,l),
(439,428,o),
(425,428,qs),
(410,428,o),
(409,421,qs),
(406,411,o),
(403,396,qs),
(397,366,o),
(375,356,o),
(317,356,qs),
(314,356,o),
(313,356,qs),
(261,356,ls),
(217,356,o),
(217,362,qs),
(217,519,ls),
(217,572,o),
(223,600,qs),
(225,613,o),
(299,613,qs),
(351,613,ls),
(446,613,o),
(479,524,qs),
(482,517,o),
(493,517,qs),
(509,517,o),
(514,522,q),
(513,527,o),
(489,634,o),
(485,664,q),
(428,664,o),
(206,657,o),
(162,657,qs),
(95,657,o)
);
}
);
width = 584;
},
{
layerId = "868F064F-B1BF-49D1-B6CA-957F77525378";
shapes = (
{
closed = 1;
nodes = (
(29,664,q),
(26,661,o),
(26,645,qs),
(26,627,o),
(30,627,qs),
(41,627,o),
(94,607,o),
(97,599,qs),
(103,576,o),
(103,521,qs),
(103,143,ls),
(103,78,o),
(97,55,qs),
(94,47,o),
(43,33,o),
(31,33,qs),
(27,33,o),
(27,13,qs),
(27,0,o),
(31,-4,q),
(177,2,ls),
(246,2,o),
(468,-2,o),
(519,-2,q),
(524,32,o),
(573,170,q),
(567,176,o),
(543,176,qs),
(530,176,o),
(529,170,q),
(517,139,o),
(474,89,o),
(457,80,qs),
(407,54,o),
(345,54,qs),
(319,54,ls),
(256,54,o),
(251,70,qs),
(243,93,o),
(243,141,qs),
(243,295,ls),
(243,304,o),
(315,304,qs),
(380,304,o),
(393,296,q),
(394,295,o),
(400,292,o),
(402,290,o),
(407,282,o),
(411,272,o),
(417,252,o),
(421,238,qs),
(424,230,o),
(437,230,qs),
(454,230,o),
(458,234,q),
(458,423,l),
(453,428,o),
(436,428,qs),
(422,428,o),
(421,421,qs),
(417,407,o),
(415,392,qs),
(412,367,o),
(407,363,qs),
(401,359,o),
(339,359,qs),
(286,359,ls),
(243,359,o),
(243,365,qs),
(243,519,ls),
(243,573,o),
(248,597,qs),
(250,610,o),
(313,610,qs),
(351,610,ls),
(390,610,o),
(472,556,o),
(491,518,qs),
(494,511,o),
(505,511,qs),
(523,511,o),
(528,516,q),
(500,654,o),
(499,664,q),
(442,664,o),
(220,659,o),
(176,659,qs),
(109,659,o)
);
}
);
width = 598;
}
);
note = E;
unicode = 69;
},
{
glyphname = Ecircumflexacute;
lastChange = "2021-12-15 14:24:37 +0000";
layers = (
{
layerId = m01;
shapes = (
{
closed = 1;
nodes = (
(366,789,o),
(369,789,qs),
(379,789,o),
(499,848,o),
(499,859,qs),
(499,865,o),
(468,882,o),
(450,882,qs),
(438,882,o),
(434,879,qs),
(419,868,o),
(382,832,o),
(357,804,o),
(357,802,qs),
(357,798,o)
);
},
{
closed = 1;
nodes = (
(33,658,q),
(29,654,o),
(29,641,qs),
(29,629,o),
(33,629,qs),
(46,629,o),
(99,615,o),
(102,607,qs),
(109,580,o),
(109,521,qs),
(109,143,ls),
(109,61,o),
(102,49,qs),
(97,40,o),
(46,26,o),
(33,26,qs),
(30,26,o),
(30,0,o),
(33,-3,q),
(154,0,ls),
(224,0,o),
(444,-4,o),
(495,-4,q),
(497,11,o),
(511,57,o),
(523,92,o),
(544,149,o),
(549,162,q),
(543,168,o),
(524,168,qs),
(512,168,o),
(510,162,qs),
(499,124,o),
(462,69,o),
(447,61,qs),
(414,44,o),
(321,44,qs),
(273,44,ls),
(208,44,o),
(205,54,qs),
(196,80,o),
(196,145,qs),
(196,300,ls),
(196,309,o),
(268,309,qs),
(361,309,o),
(374,301,qs),
(380,297,o),
(385,292,o),
(395,265,o),
(402,238,qs),
(405,230,o),
(418,230,qs),
(430,230,o),
(434,234,q),
(434,423,l),
(429,428,o),
(417,428,qs),
(403,428,o),
(402,421,qs),
(396,398,o),
(394,387,o),
(381,363,o),
(373,361,o),
(345,353,o),
(320,353,o),
(292,353,qs),
(239,353,ls),
(196,353,o),
(196,359,qs),
(196,519,ls),
(196,579,o),
(201,603,qs),
(203,616,o),
(289,616,qs),
(356,616,ls),
(403,616,o),
(457,585,o),
(472,530,q),
(473,523,o),
(499,523,o),
(504,528,q),
(502,540,o),
(479,635,o),
(475,664,q),
(419,664,o),
(197,656,o),
(152,656,qs),
(85,656,o)
);
},
{
closed = 1;
nodes = (
(394,718,qs),
(394,719,o),
(376,733,o),
(345,760,o),
(332,772,qs),
(312,792,o),
(291,820,qs),
(286,828,o),
(280,828,qs),
(277,828,o),
(270,820,qs),
(256,800,o),
(228,774,qs),
(214,761,o),
(171,722,o),
(167,718,q),
(167,698,o),
(177,698,qs),
(186,698,o),
(256,738,o),
(280,756,q),
(366,698,o),
(385,698,qs),
(394,698,o)
);
}
);
width = 674;
},
{
layerId = "5D05F7D8-7336-4C54-9046-4D1B683AB1D3";
width = 600;
},
{
layerId = "868F064F-B1BF-49D1-B6CA-957F77525378";
shapes = (
{
ref = acutecomb.cap;
},
{
pos = (244,0);
ref = Ecircumflex;
}
);
width = 842;
}
);
note = uni1EBE;
unicode = 7870;
},
{
glyphname = Ecircumflexgrave;
lastChange = "2021-12-15 14:24:37 +0000";
layers = (
{
layerId = m01;
shapes = (
{
closed = 1;
nodes = (
(436,761,o),
(445,761,qs),
(448,761,o),
(459,769,o),
(459,772,qs),
(459,776,o),
(412,840,o),
(392,859,qs),
(387,864,o),
(369,864,qs),
(353,864,o),
(325,852,o),
(325,847,qs),
(325,836,o)
);
},
{
closed = 1;
nodes = (
(33,658,q),
(29,654,o),
(29,641,qs),
(29,629,o),
(33,629,qs),
(46,629,o),
(99,615,o),
(102,607,qs),
(109,580,o),
(109,521,qs),
(109,143,ls),
(109,61,o),
(102,49,qs),
(97,40,o),
(46,26,o),
(33,26,qs),
(30,26,o),
(30,0,o),
(33,-3,q),
(154,0,ls),
(224,0,o),
(444,-4,o),
(495,-4,q),
(497,11,o),
(511,57,o),
(523,92,o),
(544,149,o),
(549,162,q),
(543,168,o),
(524,168,qs),
(512,168,o),
(510,162,qs),
(499,124,o),
(462,69,o),
(447,61,qs),
(414,44,o),
(321,44,qs),
(273,44,ls),
(208,44,o),
(205,54,qs),
(196,80,o),
(196,145,qs),
(196,300,ls),
(196,309,o),
(268,309,qs),
(361,309,o),
(374,301,qs),
(380,297,o),
(385,292,o),
(395,265,o),
(402,238,qs),
(405,230,o),
(418,230,qs),
(430,230,o),
(434,234,q),
(434,423,l),
(429,428,o),
(417,428,qs),
(403,428,o),
(402,421,qs),
(396,398,o),
(394,387,o),
(381,363,o),
(373,361,o),
(345,353,o),
(320,353,o),
(292,353,qs),
(239,353,ls),
(196,353,o),
(196,359,qs),
(196,519,ls),
(196,579,o),
(201,603,qs),
(203,616,o),
(289,616,qs),
(356,616,ls),
(403,616,o),
(457,585,o),
(472,530,q),
(473,523,o),
(499,523,o),
(504,528,q),
(502,540,o),
(479,635,o),
(475,664,q),
(419,664,o),
(197,656,o),
(152,656,qs),
(85,656,o)
);
},
{
closed = 1;
nodes = (
(397,718,qs),
(397,719,o),
(379,733,o),
(348,760,o),
(335,772,qs),
(315,792,o),
(294,820,qs),
(289,828,o),
(283,828,qs),
(280,828,o),
(273,820,qs),
(259,800,o),
(231,774,qs),
(217,761,o),
(174,722,o),
(170,718,q),
(170,698,o),
(180,698,qs),
(189,698,o),
(259,738,o),
(283,756,q),
(369,698,o),
(388,698,qs),
(397,698,o)
);
}
);
width = 571;
},
{
layerId = "5D05F7D8-7336-4C54-9046-4D1B683AB1D3";
width = 600;
},
{
layerId = "868F064F-B1BF-49D1-B6CA-957F77525378";
shapes = (
{
ref = gravecomb.cap;
},
{
pos = (244,0);
ref = Ecircumflex;
}
);
width = 842;
}
);
note = uni1EC0;
unicode = 7872;
},
{
glyphname = Ecircumflextilde;
lastChange = "2021-12-15 14:24:36 +0000";
layers = (
{
layerId = m01;
shapes = (
{
closed = 1;
nodes = (
(245,906,o),
(218,906,qs),
(195,906,o),
(142,870,o),
(142,843,qs),
(142,828,o),
(151,828,qs),
(155,828,o),
(157,829,q),
(173,862,o),
(204,862,qs),
(230,862,o),
(311,821,o),
(339,821,qs),
(361,821,o),
(415,861,o),
(415,888,qs),
(415,903,o),
(406,903,qs),
(402,903,o),
(400,902,q),
(382,865,o),
(351,865,qs),
(324,865,o)
);
},
{
closed = 1;
nodes = (
(392,711,qs),
(392,712,o),
(374,725,o),
(343,749,o),
(330,760,qs),
(307,781,o),
(289,804,q),
(285,811,o),
(278,811,qs),
(275,811,o),
(268,804,qs),
(253,786,o),
(226,762,qs),
(211,749,o),
(169,715,o),
(165,711,q),
(165,693,o),
(175,693,qs),
(184,693,o),
(254,728,o),
(278,744,q),
(304,728,o),
(375,693,o),
(383,693,qs),
(392,693,o)
);
},
{
closed = 1;
nodes = (
(33,658,q),
(29,654,o),
(29,641,qs),
(29,629,o),
(33,629,qs),
(46,629,o),
(99,615,o),
(102,607,qs),
(109,580,o),
(109,521,qs),
(109,143,ls),
(109,61,o),
(102,49,qs),
(97,40,o),
(46,26,o),
(33,26,qs),
(30,26,o),
(30,0,o),
(33,-3,q),
(154,0,ls),
(224,0,o),
(444,-4,o),
(495,-4,q),
(497,11,o),
(511,57,o),
(523,92,o),
(544,149,o),
(549,162,q),
(543,168,o),
(524,168,qs),
(512,168,o),
(510,162,qs),
(499,124,o),
(462,69,o),
(447,61,qs),
(414,44,o),
(321,44,qs),
(273,44,ls),
(208,44,o),
(205,54,qs),
(196,80,o),
(196,145,qs),
(196,300,ls),
(196,309,o),
(268,309,qs),
(361,309,o),
(374,301,qs),
(380,297,o),
(385,292,o),
(395,265,o),
(402,238,qs),
(405,230,o),
(418,230,qs),
(430,230,o),
(434,234,q),
(434,423,l),
(429,428,o),
(417,428,qs),
(403,428,o),
(402,421,qs),
(396,398,o),
(394,387,o),
(381,363,o),
(373,361,o),
(345,353,o),
(320,353,o),
(292,353,qs),
(239,353,ls),
(196,353,o),
(196,359,qs),
(196,519,ls),
(196,579,o),
(201,603,qs),
(203,616,o),
(289,616,qs),
(356,616,ls),
(403,616,o),
(457,585,o),
(472,530,q),
(473,523,o),
(499,523,o),
(504,528,q),
(502,540,o),
(479,635,o),
(475,664,q),
(419,664,o),
(197,656,o),
(152,656,qs),
(85,656,o)
);
}
);
width = 571;
},
{
layerId = "5D05F7D8-7336-4C54-9046-4D1B683AB1D3";
width = 600;
},
{
layerId = "868F064F-B1BF-49D1-B6CA-957F77525378";
shapes = (
{
closed = 1;
nodes = (
(242,906,o),
(215,906,qs),
(192,906,o),
(139,870,o),
(139,843,qs),
(139,828,o),
(148,828,qs),
(152,828,o),
(154,829,q),
(170,862,o),
(201,862,qs),
(227,862,o),
(308,821,o),
(336,821,qs),
(358,821,o),
(412,861,o),
(412,888,qs),
(412,903,o),
(403,903,qs),
(399,903,o),
(397,902,q),
(379,865,o),
(348,865,qs),
(321,865,o)
);
},
{
closed = 1;
nodes = (
(389,711,qs),
(389,712,o),
(371,725,o),
(340,749,o),
(327,760,qs),
(304,781,o),
(286,804,q),
(282,811,o),
(275,811,qs),
(272,811,o),
(265,804,qs),
(250,786,o),
(223,762,qs),
(208,749,o),
(166,715,o),
(162,711,q),
(162,693,o),
(172,693,qs),
(181,693,o),
(251,728,o),
(275,744,q),
(301,728,o),
(372,693,o),
(380,693,qs),
(389,693,o)
);
},
{
closed = 1;
nodes = (
(29,664,q),
(26,661,o),
(26,645,qs),
(26,627,o),
(30,627,qs),
(41,627,o),
(94,607,o),
(97,599,qs),
(103,576,o),
(103,521,qs),
(103,143,ls),
(103,78,o),
(97,55,qs),
(94,47,o),
(43,33,o),
(31,33,qs),
(27,33,o),
(27,13,qs),
(27,0,o),
(31,-4,q),
(177,2,ls),
(246,2,o),
(468,-2,o),
(519,-2,q),
(524,32,o),
(573,170,q),
(567,176,o),
(543,176,qs),
(530,176,o),
(529,170,q),
(517,139,o),
(474,89,o),
(457,80,qs),
(407,54,o),
(345,54,qs),
(319,54,ls),
(256,54,o),
(251,70,qs),
(243,93,o),
(243,141,qs),
(243,295,ls),
(243,304,o),
(315,304,qs),
(380,304,o),
(393,296,q),
(394,295,o),
(400,292,o),
(402,290,o),
(407,282,o),
(411,272,o),
(417,252,o),
(421,238,qs),
(424,230,o),
(437,230,qs),
(454,230,o),
(458,234,q),
(458,423,l),
(453,428,o),
(436,428,qs),
(422,428,o),
(421,421,qs),
(417,407,o),
(415,392,qs),
(412,367,o),
(407,363,qs),
(401,359,o),
(339,359,qs),
(286,359,ls),
(243,359,o),
(243,365,qs),
(243,519,ls),
(243,573,o),
(248,597,qs),
(250,610,o),
(313,610,qs),
(351,610,ls),
(390,610,o),
(472,556,o),
(491,518,qs),
(494,511,o),
(505,511,qs),
(523,511,o),
(528,516,q),
(500,654,o),
(499,664,q),
(442,664,o),
(220,659,o),
(176,659,qs),
(109,659,o)
);
}
);
width = 598;
}
);
note = uni1EC4;
unicode = 7876;
},
{
glyphname = Eogonek;
lastChange = "2021-12-15 14:24:36 +0000";
layers = (
{
layerId = m01;
shapes = (
{
closed = 1;
nodes = (
(52,658,q),
(48,654,o),
(48,641,qs),
(48,629,o),
(52,629,qs),
(65,629,o),
(118,615,o),
(121,607,qs),
(128,580,o),
(128,521,qs),
(128,143,ls),
(128,61,o),
(121,49,qs),
(116,40,o),
(65,26,o),
(52,26,qs),
(49,26,o),
(49,0,o),
(52,-3,q),
(173,0,ls),
(204,0,o),
(437,-5,q),
(394,-35,o),
(333,-111,o),
(333,-147,qs),
(333,-174,o),
(367,-224,o),
(404,-224,qs),
(459,-224,o),
(509,-158,qs),
(513,-153,o),
(513,-127,o),
(509,-127,qs),
(508,-127,o),
(488,-146,o),
(450,-165,o),
(428,-165,qs),
(405,-165,o),
(387,-138,o),
(387,-122,qs),
(387,-88,o),
(472,-6,o),
(514,-6,q),
(517,14,o),
(533,65,o),
(564,147,o),
(568,158,q),
(562,164,o),
(543,164,qs),
(530,164,o),
(529,158,qs),
(518,120,o),
(481,65,o),
(466,57,qs),
(433,40,o),
(340,40,qs),
(292,40,ls),
(227,40,o),
(224,50,qs),
(215,76,o),
(215,141,qs),
(215,296,ls),
(215,305,o),
(287,305,qs),
(380,305,o),
(393,297,qs),
(399,293,o),
(404,288,o),
(414,261,o),
(421,234,qs),
(424,226,o),
(437,226,qs),
(449,226,o),
(453,230,q),
(453,419,l),
(448,424,o),
(436,424,qs),
(422,424,o),
(421,417,qs),
(415,394,o),
(413,383,o),
(400,359,o),
(392,357,o),
(364,349,o),
(339,349,o),
(311,349,qs),
(258,349,ls),
(215,349,o),
(215,355,qs),
(215,515,ls),
(215,575,o),
(220,599,qs),
(222,612,o),
(308,612,qs),
(375,612,ls),
(422,612,o),
(476,581,o),
(491,526,q),
(492,519,o),
(518,519,o),
(523,524,q),
(521,536,o),
(498,631,o),
(494,660,q),
(438,660,o),
(216,656,o),
(171,656,qs),
(104,656,o)
);
}
);
width = 612;
},
{
layerId = "5D05F7D8-7336-4C54-9046-4D1B683AB1D3";
shapes = (
{
closed = 1;
nodes = (
(20,661,q),
(16,657,o),
(16,643,qs),
(16,628,o),
(20,628,qs),
(32,628,o),
(85,611,o),
(88,603,qs),
(95,576,o),
(95,521,qs),
(95,143,ls),
(95,73,o),
(88,52,qs),
(84,43,o),
(34,30,o),
(21,30,qs),
(18,30,o),
(18,13,qs),
(18,-1,o),
(21,-4,q),
(154,1,ls),
(242,1,o),
(412,-3,q),
(367,-24,o),
(296,-106,o),
(296,-144,qs),
(296,-175,o),
(340,-221,o),
(372,-221,qs),
(405,-221,o),
(468,-178,o),
(486,-154,qs),
(490,-149,o),
(490,-134,qs),
(490,-118,o),
(486,-118,q),
(485,-119,o),
(466,-133,o),
(448,-144,o),
(420,-154,o),
(406,-154,qs),
(386,-154,o),
(364,-131,o),
(364,-116,qs),
(364,-83,o),
(457,-7,o),
(496,-4,q),
(500,23,o),
(550,164,q),
(544,170,o),
(522,170,qs),
(510,170,o),
(508,164,qs),
(497,130,o),
(457,76,o),
(441,68,qs),
(400,47,o),
(322,47,qs),
(285,47,ls),
(222,47,o),
(217,60,qs),
(208,86,o),
(208,141,qs),
(208,296,ls),
(208,304,o),
(280,304,qs),
(359,304,o),
(372,296,qs),
(379,291,o),
(382,289,o),
(393,263,o),
(400,236,qs),
(403,228,o),
(416,228,qs),
(431,228,o),
(435,232,q),
(435,421,l),
(430,426,o),
(416,426,qs),
(401,426,o),
(400,419,qs),
(397,409,o),
(394,394,qs),
(388,364,o),
(366,354,o),
(308,354,qs),
(305,354,o),
(304,354,qs),
(252,354,ls),
(208,354,o),
(208,360,qs),
(208,517,ls),
(208,570,o),
(214,598,qs),
(216,611,o),
(290,611,qs),
(342,611,ls),
(437,611,o),
(470,522,qs),
(473,515,o),
(484,515,qs),
(500,515,o),
(505,520,q),
(504,525,o),
(480,632,o),
(476,662,q),
(420,662,o),
(198,658,o),
(153,658,qs),
(86,658,o)
);
}
);
width = 578;
},
{
layerId = "868F064F-B1BF-49D1-B6CA-957F77525378";
shapes = (
{
closed = 1;
nodes = (
(14,664,q),
(11,661,o),
(11,645,qs),
(11,627,o),
(15,627,qs),
(26,627,o),
(79,607,o),
(82,599,qs),
(88,576,o),
(88,521,qs),
(88,143,ls),
(88,78,o),
(82,55,qs),
(79,47,o),
(28,33,o),
(16,33,qs),
(12,33,o),
(12,13,qs),
(12,0,o),
(16,-4,q),
(162,2,ls),
(182,2,o),
(413,-1,q),
(364,-16,o),
(284,-100,o),
(284,-140,qs),
(284,-176,o),
(336,-218,o),
(365,-218,qs),
(402,-218,o),
(471,-171,o),
(488,-149,qs),
(494,-141,o),
(494,-127,qs),
(494,-109,o),
(489,-109,q),
(477,-119,o),
(428,-142,o),
(409,-142,qs),
(392,-142,o),
(368,-125,o),
(368,-110,qs),
(368,-76,o),
(466,-10,o),
(504,-2,q),
(509,32,o),
(558,170,q),
(552,176,o),
(528,176,qs),
(516,176,o),
(514,170,qs),
(502,139,o),
(459,89,o),
(442,80,qs),
(392,54,o),
(330,54,qs),
(304,54,ls),
(241,54,o),
(236,70,qs),
(228,93,o),
(228,141,qs),
(228,295,ls),
(228,304,o),
(300,304,qs),
(365,304,o),
(378,296,q),
(379,295,o),
(385,292,o),
(387,290,o),
(392,282,o),
(396,272,o),
(402,252,o),
(406,238,qs),
(409,230,o),
(422,230,qs),
(439,230,o),
(443,234,q),
(443,423,l),
(438,428,o),
(421,428,qs),
(407,428,o),
(406,421,qs),
(402,407,o),
(400,392,qs),
(397,367,o),
(392,363,qs),
(386,359,o),
(324,359,qs),
(271,359,ls),
(228,359,o),
(228,365,qs),
(228,519,ls),
(228,573,o),
(233,597,qs),
(235,610,o),
(298,610,qs),
(336,610,ls),
(375,610,o),
(457,556,o),
(476,518,qs),
(479,511,o),
(490,511,qs),
(508,511,o),
(513,516,q),
(485,654,o),
(484,664,q),
(428,664,o),
(206,659,o),
(161,659,qs),
(94,659,o)
);
}
);
width = 606;
}
);
note = Eogonek;
unicode = 280;
},
{
glyphname = F;
lastChange = "2021-12-15 14:24:36 +0000";
layers = (
{
layerId = m01;
shapes = (
{
closed = 1;
nodes = (
(44,658,q),
(40,654,o),
(40,641,qs),
(40,629,o),
(44,629,qs),
(57,629,o),
(110,615,o),
(113,607,qs),
(120,580,o),
(120,521,qs),
(120,136,ls),
(120,73,o),
(113,46,qs),
(110,38,o),
(59,26,o),
(46,26,qs),
(42,26,o),
(42,12,qs),
(42,1,o),
(46,-3,q),
(161,2,o),
(166,2,qs),
(182,2,o),
(282,-3,q),
(284,3,o),
(284,11,qs),
(284,26,o),
(280,26,qs),
(270,26,o),
(218,39,o),
(216,46,qs),
(207,81,o),
(207,139,qs),
(207,297,ls),
(207,306,o),
(278,306,qs),
(371,306,o),
(384,298,qs),
(390,294,o),
(395,289,o),
(405,262,o),
(412,235,qs),
(415,227,o),
(428,227,qs),
(440,227,o),
(444,231,q),
(444,425,l),
(439,430,o),
(427,430,qs),
(413,430,o),
(412,423,qs),
(411,420,o),
(410,414,qs),
(399,369,o),
(369,350,o),
(302,350,qs),
(249,350,ls),
(207,350,o),
(207,356,qs),
(207,519,ls),
(207,579,o),
(212,603,qs),
(214,616,o),
(300,616,qs),
(367,616,ls),
(414,616,o),
(468,585,o),
(483,530,q),
(484,523,o),
(510,523,o),
(515,528,q),
(513,540,o),
(490,635,o),
(486,664,q),
(430,664,o),
(208,656,o),
(163,656,qs),
(96,656,o)
);
}
);
width = 551;
},
{
layerId = "5D05F7D8-7336-4C54-9046-4D1B683AB1D3";
shapes = (
{
closed = 1;
nodes = (
(309,-3,q),
(312,1,o),
(312,13,qs),
(312,30,o),
(307,30,qs),
(296,30,o),
(232,48,o),
(228,58,qs),
(217,87,o),
(217,141,qs),
(217,298,ls),
(217,306,o),
(288,306,qs),
(367,306,o),
(380,298,qs),
(387,293,o),
(390,291,o),
(401,265,o),
(408,238,qs),
(411,230,o),
(424,230,qs),
(439,230,o),
(443,234,q),
(443,423,l),
(438,428,o),
(424,428,qs),
(409,428,o),
(408,421,qs),
(405,411,o),
(402,396,qs),
(396,366,o),
(374,356,o),
(316,356,qs),
(313,356,o),
(312,356,qs),
(261,356,ls),
(217,356,o),
(217,362,qs),
(217,519,ls),
(217,576,o),
(222,600,qs),
(224,613,o),
(298,613,qs),
(350,613,ls),
(445,613,o),
(478,524,qs),
(481,517,o),
(492,517,qs),
(508,517,o),
(513,522,q),
(512,527,o),
(488,634,o),
(484,664,q),
(431,664,o),
(208,656,o),
(161,657,qs),
(94,657,o),
(29,661,q),
(25,657,o),
(25,643,qs),
(25,628,o),
(29,628,qs),
(44,628,o),
(94,614,o),
(97,603,qs),
(104,581,o),
(104,521,qs),
(104,143,ls),
(104,73,o),
(97,52,qs),
(93,43,o),
(43,30,o),
(30,30,qs),
(27,30,o),
(27,13,qs),
(27,0,o),
(30,-3,q),
(50,-2,ls),
(69,0,o),
(137,3,o),
(167,3,qs),
(189,3,o)
);
}
);
width = 538;
},
{
layerId = "868F064F-B1BF-49D1-B6CA-957F77525378";
shapes = (
{
closed = 1;
nodes = (
(29,664,q),
(26,661,o),
(26,645,qs),
(26,627,o),
(30,627,qs),
(41,627,o),
(94,607,o),
(97,599,qs),
(103,576,o),
(103,521,qs),
(103,143,ls),
(103,78,o),
(97,55,qs),
(94,47,o),
(43,33,o),
(31,33,qs),
(27,33,o),
(27,13,qs),
(27,0,o),
(31,-4,q),
(177,2,ls),
(210,2,o),
(330,-4,q),
(332,2,o),
(332,14,qs),
(332,33,o),
(328,33,qs),
(313,33,o),
(253,47,o),
(250,59,qs),
(243,90,o),
(243,141,qs),
(243,295,ls),
(243,304,o),
(315,304,qs),
(380,304,o),
(393,296,q),
(394,295,o),
(400,292,o),
(402,290,o),
(407,282,o),
(411,272,o),
(417,252,o),
(421,238,qs),
(424,230,o),
(437,230,qs),
(454,230,o),
(458,234,q),
(458,423,l),
(453,428,o),
(436,428,qs),
(422,428,o),
(421,421,qs),
(417,407,o),
(415,392,qs),
(412,367,o),
(407,363,qs),
(401,359,o),
(339,359,qs),
(286,359,ls),
(243,359,o),
(243,365,qs),
(243,519,ls),
(243,573,o),
(248,597,qs),
(250,610,o),
(313,610,qs),
(351,610,ls),
(390,610,o),
(472,556,o),
(491,518,qs),
(494,511,o),
(505,511,qs),
(523,511,o),
(528,516,q),
(500,654,o),
(499,664,q),
(447,664,o),
(241,659,o),
(176,659,qs),
(119,659,o)
);
}
);
width = 553;
}
);
note = F;
unicode = 70;
},
{
glyphname = G;
lastChange = "2021-12-15 14:24:36 +0000";
layers = (
{
layerId = m01;
shapes = (
{
closed = 1;
nodes = (
(229,-6,o),
(361,-6,qs),
(387,-6,o),
(434,-3,o),
(469,0,o),
(508,8,o),
(529,12,o),
(564,23,o),
(574,27,o),
(609,40,o),
(611,41,qs),
(636,51,o),
(636,59,qs),
(636,62,o),
(622,96,o),
(622,114,qs),
(622,116,o),
(619,165,o),
(619,186,qs),
(619,246,o),
(629,253,qs),
(638,258,o),
(681,271,o),
(687,271,qs),
(691,271,o),
(691,286,qs),
(691,294,o),
(689,300,q),
(589,295,o),
(581,295,qs),
(578,295,o),
(450,300,q),
(446,296,o),
(446,271,o),
(450,271,qs),
(466,271,o),
(523,259,o),
(527,249,qs),
(535,228,o),
(535,163,qs),
(535,156,l),
(536,74,ls),
(536,62,o),
(529,59,qs),
(487,37,o),
(399,37,qs),
(288,37,o),
(141,224,o),
(141,335,qs),
(141,455,o),
(275,625,o),
(375,625,qs),
(552,625,o),
(579,488,q),
(582,483,o),
(592,483,qs),
(613,483,o),
(613,498,qs),
(613,508,o),
(609,622,q),
(443,667,o),
(372,667,qs),
(234,667,o),
(44,464,o),
(44,322,qs),
(44,188,o)
);
}
);
width = 715;
},
{
layerId = "5D05F7D8-7336-4C54-9046-4D1B683AB1D3";
shapes = (
{
closed = 1;
nodes = (
(210,-8,o),
(342,-8,qs),
(407,-8,o),
(514,12,o),
(552,26,o),
(592,44,qs),
(614,54,o),
(614,68,qs),
(614,70,o),
(604,96,o),
(604,114,qs),
(604,116,o),
(603,158,o),
(603,179,qs),
(603,244,o),
(616,252,q),
(625,256,o),
(666,268,o),
(672,268,qs),
(676,268,o),
(676,285,qs),
(676,293,o),
(673,302,q),
(553,296,o),
(552,296,qs),
(522,296,o),
(423,302,o),
(412,302,q),
(408,298,o),
(408,269,o),
(412,269,qs),
(429,269,o),
(480,257,o),
(484,244,qs),
(491,223,o),
(491,163,qs),
(491,156,l),
(492,84,ls),
(492,68,o),
(482,61,qs),
(449,42,o),
(386,42,qs),
(312,42,o),
(201,135,o),
(150,268,o),
(150,340,qs),
(150,462,o),
(260,618,o),
(358,618,qs),
(403,618,o),
(474,595,o),
(515,565,o),
(544,522,o),
(555,494,o),
(558,480,q),
(566,474,o),
(580,474,qs),
(600,474,o),
(600,498,o),
(589,629,o),
(586,630,qs),
(442,667,o),
(354,667,qs),
(217,667,o),
(25,463,o),
(25,322,qs),
(25,188,o)
);
}
);
width = 702;
},
{
layerId = "868F064F-B1BF-49D1-B6CA-957F77525378";
shapes = (
{
closed = 1;
nodes = (
(211,-9,o),
(343,-9,qs),
(408,-9,o),
(513,12,o),
(554,29,o),
(591,48,qs),
(612,59,o),
(612,76,qs),
(612,78,o),
(606,96,o),
(606,114,qs),
(606,172,ls),
(606,243,o),
(622,251,qs),
(652,266,o),
(675,266,qs),
(679,266,o),
(679,284,qs),
(679,295,o),
(676,304,q),
(556,298,o),
(541,298,qs),
(518,298,o),
(469,300,o),
(410,303,o),
(392,304,q),
(388,300,o),
(389,267,o),
(393,267,qs),
(451,267,o),
(459,240,qs),
(466,214,o),
(466,163,qs),
(466,156,l),
(466,93,ls),
(466,72,o),
(455,63,qs),
(435,47,o),
(391,47,qs),
(317,47,o),
(218,141,o),
(179,270,o),
(179,345,qs),
(179,611,o),
(359,611,qs),
(408,611,o),
(486,580,o),
(530,530,o),
(552,490,o),
(557,471,q),
(567,466,o),
(588,466,qs),
(606,466,o),
(606,474,qs),
(606,488,o),
(588,637,o),
(583,638,qs),
(463,667,o),
(354,667,qs),
(217,667,o),
(25,463,o),
(25,322,qs),
(25,188,o)
);
}
);
width = 705;
}
);
note = G;
unicode = 71;
},
{
glyphname = H;
lastChange = "2021-12-15 14:24:36 +0000";
layers = (
{
layerId = m01;
shapes = (
{
closed = 1;
nodes = (
(500,46,qs),
(497,38,o),
(446,26,o),
(433,26,qs),
(429,26,o),
(429,1,o),
(433,-3,q),
(548,2,o),
(554,2,qs),
(568,2,o),
(668,-3,q),
(670,3,o),
(670,11,qs),
(670,26,o),
(666,26,qs),
(656,26,o),
(604,39,o),
(602,46,qs),
(594,77,o),
(594,139,qs),
(594,519,ls),
(594,581,o),
(602,612,qs),
(604,619,o),
(656,633,o),
(666,633,qs),
(670,633,o),
(670,647,qs),
(670,656,o),
(668,662,q),
(654,661,o),
(611,658,o),
(573,656,o),
(554,656,qs),
(527,656,o),
(445,661,o),
(433,662,q),
(429,658,o),
(429,633,o),
(433,633,qs),
(446,633,o),
(497,620,o),
(500,612,qs),
(507,585,o),
(507,523,qs),
(507,371,ls),
(507,369,o),
(505,367,q),
(415,365,o),
(357,365,qs),
(303,365,o),
(205,367,q),
(203,370,l),
(203,519,ls),
(203,577,o),
(212,612,qs),
(214,619,o),
(266,633,o),
(276,633,qs),
(279,633,o),
(280,658,o),
(278,662,q),
(264,661,o),
(220,658,o),
(182,656,o),
(162,656,qs),
(135,656,o),
(55,661,o),
(42,662,q),
(38,658,o),
(38,646,qs),
(38,633,o),
(42,633,qs),
(55,633,o),
(106,620,o),
(109,612,qs),
(116,585,o),
(116,523,qs),
(116,135,ls),
(116,73,o),
(109,46,qs),
(106,38,o),
(55,26,o),
(42,26,qs),
(38,26,o),
(38,12,qs),
(38,1,o),
(42,-3,q),
(157,2,o),
(162,2,qs),
(178,2,o),
(278,-3,q),
(280,2,o),
(279,26,o),
(276,26,qs),
(266,26,o),
(214,39,o),
(212,46,qs),
(203,81,o),
(203,139,qs),
(203,312,ls),
(203,317,o),
(357,317,qs),
(411,317,o),
(505,315,q),
(507,311,o),
(507,311,q),
(507,135,ls),
(507,73,o)
);
}
);
width = 707;
},
{
layerId = "5D05F7D8-7336-4C54-9046-4D1B683AB1D3";
shapes = (
{
closed = 1;
nodes = (
(613,45,o),
(611,52,qs),
(602,87,o),
(602,142,qs),
(602,518,ls),
(602,575,o),
(610,606,qs),
(612,613,o),
(666,629,o),
(675,629,qs),
(679,629,o),
(679,646,qs),
(679,653,o),
(676,662,q),
(556,656,o),
(548,656,qs),
(521,656,o),
(420,662,o),
(415,662,q),
(413,660,o),
(413,644,qs),
(413,629,o),
(417,629,qs),
(429,629,o),
(477,614,o),
(481,606,q),
(489,582,o),
(489,522,qs),
(489,373,ls),
(489,371,o),
(487,369,q),
(397,367,o),
(355,367,qs),
(317,367,o),
(219,369,q),
(217,372,l),
(217,518,ls),
(217,575,o),
(225,606,qs),
(227,613,o),
(281,629,o),
(290,629,qs),
(294,629,o),
(294,646,qs),
(294,653,o),
(291,662,q),
(171,656,o),
(163,656,qs),
(136,656,o),
(35,662,o),
(30,662,q),
(28,660,o),
(28,644,qs),
(28,629,o),
(32,629,qs),
(44,629,o),
(92,614,o),
(96,606,q),
(104,582,o),
(104,522,qs),
(104,136,ls),
(104,83,o),
(96,52,qs),
(93,44,o),
(42,30,o),
(30,30,qs),
(26,30,o),
(26,11,qs),
(26,1,o),
(30,-3,q),
(46,-2,o),
(99,1,o),
(143,3,o),
(163,3,qs),
(170,3,o),
(290,-3,q),
(292,3,o),
(292,11,qs),
(292,30,o),
(288,30,qs),
(279,30,o),
(228,45,o),
(226,52,qs),
(217,87,o),
(217,142,qs),
(217,309,ls),
(217,312,o),
(355,314,qs),
(393,314,o),
(487,312,q),
(489,308,l),
(489,136,ls),
(489,83,o),
(481,52,qs),
(478,44,o),
(427,30,o),
(415,30,qs),
(411,30,o),
(411,11,qs),
(411,1,o),
(415,-3,q),
(431,-2,o),
(484,1,o),
(528,3,o),
(548,3,qs),
(555,3,o),
(675,-3,q),
(677,3,o),
(677,11,qs),
(677,30,o),
(673,30,qs),
(664,30,o)
);
}
);
width = 708;
},
{
layerId = "868F064F-B1BF-49D1-B6CA-957F77525378";
shapes = (
{
closed = 1;
nodes = (
(477,59,qs),
(474,51,o),
(422,33,o),
(411,33,qs),
(407,33,o),
(406,0,o),
(410,-4,q),
(423,-3,o),
(532,4,o),
(559,4,qs),
(585,4,o),
(685,-4,o),
(694,-4,q),
(697,5,o),
(697,13,qs),
(697,34,o),
(693,34,qs),
(684,34,o),
(633,50,o),
(631,57,qs),
(623,88,o),
(623,142,qs),
(623,516,ls),
(623,571,o),
(631,601,qs),
(633,608,o),
(685,625,o),
(694,625,qs),
(699,625,o),
(699,644,qs),
(699,653,o),
(696,662,q),
(576,656,o),
(561,656,qs),
(550,656,o),
(412,662,q),
(408,658,o),
(409,625,o),
(413,625,qs),
(424,625,o),
(473,607,o),
(476,599,qs),
(483,572,o),
(483,520,qs),
(483,375,ls),
(483,373,o),
(481,371,q),
(391,369,o),
(364,369,qs),
(342,369,o),
(244,371,q),
(242,374,l),
(242,516,ls),
(242,580,o),
(250,601,qs),
(253,608,o),
(305,625,o),
(314,625,qs),
(318,625,o),
(318,657,o),
(315,662,q),
(195,656,o),
(169,656,qs),
(168,656,o),
(30,662,q),
(28,660,o),
(28,645,qs),
(28,625,o),
(32,625,qs),
(44,625,o),
(90,609,o),
(95,598,qs),
(102,581,o),
(102,520,qs),
(102,138,ls),
(102,84,o),
(95,57,qs),
(92,49,o),
(40,33,o),
(28,33,qs),
(26,33,o),
(26,13,qs),
(26,0,o),
(30,-4,q),
(45,-3,o),
(144,4,o),
(196,4,o),
(309,-4,o),
(314,-4,q),
(317,3,o),
(316,33,o),
(312,33,qs),
(303,33,o),
(252,51,o),
(250,58,qs),
(242,89,o),
(242,142,qs),
(242,306,l),
(240,308,l),
(240,310,o),
(364,311,qs),
(387,311,o),
(481,309,q),
(483,305,o),
(483,305,q),
(483,138,ls),
(483,82,o)
);
}
);
width = 727;
}
);
note = H;
unicode = 72;
},
{
glyphname = Hbar;
lastChange = "2021-12-15 14:24:36 +0000";
layers = (
{
layerId = m01;
shapes = (
{
closed = 1;
nodes = (
(67,661,o),
(54,662,q),
(50,658,o),
(50,646,qs),
(50,633,o),
(54,633,qs),
(67,633,o),
(118,620,o),
(121,612,qs),
(128,585,o),
(128,508,q),
(95,508,l),
(89,499,o),
(89,483,qs),
(89,470,o),
(94,470,qs),
(128,470,l),
(128,135,ls),
(128,73,o),
(121,46,qs),
(118,38,o),
(67,26,o),
(54,26,qs),
(50,26,o),
(50,12,qs),
(50,1,o),
(54,-3,q),
(169,2,o),
(174,2,qs),
(190,2,o),
(290,-3,q),
(292,2,o),
(291,26,o),
(288,26,qs),
(278,26,o),
(226,39,o),
(224,46,qs),
(215,81,o),
(215,139,qs),
(215,294,ls),
(215,299,o),
(369,299,qs),
(423,299,o),
(517,297,q),
(519,293,l),
(519,135,ls),
(519,73,o),
(512,46,qs),
(509,38,o),
(458,26,o),
(445,26,qs),
(441,26,o),
(441,1,o),
(445,-3,q),
(560,2,o),
(566,2,qs),
(580,2,o),
(680,-3,q),
(682,3,o),
(682,11,qs),
(682,26,o),
(678,26,qs),
(668,26,o),
(616,39,o),
(614,46,qs),
(606,77,o),
(606,139,qs),
(606,470,l),
(646,470,l),
(652,479,o),
(652,495,qs),
(652,508,o),
(647,508,qs),
(606,508,l),
(606,581,o),
(614,612,qs),
(616,619,o),
(668,633,o),
(678,633,qs),
(682,633,o),
(682,647,qs),
(682,656,o),
(680,662,q),
(666,661,o),
(623,658,o),
(585,656,o),
(566,656,qs),
(539,656,o),
(457,661,o),
(445,662,q),
(441,658,o),
(441,633,o),
(445,633,qs),
(458,633,o),
(509,620,o),
(512,612,qs),
(519,585,o),
(519,508,q),
(479,507,o),
(369,507,qs),
(227,507,o),
(215,508,q),
(215,577,o),
(224,612,qs),
(226,619,o),
(278,633,o),
(288,633,qs),
(291,633,o),
(292,658,o),
(290,662,q),
(276,661,o),
(232,658,o),
(194,656,o),
(174,656,qs),
(147,656,o)
);
},
{
closed = 1;
nodes = (
(519,353,ls),
(519,351,o),
(517,349,q),
(427,347,o),
(369,347,qs),
(315,347,o),
(217,349,qs),
(215,349,o),
(215,352,qs),
(215,470,l),
(260,471,o),
(478,471,o),
(519,470,q)
);
}
);
width = 738;
},
{
layerId = "5D05F7D8-7336-4C54-9046-4D1B683AB1D3";
shapes = (
{
closed = 1;
nodes = (
(50,662,o),
(42,662,q),
(39,659,o),
(39,646,qs),
(39,629,o),
(43,629,qs),
(56,629,o),
(104,614,o),
(108,605,q),
(114,585,o),
(115,522,q),
(69,522,l),
(63,512,o),
(63,494,qs),
(63,480,o),
(68,480,qs),
(115,480,l),
(115,136,ls),
(115,78,o),
(108,52,qs),
(105,44,o),
(53,30,o),
(41,30,qs),
(38,30,o),
(38,12,qs),
(38,0,o),
(42,-4,q),
(54,-3,o),
(145,3,o),
(172,3,qs),
(192,3,o),
(236,1,o),
(289,-3,o),
(302,-4,q),
(304,2,o),
(304,30,o),
(300,30,qs),
(291,30,o),
(239,45,o),
(237,52,qs),
(228,85,o),
(228,140,qs),
(228,300,l),
(229,303,o),
(366,305,qs),
(405,305,o),
(499,303,q),
(501,299,l),
(501,136,ls),
(501,77,o),
(494,52,qs),
(491,44,o),
(440,30,o),
(428,30,qs),
(424,30,o),
(424,0,o),
(428,-4,q),
(437,-3,o),
(535,3,o),
(562,3,qs),
(589,3,o),
(684,-3,o),
(687,-4,q),
(690,4,o),
(690,12,qs),
(690,30,o),
(686,30,qs),
(676,30,o),
(624,44,o),
(622,52,qs),
(614,82,o),
(614,140,qs),
(614,480,l),
(666,480,l),
(672,490,o),
(672,508,qs),
(672,522,o),
(666,522,qs),
(615,522,l),
(615,578,o),
(622,606,qs),
(624,614,o),
(677,629,o),
(686,629,qs),
(690,629,o),
(690,646,qs),
(690,654,o),
(688,662,q),
(568,656,o),
(564,656,qs),
(543,656,o),
(498,658,o),
(444,661,o),
(428,662,q),
(425,658,o),
(425,629,o),
(429,629,qs),
(441,629,o),
(491,614,o),
(494,606,q),
(500,581,o),
(501,522,q),
(461,520,o),
(366,520,qs),
(241,520,o),
(229,522,q),
(230,582,o),
(237,606,qs),
(239,614,o),
(292,629,o),
(301,629,qs),
(305,629,o),
(305,657,o),
(302,662,q),
(182,656,o),
(172,656,qs),
(144,656,o)
);
},
{
closed = 1;
nodes = (
(501,480,q),
(501,364,ls),
(501,362,o),
(499,360,q),
(409,358,o),
(366,358,qs),
(328,358,o),
(230,360,qs),
(228,360,o),
(228,363,qs),
(228,480,l),
(274,480,o),
(366,480,qs),
(460,480,o)
);
}
);
width = 732;
},
{
layerId = "868F064F-B1BF-49D1-B6CA-957F77525378";
shapes = (
{
closed = 1;
nodes = (
(30,662,q),
(28,660,o),
(28,645,qs),
(28,625,o),
(32,625,qs),
(44,625,o),
(90,609,o),
(95,598,qs),
(100,586,o),
(102,535,q),
(43,535,l),
(37,526,o),
(37,504,qs),
(37,489,o),
(42,489,qs),
(102,489,l),
(102,138,ls),
(102,84,o),
(95,57,qs),
(92,49,o),
(40,33,o),
(28,33,qs),
(26,33,o),
(26,13,qs),
(26,0,o),
(30,-4,q),
(45,-3,o),
(144,4,o),
(196,4,o),
(309,-4,o),
(314,-4,q),
(317,3,o),
(316,33,o),
(312,33,qs),
(303,33,o),
(252,51,o),
(250,58,qs),
(242,89,o),
(242,142,qs),
(242,306,l),
(240,308,l),
(240,310,o),
(364,311,qs),
(387,311,o),
(481,309,q),
(483,305,l),
(483,138,ls),
(483,82,o),
(477,59,qs),
(474,51,o),
(422,33,o),
(411,33,qs),
(407,33,o),
(406,0,o),
(410,-4,q),
(423,-3,o),
(532,4,o),
(559,4,qs),
(585,4,o),
(685,-4,o),
(694,-4,q),
(697,5,o),
(697,13,qs),
(697,34,o),
(693,34,qs),
(684,34,o),
(633,50,o),
(631,57,qs),
(623,88,o),
(623,142,qs),
(623,489,l),
(685,489,l),
(691,502,o),
(691,521,qs),
(691,535,o),
(685,535,qs),
(623,535,l),
(624,574,o),
(631,601,qs),
(633,608,o),
(685,625,o),
(694,625,qs),
(699,625,o),
(699,644,qs),
(699,653,o),
(696,662,q),
(576,656,o),
(561,656,qs),
(550,656,o),
(412,662,q),
(408,658,o),
(409,625,o),
(413,625,qs),
(424,625,o),
(473,607,o),
(476,599,qs),
(482,577,o),
(483,535,q),
(362,534,ls),
(315,534,o),
(243,535,q),
(245,588,o),
(250,601,qs),
(253,608,o),
(305,625,o),
(314,625,qs),
(318,625,o),
(318,657,o),
(315,662,q),
(195,656,o),
(169,656,qs),
(168,656,o)
);
},
{
closed = 1;
nodes = (
(483,489,q),
(483,375,ls),
(483,373,o),
(481,371,q),
(391,369,o),
(364,369,qs),
(342,369,o),
(244,371,q),
(242,374,l),
(242,489,l),
(363,490,ls),
(410,490,o)
);
}
);
width = 727;
}
);
note = Hbar;
unicode = 294;
},
{
glyphname = I;
lastChange = "2021-12-15 14:24:36 +0000";
layers = (
{
layerId = m01;
shapes = (
{
closed = 1;
nodes = (
(116,73,o),
(109,46,qs),
(106,38,o),
(55,26,o),
(42,26,qs),
(38,26,o),
(38,12,qs),
(38,1,o),
(42,-3,q),
(157,2,o),
(162,2,qs),
(178,2,o),
(278,-3,q),
(280,3,o),
(280,11,qs),
(280,26,o),
(276,26,qs),
(266,26,o),
(214,39,o),
(212,46,qs),
(203,81,o),
(203,139,qs),
(203,519,ls),
(203,577,o),
(212,612,qs),
(214,619,o),
(266,633,o),
(276,633,qs),
(280,633,o),
(280,647,qs),
(280,656,o),
(278,662,q),
(178,657,o),
(162,657,qs),
(157,657,o),
(42,662,q),
(38,658,o),
(38,646,qs),
(38,633,o),
(42,633,qs),
(55,633,o),
(106,620,o),
(109,612,qs),
(116,585,o),
(116,523,qs),
(116,135,ls)
);
}
);
width = 318;
},
{
layerId = "5D05F7D8-7336-4C54-9046-4D1B683AB1D3";
shapes = (
{
closed = 1;
nodes = (
(104,83,o),
(96,52,qs),
(93,44,o),
(42,30,o),
(30,30,qs),
(26,30,o),
(26,11,qs),
(26,1,o),
(30,-3,q),
(46,-2,o),
(99,1,o),
(143,3,o),
(163,3,qs),
(170,3,o),
(290,-3,q),
(292,3,o),
(292,11,qs),
(292,30,o),
(288,30,qs),
(279,30,o),
(228,45,o),
(226,52,qs),
(217,87,o),
(217,142,qs),
(217,518,ls),
(217,575,o),
(225,606,qs),
(227,613,o),
(281,629,o),
(290,629,qs),
(294,629,o),
(294,646,qs),
(294,653,o),
(291,662,q),
(171,656,o),
(163,656,qs),
(136,656,o),
(35,662,o),
(30,662,q),
(28,660,o),
(28,644,qs),
(28,629,o),
(32,629,qs),
(44,629,o),
(92,614,o),
(96,606,q),
(104,582,o),
(104,522,qs),
(104,136,ls)
);
}
);
width = 323;
},
{
layerId = "868F064F-B1BF-49D1-B6CA-957F77525378";
shapes = (
{
closed = 1;
nodes = (
(102,85,o),
(95,58,qs),
(92,50,o),
(40,33,o),
(29,33,qs),
(26,33,o),
(26,12,qs),
(26,0,o),
(30,-4,q),
(44,-3,o),
(148,4,o),
(175,4,qs),
(201,4,o),
(307,-4,o),
(314,-4,q),
(316,2,o),
(316,14,qs),
(316,33,o),
(312,33,qs),
(303,33,o),
(252,51,o),
(250,58,qs),
(242,89,o),
(242,146,qs),
(242,516,l),
(242,531,ls),
(242,546,o),
(246,589,o),
(249,601,qs),
(251,608,o),
(305,625,o),
(314,625,qs),
(318,625,o),
(318,644,qs),
(318,653,o),
(315,662,q),
(195,656,o),
(175,656,qs),
(144,655,o),
(111,656,o),
(45,661,o),
(30,662,q),
(28,660,o),
(28,642,qs),
(28,625,o),
(32,625,qs),
(43,625,o),
(89,608,o),
(94,600,qs),
(102,586,o),
(102,522,qs),
(102,138,ls)
);
}
);
width = 346;
}
);
note = I;
unicode = 73;
},
{
glyphname = Iogonek;
lastChange = "2021-12-15 14:24:36 +0000";
layers = (
{
layerId = m01;
shapes = (
{
closed = 1;
nodes = (
(53,662,q),
(49,658,o),
(49,646,qs),
(49,633,o),
(53,633,qs),
(66,633,o),
(117,620,o),
(120,612,qs),
(127,585,o),
(127,523,qs),
(127,135,ls),
(127,73,o),
(120,46,qs),
(117,38,o),
(66,26,o),
(53,26,qs),
(49,26,o),
(49,12,qs),
(49,1,o),
(53,-3,q),
(168,2,o),
(173,2,qs),
(191,2,l),
(145,-29,o),
(75,-110,o),
(75,-147,qs),
(75,-174,o),
(109,-224,o),
(146,-224,qs),
(201,-224,o),
(251,-158,qs),
(255,-153,o),
(255,-127,o),
(251,-127,qs),
(250,-127,o),
(230,-146,o),
(192,-165,o),
(170,-165,qs),
(147,-165,o),
(129,-138,o),
(129,-122,qs),
(129,-92,o),
(196,-24,o),
(236,0,q),
(244,0,o),
(289,-3,q),
(291,3,o),
(291,11,qs),
(291,26,o),
(287,26,qs),
(277,26,o),
(225,39,o),
(223,46,qs),
(214,81,o),
(214,139,qs),
(214,519,ls),
(214,577,o),
(223,612,qs),
(225,619,o),
(277,633,o),
(287,633,qs),
(291,633,o),
(291,647,qs),
(291,656,o),
(289,662,q),
(189,657,o),
(173,657,qs),
(168,657,o)
);
}
);
width = 347;
},
{
layerId = "5D05F7D8-7336-4C54-9046-4D1B683AB1D3";
shapes = (
{
closed = 1;
nodes = (
(17,662,o),
(12,662,q),
(10,660,o),
(10,644,qs),
(10,629,o),
(14,629,qs),
(26,629,o),
(74,614,o),
(78,606,q),
(86,582,o),
(86,522,qs),
(86,136,ls),
(86,83,o),
(78,52,qs),
(75,44,o),
(24,30,o),
(12,30,qs),
(8,30,o),
(8,12,qs),
(8,0,o),
(12,-4,q),
(25,-3,o),
(118,3,o),
(145,3,qs),
(150,3,o),
(169,2,o),
(174,2,q),
(128,-20,o),
(50,-106,o),
(50,-144,qs),
(50,-175,o),
(94,-221,o),
(126,-221,qs),
(159,-221,o),
(222,-178,o),
(240,-154,qs),
(244,-149,o),
(244,-134,qs),
(244,-118,o),
(240,-118,q),
(239,-119,o),
(220,-133,o),
(202,-144,o),
(174,-154,o),
(160,-154,qs),
(140,-154,o),
(118,-131,o),
(118,-116,qs),
(118,-87,o),
(178,-23,o),
(217,0,q),
(226,-1,o),
(263,-4,o),
(272,-4,q),
(274,2,o),
(274,12,qs),
(274,30,o),
(270,30,qs),
(261,30,o),
(210,45,o),
(208,52,qs),
(199,87,o),
(199,142,qs),
(199,518,ls),
(199,575,o),
(207,606,qs),
(209,613,o),
(263,629,o),
(272,629,qs),
(276,629,o),
(276,646,qs),
(276,653,o),
(273,662,q),
(153,656,o),
(145,656,qs),
(118,656,o)
);
}
);
width = 283;
},
{
layerId = "868F064F-B1BF-49D1-B6CA-957F77525378";
shapes = (
{
closed = 1;
nodes = (
(0,662,q),
(-2,660,o),
(-2,642,qs),
(-2,625,o),
(2,625,qs),
(13,625,o),
(59,608,o),
(64,600,qs),
(72,586,o),
(72,522,qs),
(72,138,ls),
(72,85,o),
(65,58,qs),
(62,50,o),
(10,33,o),
(-1,33,qs),
(-4,33,o),
(-4,12,qs),
(-4,0,o),
(0,-4,q),
(14,-3,o),
(118,4,o),
(145,4,qs),
(171,4,o),
(185,3,q),
(138,-11,o),
(52,-100,o),
(52,-140,qs),
(52,-176,o),
(104,-218,o),
(133,-218,qs),
(170,-218,o),
(239,-171,o),
(256,-149,qs),
(262,-141,o),
(262,-127,qs),
(262,-109,o),
(257,-109,q),
(245,-119,o),
(196,-142,o),
(177,-142,qs),
(160,-142,o),
(136,-125,o),
(136,-110,qs),
(136,-55,o),
(227,0,q),
(245,-2,o),
(284,-4,q),
(286,2,o),
(286,14,qs),
(286,33,o),
(282,33,qs),
(273,33,o),
(222,51,o),
(220,58,qs),
(212,89,o),
(212,146,qs),
(212,516,l),
(212,531,ls),
(212,546,o),
(216,589,o),
(219,601,qs),
(221,608,o),
(275,625,o),
(284,625,qs),
(288,625,o),
(288,644,qs),
(288,653,o),
(285,662,q),
(165,656,o),
(145,656,qs),
(138,656,o)
);
}
);
width = 283;
}
);
note = Iogonek;
unicode = 302;
},
{
glyphname = J;
lastChange = "2021-12-15 14:24:36 +0000";
layers = (
{
layerId = m01;
shapes = (
{
closed = 1;
nodes = (
(71,661,o),
(58,662,q),
(54,658,o),
(54,646,qs),
(54,633,o),
(58,633,qs),
(71,633,o),
(122,620,o),
(125,612,qs),
(132,585,o),
(132,523,qs),
(132,77,ls),
(132,14,o),
(114,-85,o),
(86,-139,o),
(57,-167,o),
(43,-167,qs),
(30,-167,o),
(-15,-124,o),
(-33,-124,qs),
(-58,-124,o),
(-95,-152,o),
(-95,-174,qs),
(-95,-197,o),
(-83,-211,q),
(-76,-215,ls),
(-68,-219,o),
(-42,-227,o),
(-31,-227,qs),
(78,-227,o),
(219,-41,o),
(219,85,qs),
(219,519,ls),
(219,577,o),
(228,612,qs),
(230,619,o),
(282,633,o),
(292,633,qs),
(296,633,o),
(296,647,qs),
(296,656,o),
(294,662,q),
(280,661,o),
(236,658,o),
(198,656,o),
(178,656,qs),
(151,656,o)
);
}
);
width = 322;
},
{
layerId = "5D05F7D8-7336-4C54-9046-4D1B683AB1D3";
shapes = (
{
closed = 1;
nodes = (
(372,606,qs),
(374,613,o),
(427,629,o),
(436,629,qs),
(440,629,o),
(440,646,qs),
(440,653,o),
(437,662,q),
(317,656,o),
(310,656,qs),
(290,656,o),
(244,658,o),
(188,661,o),
(173,662,q),
(171,660,o),
(171,644,qs),
(171,629,o),
(175,629,qs),
(191,629,o),
(240,618,o),
(243,606,qs),
(250,580,o),
(250,524,qs),
(250,106,ls),
(250,-21,o),
(207,-158,o),
(170,-158,qs),
(156,-158,o),
(107,-106,o),
(86,-106,qs),
(61,-106,o),
(23,-138,o),
(23,-161,qs),
(23,-189,o),
(36,-206,qs),
(40,-210,o),
(76,-222,o),
(91,-222,qs),
(214,-222,o),
(364,-34,o),
(364,114,qs),
(364,518,ls),
(364,575,o)
);
}
);
width = 466;
},
{
layerId = "868F064F-B1BF-49D1-B6CA-957F77525378";
shapes = (
{
closed = 1;
nodes = (
(179,662,q),
(177,660,o),
(177,642,qs),
(177,625,o),
(181,625,qs),
(192,625,o),
(238,608,o),
(243,600,qs),
(251,586,o),
(251,522,qs),
(251,135,ls),
(251,-8,o),
(223,-148,o),
(179,-148,qs),
(165,-148,o),
(110,-87,o),
(86,-87,qs),
(61,-87,o),
(23,-123,o),
(23,-148,qs),
(23,-176,o),
(38,-200,q),
(61,-218,o),
(95,-218,qs),
(232,-218,o),
(391,-27,o),
(391,143,qs),
(391,516,ls),
(391,574,o),
(398,601,qs),
(400,608,o),
(454,625,o),
(463,625,qs),
(467,625,o),
(467,644,qs),
(467,653,o),
(464,662,q),
(344,656,o),
(324,656,qs),
(317,656,o)
);
}
);
width = 493;
}
);
note = J;
unicode = 74;
},
{
glyphname = K;
lastChange = "2021-12-15 14:24:36 +0000";
layers = (
{
layerId = m01;
shapes = (
{
closed = 1;
nodes = (
(58,661,o),
(45,662,q),
(41,658,o),
(41,646,qs),
(41,633,o),
(45,633,qs),
(58,633,o),
(109,620,o),
(112,612,qs),
(119,585,o),
(119,523,qs),
(119,135,ls),
(119,73,o),
(112,46,qs),
(109,38,o),
(58,26,o),
(45,26,qs),
(41,26,o),
(41,12,qs),
(41,1,o),
(45,-3,q),
(160,2,o),
(165,2,qs),
(181,2,o),
(281,-3,q),
(283,2,o),
(282,26,o),
(279,26,qs),
(269,26,o),
(217,39,o),
(215,46,qs),
(206,81,o),
(206,139,qs),
(206,303,ls),
(206,311,o),
(213,311,qs),
(238,311,o),
(242,307,qs),
(469,74,o),
(469,42,qs),
(469,34,o),
(438,26,o),
(426,26,qs),
(422,26,o),
(422,1,o),
(426,-3,q),
(446,-2,o),
(496,0,o),
(536,2,o),
(561,2,qs),
(585,2,o),
(685,-3,q),
(687,1,o),
(687,8,qs),
(687,26,o),
(682,26,qs),
(673,26,o),
(644,30,o),
(592,52,o),
(576,69,qs),
(335,334,ls),
(320,352,o),
(328,361,qs),
(529,595,ls),
(560,630,o),
(621,637,qs),
(624,637,o),
(625,658,o),
(623,662,q),
(611,661,o),
(547,656,o),
(522,656,qs),
(506,656,o),
(470,658,o),
(428,661,o),
(415,662,q),
(413,655,o),
(413,637,o),
(417,637,qs),
(474,637,o),
(474,620,qs),
(474,611,o),
(450,582,qs),
(395,510,o),
(278,379,qs),
(252,350,o),
(220,350,qs),
(213,350,l),
(206,356,l),
(206,519,ls),
(206,577,o),
(215,612,qs),
(217,619,o),
(269,633,o),
(279,633,qs),
(282,633,o),
(283,658,o),
(281,662,q),
(267,661,o),
(223,658,o),
(185,656,o),
(165,656,qs),
(138,656,o)
);
}
);
width = 693;
},
{
layerId = "5D05F7D8-7336-4C54-9046-4D1B683AB1D3";
shapes = (
{
closed = 1;
nodes = (
(225,606,qs),
(227,613,o),
(281,629,o),
(290,629,qs),
(294,629,o),
(294,646,qs),
(294,653,o),
(291,662,q),
(171,656,o),
(163,656,qs),
(136,656,o),
(35,662,o),
(30,662,q),
(28,660,o),
(28,644,qs),
(28,629,o),
(32,629,qs),
(44,629,o),
(92,614,o),
(96,606,q),
(104,582,o),
(104,522,qs),
(104,136,ls),
(104,83,o),
(96,52,qs),
(93,44,o),
(42,30,o),
(30,30,qs),
(26,30,o),
(26,11,qs),
(26,1,o),
(30,-3,q),
(46,-2,o),
(99,1,o),
(143,3,o),
(163,3,qs),
(170,3,o),
(290,-3,q),
(292,3,o),
(292,11,qs),
(292,30,o),
(288,30,qs),
(279,30,o),
(228,45,o),
(226,52,qs),
(217,87,o),
(217,140,qs),
(217,288,ls),
(217,300,o),
(233,300,qs),
(251,300,o),
(255,296,qs),
(303,246,o),
(401,131,o),
(457,57,o),
(457,52,qs),
(457,44,o),
(423,30,o),
(412,30,qs),
(408,30,o),
(408,1,o),
(412,-3,q),
(430,-2,o),
(519,3,o),
(551,3,qs),
(568,3,o),
(688,-3,q),
(691,3,o),
(691,11,qs),
(691,30,o),
(686,30,qs),
(672,30,o),
(611,50,o),
(593,72,qs),
(359,350,ls),
(346,365,o),
(357,378,qs),
(543,590,ls),
(574,624,o),
(644,632,qs),
(647,632,o),
(648,658,o),
(646,662,q),
(632,661,o),
(589,658,o),
(552,656,o),
(533,656,qs),
(523,656,o),
(412,662,q),
(410,655,o),
(412,632,o),
(416,632,qs),
(431,632,o),
(475,624,o),
(475,614,qs),
(475,603,o),
(459,584,qs),
(363,470,o),
(283,384,qs),
(252,350,o),
(231,350,qs),
(223,350,l),
(222,350,l),
(220,351,o),
(217,354,o),
(217,357,qs),
(217,518,ls),
(217,575,o)
);
}
);
width = 722;
},
{
layerId = "868F064F-B1BF-49D1-B6CA-957F77525378";
shapes = (
{
closed = 1;
nodes = (
(30,662,q),
(28,660,o),
(28,642,qs),
(28,625,o),
(32,625,qs),
(43,625,o),
(89,608,o),
(94,600,qs),
(102,586,o),
(102,522,qs),
(102,138,ls),
(102,85,o),
(95,58,qs),
(92,50,o),
(40,33,o),
(29,33,qs),
(26,33,o),
(26,12,qs),
(26,0,o),
(30,-4,q),
(44,-3,o),
(148,4,o),
(175,4,qs),
(201,4,o),
(307,-4,o),
(314,-4,q),
(316,2,o),
(316,14,qs),
(316,33,o),
(312,33,qs),
(303,33,o),
(252,51,o),
(250,58,qs),
(242,89,o),
(242,146,qs),
(242,272,ls),
(242,289,o),
(268,289,qs),
(279,289,o),
(282,286,qs),
(460,85,o),
(460,53,qs),
(460,45,o),
(424,33,o),
(413,33,qs),
(409,33,o),
(409,0,o),
(413,-4,q),
(501,4,o),
(555,4,qs),
(580,4,o),
(705,-4,o),
(706,-4,q),
(710,4,o),
(710,14,qs),
(710,33,o),
(706,33,qs),
(694,33,o),
(647,45,o),
(636,58,qs),
(399,367,ls),
(387,381,o),
(400,396,qs),
(572,586,ls),
(578,593,o),
(595,604,o),
(611,612,o),
(631,619,o),
(647,622,o),
(665,625,o),
(676,626,o),
(682,626,qs),
(688,627,ls),
(691,627,o),
(692,658,o),
(690,662,q),
(570,656,o),
(558,656,qs),
(535,656,o),
(424,662,q),
(422,655,o),
(426,627,o),
(430,627,qs),
(446,627,o),
(490,619,o),
(490,609,qs),
(490,596,o),
(482,586,qs),
(386,476,o),
(300,388,qs),
(263,350,o),
(256,350,qs),
(249,350,l),
(248,350,ls),
(246,350,o),
(242,354,o),
(242,358,qs),
(242,516,ls),
(242,574,o),
(249,601,qs),
(251,608,o),
(305,625,o),
(314,625,qs),
(318,625,o),
(318,644,qs),
(318,653,o),
(315,662,q),
(195,656,o),
(175,656,qs),
(168,656,o)
);
}
);
width = 741;
}
);
note = K;
unicode = 75;
},
{
glyphname = L;
lastChange = "2021-12-15 14:24:36 +0000";
layers = (
{
layerId = m01;
shapes = (
{
closed = 1;
nodes = (
(54,661,o),
(41,662,q),
(37,658,o),
(37,646,qs),
(37,633,o),
(41,633,qs),
(54,633,o),
(105,620,o),
(108,612,qs),
(115,585,o),
(115,521,qs),
(115,143,ls),
(115,61,o),
(108,49,qs),
(103,40,o),
(53,28,o),
(39,28,qs),
(36,28,o),
(36,2,o),
(39,-1,q),
(160,2,ls),
(228,2,o),
(449,-4,o),
(501,-4,q),
(503,11,o),
(517,57,o),
(529,92,o),
(550,149,o),
(555,162,q),
(549,168,o),
(530,168,qs),
(518,168,o),
(516,162,qs),
(505,124,o),
(468,69,o),
(453,61,qs),
(420,44,o),
(327,44,qs),
(279,44,ls),
(214,44,o),
(211,54,qs),
(202,89,o),
(202,142,qs),
(202,519,ls),
(202,577,o),
(211,612,qs),
(213,619,o),
(265,633,o),
(275,633,qs),
(279,633,o),
(279,647,qs),
(279,656,o),
(277,662,q),
(263,661,o),
(219,658,o),
(181,656,o),
(161,656,qs),
(134,656,o)
);
}
);
width = 568;
},
{
layerId = "5D05F7D8-7336-4C54-9046-4D1B683AB1D3";
shapes = (
{
closed = 1;
nodes = (
(225,606,qs),
(227,613,o),
(281,629,o),
(290,629,qs),
(294,629,o),
(294,646,qs),
(294,653,o),
(291,662,q),
(171,656,o),
(163,656,qs),
(136,656,o),
(35,662,o),
(30,662,q),
(28,660,o),
(28,644,qs),
(28,629,o),
(32,629,qs),
(44,629,o),
(92,614,o),
(96,606,q),
(104,582,o),
(104,521,qs),
(104,143,ls),
(104,73,o),
(97,52,qs),
(93,43,o),
(43,30,o),
(30,30,qs),
(27,30,o),
(27,13,qs),
(27,0,o),
(30,-3,q),
(163,1,ls),
(214,3,o),
(465,-3,o),
(505,-3,q),
(507,12,o),
(521,60,o),
(533,93,o),
(556,157,o),
(559,166,q),
(553,172,o),
(531,172,qs),
(518,172,o),
(517,166,q),
(506,132,o),
(466,78,o),
(450,70,qs),
(409,49,o),
(331,49,qs),
(294,49,ls),
(231,49,o),
(226,62,qs),
(217,93,o),
(217,142,qs),
(217,518,ls),
(217,575,o)
);
}
);
width = 584;
},
{
layerId = "868F064F-B1BF-49D1-B6CA-957F77525378";
shapes = (
{
closed = 1;
nodes = (
(30,662,q),
(28,660,o),
(28,642,qs),
(28,625,o),
(32,625,qs),
(43,625,o),
(89,608,o),
(94,600,qs),
(102,586,o),
(102,525,qs),
(102,143,ls),
(102,78,o),
(96,55,qs),
(93,47,o),
(42,33,o),
(30,33,qs),
(26,33,o),
(26,13,qs),
(26,0,o),
(30,-4,q),
(176,2,ls),
(219,2,o),
(461,-2,o),
(518,-2,q),
(523,32,o),
(572,170,q),
(566,176,o),
(542,176,qs),
(530,176,o),
(528,170,qs),
(516,139,o),
(473,89,o),
(456,80,qs),
(406,54,o),
(344,54,qs),
(318,54,ls),
(255,54,o),
(250,70,qs),
(242,93,o),
(242,142,qs),
(242,521,ls),
(242,574,o),
(249,601,qs),
(251,608,o),
(305,625,o),
(314,625,qs),
(318,625,o),
(318,644,qs),
(318,653,o),
(315,662,q),
(195,656,o),
(175,656,qs),
(168,656,o)
);
}
);
width = 598;
}
);
note = L;
unicode = 76;
},
{
glyphname = Lslash;
lastChange = "2021-12-15 14:24:36 +0000";
layers = (
{
layerId = m01;
shapes = (
{
closed = 1;
nodes = (
(70,661,o),
(57,662,q),
(53,658,o),
(53,646,qs),
(53,633,o),
(57,633,qs),
(70,633,o),
(121,620,o),
(124,612,qs),
(131,585,o),
(131,521,qs),
(131,260,l),
(55,207,ls),
(52,205,o),
(66,184,o),
(72,178,q),
(131,220,l),
(131,143,ls),
(131,61,o),
(124,49,qs),
(119,40,o),
(69,28,o),
(55,28,qs),
(52,28,o),
(52,2,o),
(55,-1,q),
(176,2,ls),
(244,2,o),
(465,-4,o),
(517,-4,q),
(519,11,o),
(533,57,o),
(545,92,o),
(566,149,o),
(571,162,q),
(565,168,o),
(546,168,qs),
(534,168,o),
(532,162,qs),
(521,124,o),
(484,69,o),
(469,61,qs),
(436,44,o),
(343,44,qs),
(295,44,ls),
(230,44,o),
(227,54,qs),
(218,89,o),
(218,142,qs),
(218,280,l),
(423,416,ls),
(426,418,o),
(410,442,o),
(405,447,q),
(218,320,l),
(218,519,ls),
(218,577,o),
(227,612,qs),
(229,619,o),
(281,633,o),
(291,633,qs),
(295,633,o),
(295,647,qs),
(295,656,o),
(293,662,q),
(279,661,o),
(235,658,o),
(197,656,o),
(177,656,qs),
(150,656,o)
);
}
);
width = 616;
},
{
layerId = "5D05F7D8-7336-4C54-9046-4D1B683AB1D3";
shapes = (
{
closed = 1;
nodes = (
(25,662,o),
(20,662,q),
(18,660,o),
(18,644,qs),
(18,629,o),
(22,629,qs),
(34,629,o),
(82,614,o),
(86,606,q),
(94,582,o),
(94,523,qs),
(94,267,l),
(20,216,l),
(16,214,o),
(23,194,qs),
(25,187,o),
(40,171,o),
(43,171,q),
(94,205,l),
(94,143,ls),
(94,73,o),
(87,52,qs),
(83,43,o),
(33,30,o),
(20,30,qs),
(16,30,o),
(16,14,qs),
(16,2,o),
(20,-2,q),
(153,2,ls),
(208,2,o),
(440,-3,o),
(494,-3,q),
(496,12,o),
(510,60,o),
(522,93,o),
(545,157,o),
(548,166,q),
(542,172,o),
(521,172,qs),
(508,172,o),
(507,166,q),
(496,132,o),
(456,78,o),
(440,70,qs),
(399,49,o),
(320,49,qs),
(284,49,ls),
(221,49,o),
(216,62,qs),
(207,93,o),
(207,142,qs),
(207,283,l),
(390,408,ls),
(395,412,o),
(394,419,qs),
(394,426,o),
(380,448,qs),
(374,458,o),
(368,458,q),
(207,346,l),
(207,520,ls),
(207,575,o),
(215,606,qs),
(217,613,o),
(271,629,o),
(280,629,qs),
(284,629,o),
(284,646,qs),
(284,653,o),
(281,662,q),
(161,656,o),
(153,656,qs),
(126,656,o)
);
}
);
width = 565;
},
{
layerId = "868F064F-B1BF-49D1-B6CA-957F77525378";
shapes = (
{
closed = 1;
nodes = (
(30,662,q),
(28,660,o),
(28,642,qs),
(28,625,o),
(32,625,qs),
(43,625,o),
(89,608,o),
(94,600,qs),
(102,586,o),
(102,525,qs),
(102,272,l),
(16,212,l),
(9,206,o),
(36,178,q),
(102,223,l),
(102,143,ls),
(102,78,o),
(96,55,qs),
(93,47,o),
(42,33,o),
(30,33,qs),
(26,33,o),
(26,13,qs),
(26,0,o),
(30,-4,q),
(176,2,ls),
(219,2,o),
(461,-2,o),
(518,-2,q),
(523,32,o),
(572,170,q),
(566,176,o),
(542,176,qs),
(530,176,o),
(528,170,qs),
(516,139,o),
(473,89,o),
(456,80,qs),
(406,54,o),
(344,54,qs),
(318,54,ls),
(255,54,o),
(250,70,qs),
(242,93,o),
(242,142,qs),
(242,320,l),
(389,422,l),
(395,428,o),
(368,456,q),
(242,369,l),
(242,521,ls),
(242,574,o),
(249,601,qs),
(251,608,o),
(305,625,o),
(314,625,qs),
(318,625,o),
(318,644,qs),
(318,653,o),
(315,662,q),
(195,656,o),
(175,656,qs),
(168,656,o)
);
}
);
width = 588;
}
);
note = Lslash;
unicode = 321;
},
{
glyphname = M;
lastChange = "2021-12-15 14:24:36 +0000";
layers = (
{
layerId = m01;
shapes = (
{
closed = 1;
nodes = (
(113,659,o),
(72,661,o),
(55,662,q),
(51,658,o),
(51,647,qs),
(51,633,o),
(55,633,qs),
(69,633,o),
(131,620,o),
(134,612,qs),
(138,597,o),
(138,572,qs),
(138,556,o),
(134,441,o),
(129,239,o),
(127,135,qs),
(125,66,o),
(109,48,qs),
(100,39,o),
(45,26,o),
(31,26,qs),
(26,26,o),
(26,12,qs),
(26,2,o),
(31,-3,q),
(146,2,o),
(148,2,qs),
(164,2,o),
(264,-3,q),
(266,3,o),
(266,11,qs),
(266,26,o),
(262,26,qs),
(252,26,o),
(191,41,o),
(179,57,o),
(179,75,qs),
(179,77,o),
(185,238,o),
(193,486,o),
(195,582,q),
(424,0,l),
(430,-2,o),
(433,-2,qs),
(451,-2,o),
(470,41,qs),
(679,541,ls),
(682,548,o),
(684,548,qs),
(689,548,o),
(698,505,o),
(699,489,qs),
(711,137,l),
(711,84,ls),
(711,48,o),
(699,41,qs),
(690,36,o),
(649,26,o),
(639,26,qs),
(635,26,o),
(635,13,qs),
(635,1,o),
(639,-3,q),
(754,2,o),
(759,2,qs),
(778,2,o),
(878,-3,q),
(880,3,o),
(880,12,qs),
(880,26,o),
(876,26,qs),
(865,26,o),
(813,39,o),
(809,48,qs),
(795,83,o),
(794,140,qs),
(785,530,o),
(785,546,qs),
(785,604,o),
(797,613,qs),
(806,620,o),
(842,633,o),
(853,633,qs),
(855,633,ls),
(860,633,o),
(860,647,qs),
(860,653,o),
(857,662,q),
(807,658,o),
(745,658,qs),
(726,658,o),
(662,662,q),
(622,542,o),
(622,542,q),
(564,393,o),
(466,163,q),
(465,159,o),
(461,159,qs),
(458,159,o),
(457,161,qs),
(266,639,o),
(259,662,q),
(204,657,o),
(167,657,qs),
(147,657,o)
);
}
);
width = 910;
},
{
layerId = "5D05F7D8-7336-4C54-9046-4D1B683AB1D3";
shapes = (
{
closed = 1;
nodes = (
(79,661,o),
(64,662,q),
(60,658,o),
(60,647,qs),
(60,630,o),
(64,630,qs),
(77,630,o),
(138,616,o),
(141,608,qs),
(144,599,o),
(144,580,qs),
(144,562,o),
(139,416,o),
(132,209,o),
(130,133,qs),
(128,84,o),
(119,66,q),
(114,50,o),
(46,30,o),
(30,30,qs),
(26,30,o),
(26,13,qs),
(26,1,o),
(30,-3,q),
(40,-3,o),
(129,3,o),
(156,3,qs),
(162,3,o),
(282,-3,q),
(284,3,o),
(284,12,qs),
(284,30,o),
(280,30,qs),
(268,30,o),
(198,50,o),
(193,61,qs),
(190,70,o),
(190,92,qs),
(199,289,o),
(206,538,q),
(430,0,l),
(436,-2,o),
(440,-2,qs),
(461,-2,o),
(478,36,qs),
(669,502,ls),
(671,508,o),
(674,508,qs),
(682,508,o),
(686,446,qs),
(696,142,l),
(696,86,ls),
(696,64,o),
(686,51,qs),
(679,43,o),
(637,30,o),
(626,30,qs),
(622,30,o),
(622,12,qs),
(622,1,o),
(626,-3,q),
(642,-2,o),
(695,1,o),
(739,3,o),
(759,3,qs),
(762,3,o),
(882,-3,q),
(884,3,o),
(884,12,qs),
(884,30,o),
(880,30,qs),
(870,30,o),
(822,45,o),
(818,54,qs),
(803,92,o),
(802,146,qs),
(792,470,o),
(788,559,qs),
(786,602,o),
(801,613,qs),
(823,629,o),
(850,629,qs),
(852,629,ls),
(856,629,o),
(856,646,qs),
(856,658,o),
(853,662,q),
(773,657,o),
(734,657,qs),
(682,657,o),
(652,660,q),
(616,544,l),
(564,408,o),
(476,197,q),
(476,194,o),
(470,194,o),
(470,196,q),
(442,266,o),
(349,483,o),
(285,634,o),
(276,662,q),
(183,656,o),
(178,656,qs),
(152,656,o)
);
}
);
width = 913;
},
{
layerId = "868F064F-B1BF-49D1-B6CA-957F77525378";
shapes = (
{
closed = 1;
nodes = (
(89,661,o),
(75,662,q),
(71,658,o),
(71,647,qs),
(71,626,o),
(75,626,qs),
(88,626,o),
(146,613,o),
(149,605,qs),
(152,598,o),
(152,587,qs),
(151,574,o),
(145,386,o),
(137,183,o),
(134,131,qs),
(132,106,o),
(130,83,qs),
(128,62,o),
(47,32,o),
(29,32,qs),
(26,32,o),
(26,13,qs),
(26,0,o),
(30,-4,q),
(46,-3,o),
(138,4,o),
(190,4,o),
(294,-4,o),
(302,-4,q),
(304,2,o),
(304,13,qs),
(304,33,o),
(300,33,qs),
(287,33,o),
(205,60,o),
(202,73,qs),
(201,80,o),
(201,109,qs),
(218,494,l),
(438,0,l),
(444,-2,o),
(447,-2,qs),
(459,-2,o),
(483,21,o),
(487,31,qs),
(660,462,ls),
(663,469,o),
(665,469,qs),
(669,469,o),
(673,402,qs),
(681,148,ls),
(683,112,o),
(683,89,qs),
(683,76,o),
(675,61,qs),
(670,51,o),
(624,33,o),
(613,33,qs),
(610,33,o),
(610,12,qs),
(610,1,o),
(615,-4,q),
(629,-3,o),
(733,4,o),
(760,4,qs),
(786,4,o),
(876,-3,o),
(887,-4,q),
(889,2,o),
(889,13,qs),
(889,33,o),
(885,33,qs),
(876,33,o),
(831,51,o),
(827,60,qs),
(815,91,o),
(812,152,qs),
(810,198,o),
(794,532,o),
(792,572,qs),
(791,602,o),
(806,613,qs),
(823,625,o),
(848,625,qs),
(849,625,ls),
(854,625,o),
(854,646,qs),
(854,656,o),
(850,662,q),
(730,656,o),
(724,656,qs),
(661,656,o),
(643,658,q),
(610,546,l),
(565,422,o),
(488,231,q),
(488,230,o),
(486,230,qs),
(484,230,l),
(449,317,o),
(305,630,o),
(295,662,q),
(283,661,o),
(210,656,o),
(190,656,qs),
(164,656,o)
);
}
);
width = 918;
}
);
note = M;
unicode = 77;
},
{
glyphname = N;
lastChange = "2021-12-15 14:24:36 +0000";
layers = (
{
layerId = m01;
shapes = (
{
closed = 1;
nodes = (
(551,189,o),
(548,172,q),
(246,594,o),
(209,662,q),
(181,660,o),
(129,660,qs),
(105,660,o),
(27,662,q),
(23,658,o),
(23,633,o),
(27,633,qs),
(41,633,o),
(103,620,o),
(106,612,qs),
(113,586,o),
(113,537,qs),
(113,144,ls),
(113,76,o),
(103,50,qs),
(100,41,o),
(37,26,o),
(23,26,qs),
(20,26,o),
(20,12,qs),
(20,0,o),
(23,-3,q),
(138,2,ls),
(153,2,o),
(253,-3,q),
(255,2,o),
(254,26,o),
(251,26,qs),
(241,26,o),
(178,41,o),
(176,48,qs),
(169,75,o),
(169,141,qs),
(169,568,l),
(557,18,ls),
(573,-5,o),
(590,-5,qs),
(605,-5,o),
(609,-1,q),
(606,77,o),
(606,139,qs),
(606,519,ls),
(606,581,o),
(614,612,qs),
(616,619,o),
(683,635,o),
(693,635,qs),
(697,635,o),
(697,647,qs),
(697,656,o),
(695,662,q),
(688,662,o),
(609,656,o),
(583,656,qs),
(556,656,o),
(478,661,o),
(465,662,q),
(461,658,o),
(461,635,o),
(465,635,qs),
(478,635,o),
(541,620,o),
(544,612,qs),
(551,585,o),
(551,524,qs),
(551,213,ls)
);
}
);
width = 721;
},
{
layerId = "5D05F7D8-7336-4C54-9046-4D1B683AB1D3";
shapes = (
{
closed = 1;
nodes = (
(571,222,o),
(569,210,q),
(537,254,o),
(361,485,o),
(260,626,o),
(241,662,q),
(184,657,o),
(151,657,qs),
(137,657,o),
(32,662,q),
(28,658,o),
(29,628,o),
(33,628,qs),
(47,628,o),
(108,616,o),
(112,609,qs),
(123,590,o),
(123,536,qs),
(123,144,ls),
(123,81,o),
(113,60,qs),
(105,45,o),
(48,30,o),
(31,30,qs),
(27,30,o),
(27,14,qs),
(27,1,o),
(31,-3,q),
(44,-2,o),
(123,3,o),
(150,3,qs),
(155,3,o),
(275,-3,q),
(277,2,o),
(276,30,o),
(273,30,qs),
(260,30,o),
(196,47,o),
(191,59,qs),
(183,81,o),
(183,141,qs),
(183,546,l),
(581,18,ls),
(597,-5,o),
(613,-5,qs),
(631,-5,o),
(635,-1,q),
(631,103,o),
(631,139,qs),
(631,518,ls),
(631,574,o),
(642,601,q),
(651,614,o),
(709,629,o),
(723,629,qs),
(727,629,o),
(727,646,qs),
(727,658,o),
(725,662,q),
(715,662,o),
(633,655,o),
(607,655,qs),
(588,655,o),
(481,662,q),
(478,658,o),
(479,629,o),
(483,629,qs),
(499,629,o),
(556,615,o),
(561,603,qs),
(571,576,o),
(571,523,qs),
(571,251,ls)
);
}
);
width = 753;
},
{
layerId = "868F064F-B1BF-49D1-B6CA-957F77525378";
shapes = (
{
closed = 1;
nodes = (
(585,255,o),
(583,248,q),
(537,309,o),
(381,499,o),
(282,628,o),
(265,662,q),
(201,654,o),
(167,654,qs),
(141,654,o),
(46,661,o),
(30,662,q),
(26,658,o),
(28,625,o),
(32,625,qs),
(46,625,o),
(106,615,o),
(111,608,qs),
(126,589,o),
(126,537,qs),
(126,144,ls),
(126,87,o),
(116,71,qs),
(107,56,o),
(67,37,o),
(41,33,o),
(31,33,qs),
(28,33,o),
(28,14,qs),
(28,-1,o),
(31,-4,q),
(49,-3,o),
(129,4,o),
(181,4,o),
(281,-4,o),
(290,-4,q),
(292,0,o),
(291,34,o),
(288,34,qs),
(273,34,o),
(207,53,o),
(198,70,qs),
(190,86,o),
(190,141,qs),
(190,524,l),
(597,18,ls),
(616,-5,o),
(628,-5,qs),
(649,-5,o),
(653,-1,q),
(649,103,o),
(649,139,qs),
(649,519,ls),
(649,575,o),
(663,592,qs),
(691,625,o),
(746,625,qs),
(751,625,o),
(751,644,qs),
(751,654,o),
(747,662,q),
(735,661,o),
(648,654,o),
(623,654,qs),
(583,654,o),
(491,662,q),
(488,658,o),
(490,625,o),
(494,625,qs),
(506,625,o),
(563,607,o),
(572,596,qs),
(585,581,o),
(585,524,qs),
(585,289,ls)
);
}
);
width = 777;
}
);
note = N;
unicode = 78;
},
{
glyphname = Eng;
lastChange = "2021-12-15 14:24:36 +0000";
layers = (
{
layerId = m01;
shapes = (
{
closed = 1;
nodes = (
(635,581,o),
(643,612,qs),
(645,619,o),
(712,635,o),
(722,635,qs),
(726,635,o),
(726,647,qs),
(726,656,o),
(724,662,q),
(717,662,o),
(638,656,o),
(612,656,qs),
(585,656,o),
(507,661,o),
(494,662,q),
(490,658,o),
(490,635,o),
(494,635,qs),
(507,635,o),
(570,620,o),
(573,612,qs),
(580,585,o),
(580,524,qs),
(580,213,ls),
(580,189,o),
(577,172,q),
(275,594,o),
(238,662,q),
(210,660,o),
(158,660,qs),
(134,660,o),
(56,662,q),
(52,658,o),
(52,633,o),
(56,633,qs),
(70,633,o),
(132,620,o),
(135,612,qs),
(142,586,o),
(142,537,qs),
(142,144,ls),
(142,76,o),
(132,50,qs),
(129,41,o),
(66,26,o),
(52,26,qs),
(49,26,o),
(49,12,qs),
(49,0,o),
(52,-3,q),
(167,2,ls),
(182,2,o),
(282,-3,q),
(284,2,o),
(283,26,o),
(280,26,qs),
(270,26,o),
(207,41,o),
(205,48,qs),
(198,75,o),
(198,141,qs),
(198,568,l),
(579,28,l),
(573,-68,o),
(519,-167,o),
(491,-167,qs),
(478,-167,o),
(433,-124,o),
(415,-124,qs),
(390,-124,o),
(353,-152,o),
(353,-174,qs),
(353,-197,o),
(365,-211,q),
(372,-215,ls),
(380,-219,o),
(406,-227,o),
(417,-227,qs),
(523,-227,o),
(635,-47,o),
(635,85,qs),
(635,519,ls)
);
}
);
width = 774;
},
{
layerId = "5D05F7D8-7336-4C54-9046-4D1B683AB1D3";
shapes = (
{
closed = 1;
nodes = (
(632,574,o),
(643,602,q),
(652,615,o),
(710,630,o),
(724,630,qs),
(728,630,o),
(728,646,qs),
(728,658,o),
(726,662,q),
(716,662,o),
(634,655,o),
(608,655,qs),
(589,655,o),
(482,662,q),
(479,658,o),
(480,630,o),
(484,630,qs),
(496,630,o),
(555,613,o),
(562,604,q),
(572,584,o),
(572,524,qs),
(572,251,ls),
(572,222,o),
(570,210,q),
(538,254,o),
(362,485,o),
(261,626,o),
(242,662,q),
(184,657,o),
(152,657,qs),
(138,657,o),
(33,662,q),
(29,658,o),
(30,629,o),
(34,629,qs),
(48,629,o),
(109,617,o),
(113,610,qs),
(124,589,o),
(124,537,qs),
(124,144,ls),
(124,81,o),
(114,60,qs),
(106,45,o),
(49,30,o),
(32,30,qs),
(28,30,o),
(28,13,qs),
(28,0,o),
(32,-4,q),
(49,-3,o),
(125,3,o),
(177,3,o),
(269,-4,o),
(276,-4,q),
(278,0,o),
(277,30,o),
(274,30,qs),
(261,30,o),
(197,47,o),
(192,59,qs),
(184,81,o),
(184,141,qs),
(184,546,l),
(568,35,l),
(559,-56,o),
(502,-158,o),
(469,-158,qs),
(455,-158,o),
(405,-106,o),
(384,-106,qs),
(359,-106,o),
(322,-138,o),
(322,-161,qs),
(322,-187,o),
(336,-206,q),
(340,-210,o),
(375,-222,o),
(390,-222,qs),
(510,-222,o),
(632,-40,o),
(632,114,qs),
(632,519,ls)
);
}
);
width = 746;
},
{
layerId = "868F064F-B1BF-49D1-B6CA-957F77525378";
shapes = (
{
closed = 1;
nodes = (
(636,575,o),
(650,592,qs),
(678,625,o),
(733,625,qs),
(738,625,o),
(738,644,qs),
(738,654,o),
(734,662,q),
(722,661,o),
(635,654,o),
(610,654,qs),
(570,654,o),
(478,662,q),
(475,658,o),
(477,625,o),
(481,625,qs),
(493,625,o),
(550,607,o),
(559,596,qs),
(572,581,o),
(572,524,qs),
(572,289,ls),
(572,255,o),
(570,248,q),
(524,309,o),
(368,499,o),
(269,628,o),
(252,662,q),
(188,654,o),
(154,654,qs),
(128,654,o),
(33,661,o),
(17,662,q),
(13,658,o),
(15,625,o),
(19,625,qs),
(33,625,o),
(93,615,o),
(98,608,qs),
(113,589,o),
(113,537,qs),
(113,144,ls),
(113,87,o),
(103,71,qs),
(94,56,o),
(54,37,o),
(28,33,o),
(18,33,qs),
(15,33,o),
(15,14,qs),
(15,-1,o),
(18,-4,q),
(36,-3,o),
(116,4,o),
(168,4,o),
(268,-4,o),
(277,-4,q),
(279,0,o),
(278,34,o),
(275,34,qs),
(260,34,o),
(194,53,o),
(185,70,qs),
(177,86,o),
(177,141,qs),
(177,524,l),
(565,42,l),
(553,-43,o),
(492,-148,o),
(454,-148,qs),
(440,-148,o),
(385,-87,o),
(361,-87,qs),
(336,-87,o),
(298,-123,o),
(298,-148,qs),
(298,-176,o),
(313,-200,q),
(336,-218,o),
(370,-218,qs),
(504,-218,o),
(636,-32,o),
(636,143,qs),
(636,519,ls)
);
}
);
width = 748;
}
);
note = Eng;
unicode = 330;
},
{
glyphname = O;
lastChange = "2021-12-15 14:24:36 +0000";
layers = (
{
layerId = m01;
shapes = (
{
closed = 1;
nodes = (
(532,530,o),
(584,389,o),
(584,309,qs),
(584,239,o),
(539,116,o),
(443,33,o),
(379,33,qs),
(305,33,o),
(195,128,o),
(143,270,o),
(143,350,qs),
(143,459,o),
(253,625,o),
(348,625,qs),
(422,625,o)
);
},
{
closed = 1;
nodes = (
(495,-10,o),
(683,188,o),
(683,468,o),
(495,667,o),
(231,667,o),
(44,468,o),
(44,188,o),
(231,-10,o)
);
}
);
width = 728;
},
{
layerId = "5D05F7D8-7336-4C54-9046-4D1B683AB1D3";
shapes = (
{
closed = 1;
nodes = (
(499,521,o),
(539,386,o),
(539,309,qs),
(539,199,o),
(446,40,o),
(361,40,qs),
(292,40,o),
(194,139,o),
(153,275,o),
(153,350,qs),
(153,461,o),
(244,618,o),
(330,618,qs),
(401,618,o)
);
},
{
closed = 1;
nodes = (
(477,-10,o),
(666,188,o),
(666,468,o),
(477,667,o),
(213,667,o),
(25,468,o),
(25,188,o),
(213,-10,o)
);
}
);
width = 693;
},
{
layerId = "868F064F-B1BF-49D1-B6CA-957F77525378";
shapes = (
{
closed = 1;
nodes = (
(457,556,o),
(495,463,o),
(512,364,o),
(512,309,qs),
(512,198,o),
(437,46,o),
(362,46,qs),
(313,46,o),
(239,105,o),
(200,200,o),
(181,299,o),
(181,350,qs),
(181,422,o),
(208,534,o),
(278,611,o),
(331,611,qs),
(383,611,o)
);
},
{
closed = 1;
nodes = (
(478,-10,o),
(668,188,o),
(668,468,o),
(478,667,o),
(214,667,o),
(25,468,o),
(25,188,o),
(214,-10,o)
);
}
);
width = 695;
}
);
note = O;
unicode = 79;
},
{
glyphname = Ocircumflexacute;
lastChange = "2021-12-15 14:24:37 +0000";
layers = (
{
layerId = m01;
shapes = (
{
closed = 1;
nodes = (
(449,789,o),
(452,789,qs),
(462,789,o),
(582,848,o),
(582,859,qs),
(582,865,o),
(551,882,o),
(533,882,qs),
(521,882,o),
(517,879,qs),
(502,868,o),
(465,832,o),
(440,804,o),
(440,802,qs),
(440,798,o)
);
},
{
closed = 1;
nodes = (
(477,718,qs),
(477,719,o),
(459,733,o),
(428,760,o),
(415,772,qs),
(395,792,o),
(374,820,qs),
(369,828,o),
(363,828,qs),
(360,828,o),
(353,820,qs),
(339,800,o),
(311,774,qs),
(297,761,o),
(254,722,o),
(250,718,q),
(250,698,o),
(260,698,qs),
(269,698,o),
(339,738,o),
(363,756,q),
(449,698,o),
(468,698,qs),
(477,698,o)
);
},
{
closed = 1;
nodes = (
(532,530,o),
(584,389,o),
(584,309,qs),
(584,239,o),
(539,116,o),
(443,33,o),
(379,33,qs),
(305,33,o),
(195,128,o),
(143,270,o),
(143,350,qs),
(143,459,o),
(253,625,o),
(348,625,qs),
(422,625,o)
);
},
{
closed = 1;
nodes = (
(495,-10,o),
(683,188,o),
(683,468,o),
(495,667,o),
(231,667,o),
(44,468,o),
(44,188,o),
(231,-10,o)
);
}
);
width = 728;
},
{
layerId = "5D05F7D8-7336-4C54-9046-4D1B683AB1D3";
width = 600;
},
{
layerId = "868F064F-B1BF-49D1-B6CA-957F77525378";
shapes = (
{
ref = acutecomb.cap;
},
{
pos = (244,0);
ref = Ocircumflex;
}
);
width = 939;
}
);
note = uni1ED0;
unicode = 7888;
},
{
glyphname = Ocircumflexgrave;
lastChange = "2021-12-15 14:24:37 +0000";
layers = (
{
layerId = m01;
shapes = (
{
closed = 1;
nodes = (
(499,761,o),
(508,761,qs),
(511,761,o),
(522,769,o),
(522,772,qs),
(522,776,o),
(475,840,o),
(455,859,qs),
(450,864,o),
(432,864,qs),
(416,864,o),
(388,852,o),
(388,847,qs),
(388,836,o)
);
},
{
closed = 1;
nodes = (
(532,530,o),
(584,389,o),
(584,309,qs),
(584,239,o),
(539,116,o),
(443,33,o),
(379,33,qs),
(305,33,o),
(195,128,o),
(143,270,o),
(143,350,qs),
(143,459,o),
(253,625,o),
(348,625,qs),
(422,625,o)
);
},
{
closed = 1;
nodes = (
(495,-10,o),
(683,188,o),
(683,468,o),
(495,667,o),
(231,667,o),
(44,468,o),
(44,188,o),
(231,-10,o)
);
},
{
closed = 1;
nodes = (
(460,718,qs),
(460,719,o),
(442,733,o),
(411,760,o),
(398,772,qs),
(378,792,o),
(357,820,qs),
(352,828,o),
(346,828,qs),
(343,828,o),
(336,820,qs),
(322,800,o),
(294,774,qs),
(280,761,o),
(237,722,o),
(233,718,q),
(233,698,o),
(243,698,qs),
(252,698,o),
(322,738,o),
(346,756,q),
(432,698,o),
(451,698,qs),
(460,698,o)
);
}
);
width = 689;
},
{
layerId = "5D05F7D8-7336-4C54-9046-4D1B683AB1D3";
width = 600;
},
{
layerId = "868F064F-B1BF-49D1-B6CA-957F77525378";
shapes = (
{
ref = gravecomb.cap;
},
{
pos = (244,0);
ref = Ocircumflex;
}
);
width = 939;
}
);
note = uni1ED2;
unicode = 7890;
},
{
glyphname = Ocircumflexhookabove;
lastChange = "2021-12-15 14:24:37 +0000";
layers = (
{
layerId = m01;
shapes = (
{
closed = 1;
nodes = (
(990,750,l)
);
},
{
closed = 1;
nodes = (
(506,852,qs),
(506,835,o),
(486,820,qs),
(484,818,o),
(456,799,o),
(446,789,o),
(446,784,qs),
(446,772,o),
(465,756,o),
(477,756,qs),
(493,756,o),
(493,762,q),
(488,770,o),
(488,776,qs),
(488,779,o),
(492,785,o),
(495,788,o),
(505,793,o),
(507,795,qs),
(517,802,ls),
(527,809,o),
(532,814,o),
(547,827,o),
(553,836,o),
(559,850,o),
(559,857,qs),
(559,882,o),
(523,909,o),
(495,909,qs),
(464,909,o),
(409,880,o),
(399,866,q),
(399,837,o),
(416,837,qs),
(427,837,o),
(463,873,o),
(477,873,qs),
(506,873,o)
);
},
{
closed = 1;
nodes = (
(451,718,qs),
(451,719,o),
(433,733,o),
(402,760,o),
(389,772,qs),
(369,792,o),
(348,820,qs),
(343,828,o),
(337,828,qs),
(334,828,o),
(327,820,qs),
(313,800,o),
(285,774,qs),
(271,761,o),
(228,722,o),
(224,718,q),
(224,698,o),
(234,698,qs),
(243,698,o),
(313,738,o),
(337,756,q),
(423,698,o),
(442,698,qs),
(451,698,o)
);
},
{
closed = 1;
nodes = (
(532,530,o),
(584,389,o),
(584,309,qs),
(584,239,o),
(539,116,o),
(443,33,o),
(379,33,qs),
(305,33,o),
(195,128,o),
(143,270,o),
(143,350,qs),
(143,459,o),
(253,625,o),
(348,625,qs),
(422,625,o)
);
},
{
closed = 1;
nodes = (
(495,-10,o),
(683,188,o),
(683,468,o),
(495,667,o),
(231,667,o),
(44,468,o),
(44,188,o),
(231,-10,o)
);
}
);
width = 698;
},
{
layerId = "5D05F7D8-7336-4C54-9046-4D1B683AB1D3";
width = 600;
},
{
layerId = "868F064F-B1BF-49D1-B6CA-957F77525378";
shapes = (
{
ref = hookabovecomb.cap;
},
{
pos = (180,0);
ref = Ocircumflex;
}
);
width = 875;
}
);
note = uni1ED4;
unicode = 7892;
},
{
glyphname = Ocircumflextilde;
lastChange = "2021-12-15 14:24:37 +0000";
layers = (
{
layerId = m01;
shapes = (
{
closed = 1;
nodes = (
(305,906,o),
(278,906,qs),
(255,906,o),
(202,870,o),
(202,843,qs),
(202,828,o),
(211,828,qs),
(215,828,o),
(217,829,q),
(233,862,o),
(264,862,qs),
(290,862,o),
(371,821,o),
(399,821,qs),
(421,821,o),
(475,861,o),
(475,888,qs),
(475,903,o),
(466,903,qs),
(462,903,o),
(460,902,q),
(442,865,o),
(411,865,qs),
(384,865,o)
);
},
{
closed = 1;
nodes = (
(452,711,qs),
(452,712,o),
(434,725,o),
(403,749,o),
(390,760,qs),
(367,781,o),
(349,804,q),
(345,811,o),
(338,811,qs),
(335,811,o),
(328,804,qs),
(313,786,o),
(286,762,qs),
(271,749,o),
(229,715,o),
(225,711,q),
(225,693,o),
(235,693,qs),
(244,693,o),
(314,728,o),
(338,744,q),
(364,728,o),
(435,693,o),
(443,693,qs),
(452,693,o)
);
},
{
closed = 1;
nodes = (
(532,530,o),
(584,389,o),
(584,309,qs),
(584,239,o),
(539,116,o),
(443,33,o),
(379,33,qs),
(305,33,o),
(195,128,o),
(143,270,o),
(143,350,qs),
(143,459,o),
(253,625,o),
(348,625,qs),
(422,625,o)
);
},
{
closed = 1;
nodes = (
(495,-10,o),
(683,188,o),
(683,468,o),
(495,667,o),
(231,667,o),
(44,468,o),
(44,188,o),
(231,-10,o)
);
}
);
width = 704;
},
{
layerId = "5D05F7D8-7336-4C54-9046-4D1B683AB1D3";
width = 600;
},
{
layerId = "868F064F-B1BF-49D1-B6CA-957F77525378";
shapes = (
{
ref = tildecomb.cap;
},
{
pos = (664,0);
ref = Ocircumflex;
}
);
width = 1359;
}
);
note = uni1ED6;
unicode = 7894;
},
{
glyphname = Ohorn;
lastChange = "2021-12-15 14:24:36 +0000";
layers = (
{
layerId = m01;
shapes = (
{
closed = 1;
nodes = (
(478,637,qs),
(411,667,o),
(347,667,qs),
(215,667,o),
(28,468,o),
(28,188,o),
(215,-10,o),
(479,-10,o),
(667,188,o),
(667,328,qs),
(667,455,o),
(580,561,q),
(585,561,ls),
(628,561,o),
(700,613,o),
(700,653,qs),
(700,687,o),
(680,707,q),
(612,707,o),
(612,674,qs),
(612,661,o),
(636,636,o),
(636,630,qs),
(636,598,o),
(599,598,qs),
(560,598,o)
);
},
{
closed = 1;
nodes = (
(516,530,o),
(568,389,o),
(568,309,qs),
(568,239,o),
(523,116,o),
(427,33,o),
(363,33,qs),
(289,33,o),
(179,128,o),
(127,270,o),
(127,350,qs),
(127,459,o),
(237,625,o),
(332,625,qs),
(406,625,o)
);
}
);
width = 768;
},
{
layerId = "5D05F7D8-7336-4C54-9046-4D1B683AB1D3";
width = 600;
},
{
layerId = "868F064F-B1BF-49D1-B6CA-957F77525378";
shapes = (
{
closed = 1;
nodes = (
(457,556,o),
(495,463,o),
(512,364,o),
(512,309,qs),
(512,198,o),
(437,46,o),
(362,46,qs),
(313,46,o),
(239,105,o),
(200,200,o),
(181,299,o),
(181,350,qs),
(181,422,o),
(208,534,o),
(278,611,o),
(331,611,qs),
(383,611,o)
);
},
{
closed = 1;
nodes = (
(25,469,o),
(25,328,qs),
(25,188,o),
(214,-10,o),
(478,-10,o),
(668,188,o),
(668,328,qs),
(668,462,o),
(579,561,q),
(588,556,o),
(604,556,qs),
(647,556,o),
(725,612,o),
(725,652,qs),
(725,672,o),
(713,713,o),
(706,720,q),
(612,720,o),
(612,674,qs),
(612,661,o),
(634,628,o),
(634,622,qs),
(634,603,o),
(598,603,qs),
(568,603,o),
(464,643,qs),
(407,667,o),
(346,667,qs),
(210,667,o)
);
}
);
width = 717;
}
);
note = Ohorn;
unicode = 416;
},
{
glyphname = Oslash;
lastChange = "2021-12-15 14:24:36 +0000";
layers = (
{
layerId = m01;
shapes = (
{
closed = 1;
nodes = (
(516,530,o),
(568,389,o),
(568,309,qs),
(568,239,o),
(523,116,o),
(427,33,o),
(363,33,qs),
(289,33,o),
(179,128,o),
(127,270,o),
(127,350,qs),
(127,459,o),
(237,625,o),
(332,625,qs),
(406,625,o)
);
},
{
closed = 1;
nodes = (
(119,6,o),
(142,-10,o),
(151,-13,q),
(569,645,ls),
(572,649,o),
(548,665,o),
(540,667,q),
(122,10,ls)
);
},
{
closed = 1;
nodes = (
(28,188,o),
(215,-10,o),
(479,-10,o),
(667,188,o),
(667,468,o),
(479,667,o),
(215,667,o),
(28,468,o)
);
}
);
width = 696;
},
{
layerId = "5D05F7D8-7336-4C54-9046-4D1B683AB1D3";
shapes = (
{
closed = 1;
nodes = (
(469,563,o),
(516,472,o),
(540,366,o),
(540,309,qs),
(540,239,o),
(503,119,o),
(420,40,o),
(362,40,qs),
(310,40,o),
(227,97,o),
(179,189,o),
(154,295,o),
(154,350,qs),
(154,460,o),
(245,618,o),
(332,618,qs),
(385,618,o)
);
},
{
closed = 1;
nodes = (
(124,3,o),
(149,-12,o),
(159,-16,q),
(556,650,ls),
(558,653,o),
(544,663,o),
(528,670,o),
(523,672,q),
(126,7,ls)
);
},
{
closed = 1;
nodes = (
(26,420,o),
(26,236,o),
(112,80,o),
(260,-10,o),
(433,-10,o),
(581,80,o),
(668,236,o),
(668,420,o),
(581,576,o),
(433,667,o),
(260,667,o),
(112,576,o)
);
}
);
width = 698;
},
{
layerId = "868F064F-B1BF-49D1-B6CA-957F77525378";
shapes = (
{
closed = 1;
nodes = (
(457,556,o),
(495,463,o),
(512,364,o),
(512,309,qs),
(512,198,o),
(437,46,o),
(362,46,qs),
(313,46,o),
(239,105,o),
(200,200,o),
(181,299,o),
(181,350,qs),
(181,422,o),
(208,534,o),
(278,611,o),
(331,611,qs),
(383,611,o)
);
},
{
closed = 1;
nodes = (
(127,-3,o),
(167,-18,q),
(544,655,l),
(546,661,o),
(506,676,q),
(129,4,l)
);
},
{
closed = 1;
nodes = (
(25,188,o),
(214,-10,o),
(478,-10,o),
(668,188,o),
(668,468,o),
(478,667,o),
(214,667,o),
(25,468,o)
);
}
);
width = 700;
}
);
note = Oslash;
unicode = 216;
},
{
glyphname = OE;
lastChange = "2021-12-15 14:24:36 +0000";
layers = (
{
layerId = m01;
shapes = (
{
closed = 1;
nodes = (
(489,610,o),
(515,586,qs),
(550,554,o),
(550,488,qs),
(550,192,ls),
(550,158,o),
(548,126,o),
(537,85,o),
(526,68,qs),
(510,44,o),
(452,30,o),
(402,30,qs),
(325,30,o),
(206,127,o),
(149,270,o),
(149,350,qs),
(149,459,o),
(259,625,o),
(354,625,qs),
(415,625,o)
);
},
{
closed = 1;
nodes = (
(50,468,o),
(50,188,o),
(232,-7,o),
(364,-7,qs),
(417,-7,o),
(477,-3,qs),
(550,2,o),
(595,2,qs),
(638,2,o),
(879,-4,o),
(936,-4,q),
(938,11,o),
(952,57,o),
(964,92,o),
(985,149,o),
(990,162,q),
(984,168,o),
(965,168,qs),
(952,168,o),
(951,162,qs),
(940,124,o),
(903,69,o),
(888,61,qs),
(855,44,o),
(762,44,qs),
(714,44,ls),
(649,44,o),
(646,54,qs),
(637,80,o),
(637,145,qs),
(637,300,ls),
(637,309,o),
(709,309,qs),
(802,309,o),
(815,301,qs),
(821,297,o),
(826,292,o),
(836,265,o),
(843,238,qs),
(846,230,o),
(859,230,qs),
(871,230,o),
(875,234,q),
(875,423,l),
(870,428,o),
(858,428,qs),
(844,428,o),
(843,421,qs),
(837,398,o),
(835,387,o),
(822,363,o),
(814,361,o),
(786,353,o),
(761,353,o),
(733,353,qs),
(680,353,ls),
(637,353,o),
(637,359,qs),
(637,519,ls),
(637,579,o),
(642,603,qs),
(644,616,o),
(730,616,qs),
(797,616,ls),
(844,616,o),
(898,585,o),
(913,530,q),
(914,523,o),
(940,523,o),
(945,528,q),
(943,540,o),
(920,635,o),
(916,664,q),
(859,664,o),
(636,656,o),
(593,656,qs),
(554,656,o),
(376,667,o),
(369,667,qs),
(237,667,o)
);
}
);
width = 1035;
},
{
layerId = "5D05F7D8-7336-4C54-9046-4D1B683AB1D3";
shapes = (
{
closed = 1;
nodes = (
(469,605,o),
(495,583,qs),
(534,550,o),
(534,474,qs),
(534,213,ls),
(534,108,o),
(495,68,qs),
(483,54,o),
(443,40,o),
(408,38,o),
(377,38,qs),
(306,38,o),
(204,138,o),
(160,275,o),
(160,350,qs),
(160,420,o),
(196,538,o),
(279,618,o),
(338,618,qs),
(396,618,o)
);
},
{
closed = 1;
nodes = (
(32,469,o),
(32,328,qs),
(32,188,o),
(218,-8,o),
(350,-8,qs),
(393,-8,o),
(480,-2,qs),
(532,2,o),
(593,2,qs),
(649,2,o),
(880,-3,o),
(934,-3,q),
(936,12,o),
(950,60,o),
(962,93,o),
(985,157,o),
(988,166,q),
(982,172,o),
(961,172,qs),
(948,172,o),
(947,166,q),
(936,132,o),
(896,78,o),
(880,70,qs),
(839,49,o),
(760,49,qs),
(724,49,ls),
(661,49,o),
(656,62,qs),
(647,88,o),
(647,143,qs),
(647,298,ls),
(647,306,o),
(719,306,qs),
(798,306,o),
(811,298,qs),
(818,293,o),
(821,291,o),
(832,265,o),
(839,238,qs),
(842,230,o),
(855,230,qs),
(870,230,o),
(874,234,q),
(874,423,l),
(869,428,o),
(854,428,qs),
(840,428,o),
(839,421,qs),
(836,411,o),
(833,396,qs),
(827,366,o),
(805,356,o),
(747,356,qs),
(744,356,o),
(743,356,qs),
(690,356,ls),
(647,356,o),
(647,362,qs),
(647,519,ls),
(647,576,o),
(652,600,qs),
(654,613,o),
(728,613,qs),
(781,613,ls),
(876,613,o),
(909,524,qs),
(912,517,o),
(923,517,qs),
(939,517,o),
(944,522,q),
(942,532,o),
(918,635,o),
(914,664,q),
(857,664,o),
(636,658,o),
(592,658,qs),
(558,658,o),
(382,667,o),
(352,667,qs),
(218,667,o)
);
}
);
width = 1011;
},
{
layerId = "868F064F-B1BF-49D1-B6CA-957F77525378";
shapes = (
{
closed = 1;
nodes = (
(501,580,qs),
(543,547,o),
(543,459,qs),
(543,234,ls),
(543,110,o),
(490,68,qs),
(477,58,o),
(438,48,o),
(408,46,o),
(378,46,qs),
(329,46,o),
(255,105,o),
(216,200,o),
(197,299,o),
(197,350,qs),
(197,422,o),
(224,534,o),
(294,611,o),
(347,611,qs),
(461,611,o)
);
},
{
closed = 1;
nodes = (
(41,469,o),
(41,328,qs),
(41,188,o),
(230,-10,o),
(362,-10,qs),
(367,-10,o),
(510,0,qs),
(543,2,o),
(617,2,qs),
(686,2,o),
(908,-2,o),
(959,-2,q),
(964,32,o),
(1013,170,q),
(1007,176,o),
(983,176,qs),
(970,176,o),
(969,170,q),
(957,139,o),
(914,89,o),
(897,80,qs),
(847,54,o),
(785,54,qs),
(759,54,ls),
(696,54,o),
(691,70,qs),
(683,93,o),
(683,141,qs),
(683,295,ls),
(683,304,o),
(755,304,qs),
(820,304,o),
(833,296,q),
(834,295,o),
(840,292,o),
(842,290,o),
(847,282,o),
(851,272,o),
(857,252,o),
(861,238,qs),
(864,230,o),
(877,230,qs),
(894,230,o),
(898,234,q),
(898,423,l),
(893,428,o),
(876,428,qs),
(862,428,o),
(861,421,qs),
(857,407,o),
(855,392,qs),
(852,367,o),
(847,363,qs),
(841,359,o),
(779,359,qs),
(726,359,ls),
(683,359,o),
(683,365,qs),
(683,519,ls),
(683,573,o),
(688,597,qs),
(690,610,o),
(753,610,qs),
(791,610,ls),
(830,610,o),
(912,556,o),
(931,518,qs),
(934,511,o),
(945,511,qs),
(963,511,o),
(968,516,q),
(940,654,o),
(939,664,q),
(882,664,o),
(660,659,o),
(616,659,qs),
(586,659,o),
(416,667,o),
(362,667,qs),
(226,667,o)
);
}
);
width = 1036;
}
);
note = OE;
unicode = 338;
},
{
glyphname = P;
lastChange = "2021-12-15 14:24:36 +0000";
layers = (
{
layerId = m01;
shapes = (
{
closed = 1;
nodes = (
(40,654,o),
(40,641,qs),
(40,629,o),
(44,629,qs),
(57,629,o),
(110,615,o),
(113,607,qs),
(120,580,o),
(120,521,qs),
(120,143,ls),
(120,61,o),
(113,49,qs),
(108,40,o),
(58,28,o),
(44,28,qs),
(41,28,o),
(41,15,qs),
(41,0,o),
(44,-3,q),
(166,2,ls),
(196,2,o),
(296,-3,q),
(298,3,o),
(298,12,qs),
(298,26,o),
(294,26,qs),
(281,26,o),
(220,42,o),
(215,55,qs),
(207,75,o),
(207,142,qs),
(207,499,ls),
(207,547,o),
(210,595,o),
(214,608,o),
(219,609,qs),
(244,616,o),
(289,616,qs),
(354,616,o),
(416,533,o),
(416,462,qs),
(416,404,o),
(344,320,o),
(294,320,qs),
(257,320,o),
(227,331,qs),
(225,332,o),
(224,328,qs),
(221,312,o),
(227,305,qs),
(248,277,o),
(304,277,qs),
(354,277,o),
(435,318,o),
(483,381,o),
(508,448,o),
(508,477,qs),
(508,526,o),
(468,600,o),
(405,640,o),
(338,660,o),
(305,660,qs),
(276,660,o),
(194,656,o),
(164,656,qs),
(44,658,l)
);
}
);
width = 545;
},
{
layerId = "5D05F7D8-7336-4C54-9046-4D1B683AB1D3";
shapes = (
{
closed = 1;
nodes = (
(30,661,q),
(26,658,o),
(26,643,qs),
(26,628,o),
(30,628,qs),
(42,628,o),
(95,611,o),
(98,603,q),
(104,578,o),
(104,521,qs),
(104,143,ls),
(104,70,o),
(98,52,qs),
(94,43,o),
(43,30,o),
(30,30,qs),
(27,30,o),
(27,14,qs),
(27,0,o),
(30,-4,q),
(50,-2,ls),
(70,-1,o),
(137,2,o),
(164,2,qs),
(196,2,o),
(306,-4,q),
(308,2,o),
(308,13,qs),
(308,30,o),
(304,30,qs),
(290,30,o),
(229,45,o),
(226,57,qs),
(218,82,o),
(218,142,qs),
(218,499,ls),
(218,597,o),
(230,603,qs),
(246,610,o),
(288,610,qs),
(344,610,o),
(398,532,o),
(398,465,qs),
(398,405,o),
(342,326,o),
(294,326,qs),
(261,326,o),
(238,336,q),
(236,336,o),
(234,322,o),
(237,306,o),
(239,304,qs),
(247,293,o),
(289,278,o),
(310,278,qs),
(372,278,o),
(471,341,o),
(520,431,o),
(520,478,qs),
(520,517,o),
(491,581,o),
(446,622,o),
(387,650,o),
(328,661,o),
(298,661,qs),
(268,661,o),
(192,658,o),
(163,658,qs),
(135,658,o)
);
}
);
width = 546;
},
{
layerId = "868F064F-B1BF-49D1-B6CA-957F77525378";
shapes = (
{
closed = 1;
nodes = (
(29,664,q),
(26,661,o),
(26,645,qs),
(26,627,o),
(30,627,qs),
(41,627,o),
(94,607,o),
(97,599,qs),
(103,576,o),
(103,521,qs),
(103,143,ls),
(103,78,o),
(97,55,qs),
(94,47,o),
(43,33,o),
(31,33,qs),
(27,33,o),
(27,13,qs),
(27,0,o),
(31,-4,q),
(177,2,ls),
(210,2,o),
(330,-4,q),
(332,2,o),
(332,14,qs),
(332,33,o),
(328,33,qs),
(313,33,o),
(253,47,o),
(250,59,qs),
(243,90,o),
(243,141,qs),
(243,499,ls),
(243,588,o),
(255,597,qs),
(266,605,o),
(301,605,qs),
(393,605,o),
(393,468,qs),
(393,332,o),
(309,332,qs),
(277,332,o),
(264,340,q),
(259,340,o),
(261,308,o),
(265,302,qs),
(267,299,o),
(283,290,o),
(315,280,o),
(331,280,qs),
(420,280,o),
(545,398,o),
(545,479,qs),
(545,543,o),
(467,630,o),
(363,662,o),
(304,662,qs),
(274,662,o),
(205,659,o),
(176,659,qs),
(119,659,o)
);
}
);
width = 572;
}
);
note = P;
unicode = 80;
},
{
glyphname = Thorn;
lastChange = "2021-12-15 14:24:36 +0000";
layers = (
{
layerId = m01;
shapes = (
{
closed = 1;
nodes = (
(54,662,q),
(50,658,o),
(50,646,qs),
(50,633,o),
(54,633,qs),
(67,633,o),
(118,620,o),
(121,612,qs),
(128,585,o),
(128,523,qs),
(128,135,ls),
(128,73,o),
(121,46,qs),
(118,38,o),
(67,26,o),
(54,26,qs),
(50,26,o),
(50,12,qs),
(50,1,o),
(54,-3,q),
(169,2,o),
(174,2,qs),
(190,2,o),
(290,-3,q),
(292,3,o),
(292,11,qs),
(292,26,o),
(288,26,qs),
(278,26,o),
(226,39,o),
(224,46,qs),
(215,81,o),
(215,139,qs),
(215,423,ls),
(215,456,o),
(227,460,qs),
(247,467,o),
(297,467,qs),
(362,467,o),
(424,384,o),
(424,313,qs),
(424,255,o),
(352,171,o),
(302,171,qs),
(265,171,o),
(235,182,qs),
(233,183,o),
(232,179,qs),
(229,163,o),
(235,156,qs),
(256,128,o),
(312,128,qs),
(362,128,o),
(443,169,o),
(491,232,o),
(516,299,o),
(516,328,qs),
(516,377,o),
(476,451,o),
(413,491,o),
(346,511,o),
(313,511,qs),
(287,511,o),
(244,504,o),
(220,497,o),
(219,497,qs),
(215,497,o),
(215,504,qs),
(215,524,ls),
(215,578,o),
(224,612,qs),
(226,619,o),
(278,633,o),
(288,633,qs),
(292,633,o),
(292,647,qs),
(292,656,o),
(290,662,q),
(190,657,o),
(174,657,qs),
(169,657,o)
);
}
);
width = 556;
},
{
layerId = "5D05F7D8-7336-4C54-9046-4D1B683AB1D3";
shapes = (
{
closed = 1;
nodes = (
(32,662,q),
(29,659,o),
(29,629,o),
(33,629,qs),
(45,629,o),
(93,614,o),
(98,606,q),
(105,586,o),
(105,522,qs),
(105,136,ls),
(105,79,o),
(98,52,qs),
(95,44,o),
(44,30,o),
(32,30,qs),
(28,30,o),
(28,12,qs),
(28,0,o),
(32,-4,q),
(43,-3,o),
(138,3,o),
(164,3,qs),
(184,3,o),
(228,1,o),
(279,-3,o),
(292,-4,q),
(294,2,o),
(294,12,qs),
(294,30,o),
(290,30,qs),
(281,30,o),
(229,45,o),
(227,52,qs),
(218,85,o),
(218,140,qs),
(218,391,ls),
(218,433,o),
(224,457,o),
(230,460,qs),
(244,466,o),
(288,466,qs),
(398,466,o),
(398,320,qs),
(398,261,o),
(342,182,o),
(295,182,qs),
(261,182,o),
(239,191,q),
(236,191,o),
(235,178,o),
(238,162,o),
(240,159,qs),
(247,149,o),
(289,134,o),
(311,134,qs),
(403,134,o),
(520,260,o),
(520,334,qs),
(520,373,o),
(491,437,o),
(445,477,o),
(386,504,o),
(331,516,o),
(304,516,qs),
(284,516,o),
(245,510,o),
(223,504,o),
(222,504,qs),
(218,504,o),
(218,510,q),
(218,510,o),
(219,516,o),
(219,520,o),
(219,522,qs),
(219,576,o),
(226,606,qs),
(228,614,o),
(282,629,o),
(291,629,qs),
(295,629,o),
(295,646,qs),
(295,654,o),
(292,662,q),
(182,656,o),
(164,656,qs),
(158,656,o)
);
}
);
width = 564;
},
{
layerId = "868F064F-B1BF-49D1-B6CA-957F77525378";
shapes = (
{
closed = 1;
nodes = (
(10,662,q),
(8,660,o),
(8,642,qs),
(8,625,o),
(12,625,qs),
(23,625,o),
(69,608,o),
(74,600,qs),
(82,586,o),
(82,522,qs),
(82,138,ls),
(82,85,o),
(75,58,qs),
(72,50,o),
(20,33,o),
(9,33,qs),
(6,33,o),
(6,12,qs),
(6,0,o),
(10,-4,q),
(24,-3,o),
(128,4,o),
(155,4,qs),
(181,4,o),
(287,-4,o),
(294,-4,q),
(296,2,o),
(296,14,qs),
(296,33,o),
(292,33,qs),
(283,33,o),
(232,51,o),
(230,58,qs),
(222,89,o),
(222,141,qs),
(222,359,ls),
(222,406,o),
(226,451,o),
(229,457,o),
(234,460,qs),
(242,465,o),
(280,465,qs),
(372,465,o),
(372,328,qs),
(372,192,o),
(288,192,qs),
(256,192,o),
(243,200,q),
(238,200,o),
(240,168,o),
(244,162,qs),
(246,159,o),
(262,150,o),
(294,140,o),
(310,140,qs),
(399,140,o),
(524,258,o),
(524,339,qs),
(524,387,o),
(477,462,o),
(404,501,o),
(330,520,o),
(296,520,qs),
(281,520,o),
(247,516,o),
(236,514,qs),
(226,512,l),
(222,512,o),
(222,516,qs),
(222,521,ls),
(222,574,o),
(229,601,qs),
(231,608,o),
(285,625,o),
(294,625,qs),
(298,625,o),
(298,644,qs),
(298,653,o),
(295,662,q),
(175,656,o),
(155,656,qs),
(148,656,o)
);
}
);
width = 572;
}
);
note = Thorn;
unicode = 222;
},
{
glyphname = Q;
lastChange = "2021-12-15 14:24:36 +0000";
layers = (
{
layerId = m01;
shapes = (
{
closed = 1;
nodes = (
(588,434,o),
(588,309,qs),
(588,200,o),
(475,33,o),
(379,33,qs),
(269,33,o),
(139,225,o),
(139,350,qs),
(139,458,o),
(253,625,o),
(348,625,qs),
(458,625,o)
);
},
{
closed = 1;
nodes = (
(581,-64,o),
(486,-8,o),
(459,5,q),
(536,20,o),
(683,200,o),
(683,328,qs),
(683,468,o),
(495,667,o),
(231,667,o),
(44,468,o),
(44,328,qs),
(44,262,o),
(91,143,o),
(165,63,o),
(241,11,o),
(277,0,qs),
(318,-13,o),
(443,-84,o),
(556,-136,o),
(604,-136,qs),
(706,-136,o),
(772,-101,q),
(772,-96,ls),
(772,-76,o),
(760,-76,qs),
(758,-76,o),
(740,-80,o),
(710,-84,o),
(692,-84,qs),
(645,-84,o)
);
}
);
width = 724;
},
{
layerId = "5D05F7D8-7336-4C54-9046-4D1B683AB1D3";
shapes = (
{
closed = 1;
nodes = (
(466,560,o),
(515,470,o),
(539,366,o),
(539,309,qs),
(539,199,o),
(445,42,o),
(360,42,qs),
(290,42,o),
(191,140,o),
(149,276,o),
(149,350,qs),
(149,459,o),
(242,614,o),
(328,614,qs),
(382,614,o)
);
},
{
closed = 1;
nodes = (
(570,-64,o),
(534,-46,o),
(466,-8,o),
(440,5,q),
(474,12,o),
(549,62,o),
(618,142,o),
(664,261,o),
(664,328,qs),
(664,420,o),
(578,576,o),
(430,667,o),
(257,667,o),
(110,576,o),
(24,420,o),
(24,328,qs),
(24,262,o),
(72,143,o),
(145,63,o),
(222,11,o),
(258,0,qs),
(292,-11,o),
(380,-60,o),
(446,-105,o),
(531,-140,o),
(568,-140,qs),
(667,-140,o),
(751,-95,q),
(751,-90,ls),
(751,-70,o),
(739,-70,qs),
(737,-70,o),
(717,-74,o),
(685,-79,o),
(667,-79,qs),
(630,-79,o)
);
}
);
width = 744;
},
{
layerId = "868F064F-B1BF-49D1-B6CA-957F77525378";
shapes = (
{
closed = 1;
nodes = (
(455,550,o),
(493,460,o),
(510,364,o),
(510,309,qs),
(510,198,o),
(435,51,o),
(360,51,qs),
(311,51,o),
(237,108,o),
(198,201,o),
(179,300,o),
(179,350,qs),
(179,461,o),
(251,603,o),
(329,603,qs),
(381,603,o)
);
},
{
closed = 1;
nodes = (
(566,-61,o),
(533,-45,o),
(466,-7,o),
(440,5,q),
(517,20,o),
(664,200,o),
(664,328,qs),
(664,468,o),
(476,667,o),
(212,667,o),
(25,468,o),
(25,328,qs),
(25,262,o),
(72,143,o),
(146,63,o),
(222,11,o),
(258,0,qs),
(300,-13,o),
(407,-87,o),
(505,-143,o),
(553,-143,qs),
(597,-143,o),
(707,-112,o),
(750,-89,q),
(750,-84,ls),
(750,-64,o),
(738,-64,qs),
(736,-64,o),
(714,-69,o),
(680,-74,o),
(662,-74,qs),
(625,-74,o)
);
}
);
width = 775;
}
);
note = Q;
unicode = 81;
},
{
glyphname = R;
lastChange = "2021-12-15 14:24:36 +0000";
layers = (
{
layerId = m01;
shapes = (
{
closed = 1;
nodes = (
(427,477,qs),
(427,419,o),
(352,349,o),
(317,349,qs),
(292,349,ls),
(205,349,o),
(205,378,qs),
(205,499,ls),
(205,548,o),
(208,595,o),
(213,608,o),
(217,609,qs),
(242,616,o),
(287,616,qs),
(427,616,o)
);
},
{
closed = 1;
nodes = (
(192,656,o),
(162,656,qs),
(42,658,l),
(38,654,o),
(38,641,qs),
(38,629,o),
(42,629,qs),
(55,629,o),
(108,615,o),
(111,607,qs),
(118,580,o),
(118,521,qs),
(118,143,ls),
(118,61,o),
(111,49,qs),
(106,40,o),
(56,28,o),
(42,28,qs),
(39,28,o),
(39,15,qs),
(39,0,o),
(42,-3,q),
(164,2,ls),
(194,2,o),
(294,-3,q),
(296,3,o),
(296,12,qs),
(296,26,o),
(292,26,qs),
(279,26,o),
(218,42,o),
(213,55,qs),
(205,75,o),
(205,142,qs),
(205,289,ls),
(205,297,o),
(213,305,o),
(221,306,o),
(229,306,qs),
(255,306,o),
(266,302,qs),
(277,297,o),
(296,281,o),
(321,249,o),
(340,222,o),
(381,161,o),
(397,139,qs),
(500,-5,o),
(640,-5,qs),
(656,-5,o),
(667,-2,q),
(670,4,o),
(670,13,qs),
(670,21,o),
(667,27,q),
(607,27,o),
(511,132,qs),
(446,203,o),
(396,308,q),
(392,314,o),
(402,318,qs),
(456,343,o),
(519,435,o),
(519,477,qs),
(519,526,o),
(475,600,o),
(407,640,o),
(337,660,o),
(303,660,qs),
(274,660,o)
);
}
);
width = 660;
},
{
layerId = "5D05F7D8-7336-4C54-9046-4D1B683AB1D3";
shapes = (
{
closed = 1;
nodes = (
(404,474,qs),
(404,418,o),
(345,348,o),
(308,348,qs),
(282,348,ls),
(252,348,o),
(218,362,o),
(218,384,qs),
(218,499,ls),
(219,598,o),
(230,603,qs),
(246,610,o),
(288,610,qs),
(404,610,o)
);
},
{
closed = 1;
nodes = (
(191,658,o),
(163,658,qs),
(136,658,o),
(30,661,q),
(26,658,o),
(26,643,qs),
(26,628,o),
(30,628,qs),
(42,628,o),
(95,611,o),
(98,603,q),
(104,578,o),
(104,521,qs),
(104,143,ls),
(104,70,o),
(98,52,qs),
(94,43,o),
(43,30,o),
(30,30,qs),
(27,30,o),
(27,14,qs),
(27,0,o),
(30,-4,q),
(50,-2,ls),
(70,-1,o),
(137,2,o),
(164,2,qs),
(196,2,o),
(306,-4,q),
(308,2,o),
(308,13,qs),
(308,30,o),
(304,30,qs),
(290,30,o),
(229,45,o),
(226,57,qs),
(218,82,o),
(218,142,qs),
(218,283,ls),
(218,300,o),
(234,300,qs),
(252,300,o),
(258,297,qs),
(266,294,o),
(283,278,o),
(307,246,o),
(326,217,o),
(362,163,o),
(376,143,qs),
(398,109,o),
(438,65,o),
(499,18,o),
(582,-6,o),
(633,-6,qs),
(652,-6,o),
(664,-4,q),
(668,4,o),
(668,14,qs),
(668,24,o),
(664,30,q),
(630,30,o),
(549,91,o),
(514,134,qs),
(458,203,o),
(402,304,qs),
(398,311,o),
(406,314,qs),
(456,334,o),
(526,430,o),
(526,484,qs),
(526,523,o),
(496,585,o),
(448,623,o),
(387,649,o),
(330,660,o),
(304,660,qs),
(274,660,o)
);
}
);
width = 685;
},
{
layerId = "868F064F-B1BF-49D1-B6CA-957F77525378";
shapes = (
{
closed = 1;
nodes = (
(394,472,qs),
(394,416,o),
(351,348,o),
(312,348,qs),
(285,348,ls),
(276,348,o),
(264,350,o),
(250,358,o),
(243,376,o),
(243,391,qs),
(243,499,ls),
(244,589,o),
(266,605,o),
(301,605,qs),
(394,605,o)
);
},
{
closed = 1;
nodes = (
(203,659,o),
(176,659,qs),
(121,659,o),
(29,664,q),
(26,661,o),
(26,645,qs),
(26,627,o),
(30,627,qs),
(41,627,o),
(94,607,o),
(97,599,qs),
(103,576,o),
(103,521,qs),
(103,143,ls),
(103,78,o),
(97,55,qs),
(94,47,o),
(43,33,o),
(31,33,qs),
(27,33,o),
(27,13,qs),
(27,0,o),
(31,-4,q),
(177,2,ls),
(210,2,o),
(330,-4,q),
(332,2,o),
(332,14,qs),
(332,33,o),
(328,33,qs),
(313,33,o),
(253,47,o),
(250,59,qs),
(243,90,o),
(243,141,qs),
(243,277,ls),
(243,293,o),
(252,293,qs),
(260,293,o),
(263,292,qs),
(268,290,o),
(283,274,o),
(305,242,o),
(324,213,o),
(356,163,o),
(366,147,qs),
(386,116,o),
(410,84,o),
(459,36,o),
(508,12,o),
(589,-7,o),
(638,-7,qs),
(659,-7,o),
(673,-5,q),
(677,4,o),
(677,15,qs),
(677,28,o),
(673,33,q),
(635,33,o),
(554,98,o),
(529,135,qs),
(516,154,o),
(473,213,o),
(442,262,o),
(420,299,qs),
(415,307,o),
(423,310,qs),
(468,325,o),
(546,425,o),
(546,492,qs),
(546,538,o),
(498,607,o),
(424,643,o),
(350,660,o),
(316,660,qs),
(286,660,o)
);
}
);
width = 709;
}
);
note = R;
unicode = 82;
},
{
glyphname = S;
lastChange = "2021-12-15 14:24:36 +0000";
layers = (
{
layerId = m01;
shapes = (
{
closed = 1;
nodes = (
(74,422,o),
(106,383,o),
(130,356,o),
(183,321,o),
(206,307,o),
(235,290,qs),
(244,285,o),
(292,259,o),
(310,247,o),
(343,222,o),
(356,200,o),
(368,166,o),
(368,146,qs),
(368,91,o),
(298,31,o),
(248,31,qs),
(116,31,o),
(82,175,q),
(75,184,o),
(57,184,qs),
(41,184,o),
(41,178,qs),
(41,142,o),
(66,19,q),
(77,17,o),
(132,4,o),
(168,-3,o),
(222,-10,o),
(246,-10,qs),
(330,-10,o),
(455,93,o),
(455,173,qs),
(455,197,o),
(436,242,o),
(415,272,o),
(368,311,o),
(346,326,o),
(286,363,o),
(281,366,qs),
(274,370,o),
(223,402,o),
(206,414,o),
(169,444,o),
(155,467,o),
(141,502,o),
(141,521,qs),
(141,565,o),
(190,625,o),
(250,625,qs),
(304,625,o),
(379,542,o),
(384,498,qs),
(386,488,o),
(410,488,qs),
(420,488,o),
(420,495,qs),
(420,585,o),
(408,638,q),
(390,642,o),
(343,655,o),
(318,661,o),
(279,666,o),
(257,666,qs),
(179,666,o),
(61,567,o),
(61,490,qs),
(61,466,o)
);
}
);
width = 491;
},
{
layerId = "5D05F7D8-7336-4C54-9046-4D1B683AB1D3";
shapes = (
{
closed = 1;
nodes = (
(57,411,o),
(81,377,o),
(128,338,o),
(158,318,o),
(187,300,qs),
(195,295,o),
(198,292,q),
(207,287,o),
(250,262,o),
(272,248,o),
(305,222,o),
(322,200,o),
(335,168,o),
(335,151,qs),
(335,95,o),
(273,39,o),
(226,39,qs),
(189,39,o),
(130,70,o),
(95,119,o),
(75,162,o),
(71,180,q),
(68,188,o),
(42,188,qs),
(27,188,o),
(26,180,qs),
(26,163,o),
(41,54,o),
(50,18,q),
(174,-10,o),
(234,-10,qs),
(319,-10,o),
(448,94,o),
(448,174,qs),
(448,202,o),
(432,251,o),
(413,283,o),
(371,319,o),
(349,334,o),
(294,367,o),
(288,372,q),
(283,374,o),
(236,403,o),
(223,413,o),
(186,439,o),
(173,456,o),
(152,482,o),
(145,509,o),
(145,524,qs),
(145,568,o),
(194,620,o),
(240,620,qs),
(293,620,o),
(367,532,o),
(373,486,qs),
(375,477,o),
(402,477,qs),
(412,477,o),
(414,486,q),
(414,572,o),
(402,640,q),
(388,643,o),
(313,662,o),
(271,668,o),
(243,668,qs),
(164,668,o),
(38,565,o),
(38,490,qs),
(38,461,o)
);
}
);
width = 474;
},
{
layerId = "868F064F-B1BF-49D1-B6CA-957F77525378";
shapes = (
{
closed = 1;
nodes = (
(50,399,o),
(95,353,o),
(129,327,o),
(162,305,qs),
(172,298,o),
(177,295,qs),
(184,290,o),
(235,258,o),
(263,238,o),
(299,206,o),
(317,173,o),
(317,156,qs),
(317,47,o),
(218,47,qs),
(167,47,o),
(83,140,o),
(75,186,qs),
(74,192,o),
(43,192,qs),
(28,192,o),
(25,182,q),
(25,159,o),
(40,48,o),
(48,16,q),
(159,-10,o),
(238,-10,qs),
(324,-10,o),
(456,95,o),
(456,175,qs),
(456,207,o),
(442,260,o),
(425,293,o),
(388,327,o),
(367,342,o),
(317,372,o),
(309,377,qs),
(304,380,o),
(295,386,qs),
(261,408,o),
(231,428,o),
(184,468,o),
(164,506,o),
(164,526,qs),
(164,572,o),
(211,614,o),
(245,614,qs),
(298,614,o),
(370,523,o),
(377,473,q),
(379,466,o),
(408,466,qs),
(419,466,o),
(423,476,q),
(423,545,o),
(412,642,q),
(396,645,o),
(341,658,o),
(310,664,o),
(265,670,o),
(244,670,qs),
(164,670,o),
(31,564,o),
(31,489,qs),
(31,454,o)
);
}
);
width = 483;
}
);
note = S;
unicode = 83;
},
{
glyphname = Scommaaccent;
lastChange = "2021-12-15 14:24:37 +0000";
layers = (
{
layerId = m01;
shapes = (
{
closed = 1;
nodes = (
(223,-148,o),
(223,-161,qs),
(223,-175,o),
(200,-198,qs),
(177,-220,l),
(177,-227,o),
(197,-227,qs),
(203,-227,o),
(205,-225,q),
(287,-179,o),
(287,-99,qs),
(287,-86,o),
(274,-53,o),
(265,-46,q),
(224,-46,o),
(186,-79,o),
(186,-101,qs),
(186,-116,o)
);
},
{
closed = 1;
nodes = (
(59,422,o),
(91,383,o),
(115,356,o),
(168,321,o),
(191,307,o),
(220,290,qs),
(229,285,o),
(277,259,o),
(295,247,o),
(328,222,o),
(341,200,o),
(353,166,o),
(353,146,qs),
(353,91,o),
(283,31,o),
(233,31,qs),
(101,31,o),
(67,175,q),
(60,184,o),
(42,184,qs),
(26,184,o),
(26,178,qs),
(26,142,o),
(51,19,q),
(62,17,o),
(117,4,o),
(153,-3,o),
(207,-10,o),
(231,-10,qs),
(315,-10,o),
(440,93,o),
(440,173,qs),
(440,197,o),
(421,242,o),
(400,272,o),
(353,311,o),
(331,326,o),
(271,363,o),
(266,366,qs),
(259,370,o),
(208,402,o),
(191,414,o),
(154,444,o),
(140,467,o),
(126,502,o),
(126,521,qs),
(126,565,o),
(175,625,o),
(235,625,qs),
(289,625,o),
(364,542,o),
(369,498,qs),
(371,488,o),
(395,488,qs),
(405,488,o),
(405,495,qs),
(405,585,o),
(393,638,q),
(375,642,o),
(328,655,o),
(303,661,o),
(264,666,o),
(242,666,qs),
(164,666,o),
(46,567,o),
(46,490,qs),
(46,466,o)
);
}
);
width = 468;
},
{
layerId = "5D05F7D8-7336-4C54-9046-4D1B683AB1D3";
shapes = (
{
ref = commaaccentcomb;
},
{
pos = (192,0);
ref = S;
}
);
width = 666;
},
{
layerId = "868F064F-B1BF-49D1-B6CA-957F77525378";
shapes = (
{
ref = commaaccentcomb;
},
{
pos = (170,0);
ref = S;
}
);
width = 653;
}
);
note = Scommaaccent;
unicode = 536;
},
{
glyphname = T;
lastChange = "2021-12-15 14:24:36 +0000";
layers = (
{
layerId = m01;
shapes = (
{
closed = 1;
nodes = (
(116,660,qs),
(91,660,o),
(47,671,q),
(28,528,l),
(35,521,o),
(52,521,qs),
(61,521,o),
(62,526,qs),
(76,582,o),
(117,615,o),
(174,615,qs),
(274,615,o),
(282,600,qs),
(291,584,o),
(291,497,qs),
(291,135,ls),
(291,73,o),
(284,46,qs),
(281,38,o),
(230,26,o),
(217,26,qs),
(213,26,o),
(213,12,qs),
(213,1,o),
(217,-3,q),
(332,2,o),
(337,2,qs),
(353,2,o),
(453,-3,q),
(455,3,o),
(455,11,qs),
(455,26,o),
(451,26,qs),
(441,26,o),
(389,39,o),
(387,46,qs),
(378,81,o),
(378,139,qs),
(378,500,ls),
(378,568,o),
(387,600,qs),
(391,615,o),
(497,615,qs),
(554,615,o),
(595,582,o),
(609,526,qs),
(610,521,o),
(619,521,qs),
(636,521,o),
(643,528,q),
(624,671,l),
(580,660,o),
(555,660,qs),
(517,660,o),
(379,656,o),
(291,656,o),
(154,660,o)
);
}
);
width = 669;
},
{
layerId = "5D05F7D8-7336-4C54-9046-4D1B683AB1D3";
shapes = (
{
closed = 1;
nodes = (
(112,662,qs),
(87,662,o),
(43,672,q),
(24,520,l),
(31,512,o),
(50,512,qs),
(59,512,o),
(60,518,qs),
(75,572,o),
(121,611,o),
(170,611,qs),
(257,611,o),
(265,594,q),
(274,580,o),
(274,497,qs),
(274,135,ls),
(274,79,o),
(266,52,qs),
(263,44,o),
(212,30,o),
(200,30,qs),
(196,30,o),
(196,12,qs),
(196,0,o),
(200,-4,q),
(211,-3,o),
(306,3,o),
(333,3,qs),
(353,3,o),
(396,1,o),
(447,-3,o),
(460,-4,q),
(462,2,o),
(462,12,qs),
(462,30,o),
(458,30,qs),
(449,30,o),
(397,45,o),
(396,52,q),
(387,85,o),
(387,139,qs),
(387,500,ls),
(387,565,o),
(396,594,qs),
(400,611,o),
(493,611,qs),
(542,611,o),
(588,572,o),
(602,517,q),
(604,512,o),
(612,512,qs),
(632,512,o),
(639,519,q),
(620,672,l),
(576,662,o),
(551,662,qs),
(510,661,o),
(374,656,o),
(288,656,o),
(153,661,o)
);
}
);
width = 664;
},
{
layerId = "868F064F-B1BF-49D1-B6CA-957F77525378";
shapes = (
{
closed = 1;
nodes = (
(112,663,qs),
(87,663,o),
(43,674,q),
(24,511,l),
(31,504,o),
(53,504,qs),
(62,504,o),
(63,509,qs),
(77,562,o),
(129,607,o),
(170,607,qs),
(206,607,o),
(244,600,o),
(249,595,o),
(252,589,qs),
(260,575,o),
(260,497,qs),
(260,135,ls),
(260,85,o),
(253,58,qs),
(250,50,o),
(198,33,o),
(187,33,qs),
(184,33,o),
(184,12,qs),
(184,0,o),
(188,-4,q),
(202,-3,o),
(306,4,o),
(333,4,qs),
(359,4,o),
(465,-4,o),
(472,-4,q),
(474,2,o),
(474,14,qs),
(474,33,o),
(470,33,qs),
(461,33,o),
(410,51,o),
(408,58,qs),
(400,89,o),
(400,139,qs),
(400,500,ls),
(400,561,o),
(408,589,qs),
(412,607,o),
(493,607,qs),
(575,607,o),
(600,508,qs),
(601,503,o),
(610,503,qs),
(632,503,o),
(639,510,q),
(620,674,l),
(576,663,o),
(551,663,qs),
(509,663,o),
(373,657,o),
(289,657,o),
(154,663,o)
);
}
);
width = 665;
}
);
note = T;
unicode = 84;
},
{
glyphname = Tbar;
lastChange = "2021-12-15 14:24:36 +0000";
layers = (
{
layerId = m01;
shapes = (
{
closed = 1;
nodes = (
(173,321,qs),
(173,308,o),
(178,308,qs),
(523,308,o),
(523,308,q),
(529,322,o),
(529,338,qs),
(529,348,o),
(523,348,qs),
(179,348,o),
(179,348,q),
(173,339,o)
);
},
{
closed = 1;
nodes = (
(131,660,qs),
(106,660,o),
(62,671,q),
(43,528,l),
(50,521,o),
(67,521,qs),
(76,521,o),
(77,526,qs),
(91,582,o),
(132,615,o),
(189,615,qs),
(290,615,o),
(297,600,qs),
(306,584,o),
(306,497,qs),
(306,135,ls),
(306,73,o),
(299,46,qs),
(296,38,o),
(245,26,o),
(232,26,qs),
(228,26,o),
(228,12,qs),
(228,1,o),
(232,-3,q),
(347,2,o),
(352,2,qs),
(368,2,o),
(468,-3,q),
(470,3,o),
(470,11,qs),
(470,26,o),
(466,26,qs),
(456,26,o),
(404,39,o),
(402,46,qs),
(393,81,o),
(393,139,qs),
(393,500,ls),
(393,568,o),
(402,600,qs),
(406,615,o),
(512,615,qs),
(569,615,o),
(610,582,o),
(624,526,qs),
(625,521,o),
(634,521,qs),
(651,521,o),
(658,528,q),
(639,671,l),
(595,660,o),
(570,660,qs),
(532,660,o),
(394,656,o),
(306,656,o),
(169,660,o)
);
}
);
width = 701;
},
{
layerId = "5D05F7D8-7336-4C54-9046-4D1B683AB1D3";
shapes = (
{
closed = 1;
nodes = (
(153,323,qs),
(153,309,o),
(158,309,qs),
(504,309,l),
(510,322,o),
(510,339,qs),
(510,351,o),
(504,351,qs),
(159,351,l),
(153,342,o)
);
},
{
closed = 1;
nodes = (
(110,661,qs),
(85,661,o),
(41,672,q),
(22,520,l),
(30,512,o),
(48,512,qs),
(56,512,o),
(58,518,qs),
(72,573,o),
(119,611,o),
(168,611,qs),
(254,611,o),
(263,594,qs),
(272,578,o),
(272,497,qs),
(272,135,ls),
(272,83,o),
(264,52,qs),
(261,44,o),
(210,29,o),
(198,29,qs),
(194,29,o),
(194,12,qs),
(194,0,o),
(198,-4,q),
(211,-3,o),
(304,3,o),
(331,3,qs),
(357,3,o),
(452,-4,o),
(458,-4,q),
(460,2,o),
(460,12,qs),
(460,29,o),
(456,29,qs),
(447,29,o),
(396,45,o),
(394,52,qs),
(386,83,o),
(386,139,qs),
(386,500,ls),
(386,566,o),
(394,594,qs),
(398,611,o),
(491,611,qs),
(540,611,o),
(586,572,o),
(600,517,qs),
(601,512,o),
(610,512,qs),
(629,512,o),
(636,519,q),
(618,672,l),
(574,661,o),
(549,661,qs),
(508,661,o),
(372,656,o),
(286,656,o),
(151,661,o)
);
}
);
width = 656;
},
{
layerId = "868F064F-B1BF-49D1-B6CA-957F77525378";
shapes = (
{
closed = 1;
nodes = (
(112,663,qs),
(87,663,o),
(43,674,q),
(24,511,l),
(31,504,o),
(53,504,qs),
(62,504,o),
(63,509,qs),
(77,562,o),
(129,607,o),
(170,607,qs),
(206,607,o),
(244,600,o),
(249,595,o),
(252,589,qs),
(260,575,o),
(260,497,qs),
(260,135,ls),
(260,85,o),
(253,58,qs),
(250,50,o),
(198,33,o),
(187,33,qs),
(184,33,o),
(184,12,qs),
(184,0,o),
(188,-4,q),
(202,-3,o),
(306,4,o),
(333,4,qs),
(359,4,o),
(465,-4,o),
(472,-4,q),
(474,2,o),
(474,14,qs),
(474,33,o),
(470,33,qs),
(461,33,o),
(410,51,o),
(408,58,qs),
(400,89,o),
(400,139,qs),
(400,500,ls),
(400,561,o),
(408,589,qs),
(412,607,o),
(493,607,qs),
(575,607,o),
(600,508,qs),
(601,503,o),
(610,503,qs),
(632,503,o),
(639,510,q),
(620,674,l),
(576,663,o),
(551,663,qs),
(509,663,o),
(373,657,o),
(289,657,o),
(154,663,o)
);
},
{
closed = 1;
nodes = (
(155,326,qs),
(155,311,o),
(160,311,qs),
(506,311,l),
(512,324,o),
(512,343,qs),
(512,357,o),
(506,357,qs),
(161,357,l),
(155,348,o)
);
}
);
width = 666;
}
);
note = Tbar;
unicode = 358;
},
{
glyphname = Tcommaaccent;
lastChange = "2021-12-15 14:24:37 +0000";
layers = (
{
layerId = m01;
shapes = (
{
closed = 1;
nodes = (
(325,-148,o),
(325,-161,qs),
(325,-175,o),
(302,-198,qs),
(279,-220,l),
(279,-227,o),
(299,-227,qs),
(305,-227,o),
(307,-225,q),
(389,-179,o),
(389,-99,qs),
(389,-86,o),
(376,-53,o),
(367,-46,q),
(326,-46,o),
(288,-79,o),
(288,-101,qs),
(288,-116,o)
);
},
{
closed = 1;
nodes = (
(282,46,qs),
(279,38,o),
(228,26,o),
(215,26,qs),
(211,26,o),
(211,12,qs),
(211,1,o),
(215,-3,q),
(330,2,o),
(335,2,qs),
(351,2,o),
(451,-3,q),
(453,3,o),
(453,11,qs),
(453,26,o),
(449,26,qs),
(439,26,o),
(387,39,o),
(385,46,qs),
(376,81,o),
(376,139,qs),
(376,500,ls),
(376,568,o),
(385,600,qs),
(389,615,o),
(495,615,qs),
(552,615,o),
(593,582,o),
(607,526,qs),
(608,521,o),
(617,521,qs),
(634,521,o),
(641,528,q),
(622,671,l),
(578,660,o),
(553,660,qs),
(515,660,o),
(377,656,o),
(289,656,o),
(152,660,o),
(114,660,qs),
(89,660,o),
(45,671,q),
(26,528,l),
(33,521,o),
(50,521,qs),
(59,521,o),
(60,526,qs),
(74,582,o),
(115,615,o),
(172,615,qs),
(272,615,o),
(280,600,qs),
(289,584,o),
(289,497,qs),
(289,135,ls),
(289,73,o)
);
}
);
width = 669;
},
{
layerId = "5D05F7D8-7336-4C54-9046-4D1B683AB1D3";
shapes = (
{
ref = commaaccentcomb;
},
{
pos = (192,0);
ref = T;
}
);
width = 856;
},
{
layerId = "868F064F-B1BF-49D1-B6CA-957F77525378";
shapes = (
{
ref = commaaccentcomb;
},
{
pos = (170,0);
ref = T;
}
);
width = 835;
}
);
note = uni021A;
unicode = 538;
},
{
glyphname = U;
lastChange = "2021-12-15 14:24:36 +0000";
layers = (
{
layerId = m01;
shapes = (
{
closed = 1;
nodes = (
(37,662,q),
(33,658,o),
(33,646,qs),
(33,633,o),
(37,633,qs),
(50,633,o),
(101,620,o),
(104,612,qs),
(111,585,o),
(111,523,qs),
(111,296,ls),
(111,140,o),
(239,0,o),
(358,0,qs),
(478,0,o),
(608,121,o),
(608,276,qs),
(608,519,ls),
(608,581,o),
(616,612,qs),
(618,619,o),
(685,635,o),
(695,635,qs),
(699,635,o),
(699,647,qs),
(699,656,o),
(697,662,q),
(690,662,o),
(611,656,o),
(585,656,qs),
(558,656,o),
(480,661,o),
(467,662,q),
(463,658,o),
(463,635,o),
(467,635,qs),
(480,635,o),
(543,620,o),
(546,612,qs),
(553,585,o),
(553,524,qs),
(553,274,ls),
(553,49,o),
(382,49,qs),
(294,49,o),
(198,183,o),
(198,296,qs),
(198,519,ls),
(198,577,o),
(207,612,qs),
(209,619,o),
(261,633,o),
(271,633,qs),
(275,633,o),
(275,648,qs),
(275,656,o),
(273,662,q),
(173,657,o),
(157,657,qs),
(152,657,o)
);
}
);
width = 719;
},
{
layerId = "5D05F7D8-7336-4C54-9046-4D1B683AB1D3";
shapes = (
{
closed = 1;
nodes = (
(27,662,q),
(24,659,o),
(24,629,o),
(28,629,qs),
(40,629,o),
(88,614,o),
(92,606,qs),
(100,586,o),
(100,522,qs),
(100,304,ls),
(100,143,o),
(238,-2,o),
(358,-2,qs),
(415,-2,o),
(504,28,o),
(574,93,o),
(612,206,o),
(612,284,qs),
(612,519,ls),
(612,577,o),
(623,602,q),
(632,615,o),
(690,630,o),
(704,630,qs),
(708,630,o),
(708,646,qs),
(708,655,o),
(706,662,q),
(696,662,o),
(613,655,o),
(588,655,qs),
(570,655,o),
(462,662,q),
(459,658,o),
(460,630,o),
(464,630,qs),
(477,630,o),
(536,613,o),
(542,604,qs),
(552,585,o),
(552,524,qs),
(552,280,ls),
(552,163,o),
(459,62,o),
(382,62,qs),
(303,62,o),
(214,185,o),
(214,288,qs),
(214,518,ls),
(214,576,o),
(222,606,q),
(223,614,o),
(277,629,o),
(286,629,qs),
(290,629,o),
(290,646,qs),
(290,654,o),
(288,662,q),
(178,656,o),
(160,656,qs),
(154,656,o)
);
}
);
width = 733;
},
{
layerId = "868F064F-B1BF-49D1-B6CA-957F77525378";
shapes = (
{
closed = 1;
nodes = (
(26,662,q),
(24,660,o),
(24,642,qs),
(24,625,o),
(28,625,qs),
(39,625,o),
(85,608,o),
(90,600,qs),
(98,586,o),
(98,522,qs),
(98,311,ls),
(98,147,o),
(246,-5,o),
(368,-5,qs),
(482,-5,o),
(625,145,o),
(625,291,qs),
(625,519,ls),
(625,575,o),
(639,592,qs),
(667,625,o),
(722,625,qs),
(727,625,o),
(727,644,qs),
(727,654,o),
(723,662,q),
(711,661,o),
(624,654,o),
(599,654,qs),
(559,654,o),
(467,662,q),
(464,658,o),
(466,625,o),
(470,625,qs),
(482,625,o),
(539,607,o),
(548,596,qs),
(561,581,o),
(561,524,qs),
(561,286,ls),
(561,172,o),
(466,75,o),
(392,75,qs),
(321,75,o),
(238,187,o),
(238,279,qs),
(238,516,ls),
(238,574,o),
(245,601,qs),
(247,608,o),
(301,625,o),
(310,625,qs),
(314,625,o),
(314,644,qs),
(314,653,o),
(311,662,q),
(191,656,o),
(171,656,qs),
(164,656,o)
);
}
);
width = 753;
}
);
note = U;
unicode = 85;
},
{
glyphname = Uhorn;
lastChange = "2021-12-15 14:24:36 +0000";
layers = (
{
layerId = m01;
shapes = (
{
closed = 1;
nodes = (
(475,661,o),
(460,662,q),
(456,658,o),
(456,635,o),
(460,635,qs),
(473,635,o),
(536,620,o),
(539,612,qs),
(546,590,o),
(546,524,qs),
(546,274,ls),
(546,49,o),
(375,49,qs),
(287,49,o),
(191,183,o),
(191,296,qs),
(191,519,ls),
(191,577,o),
(200,612,qs),
(202,619,o),
(254,633,o),
(264,633,qs),
(268,633,o),
(268,648,qs),
(268,656,o),
(266,662,q),
(166,657,o),
(150,657,qs),
(145,657,o),
(30,662,q),
(26,658,o),
(26,646,qs),
(26,633,o),
(30,633,qs),
(43,633,o),
(94,620,o),
(97,612,qs),
(104,585,o),
(104,523,qs),
(104,296,ls),
(104,140,o),
(232,0,o),
(351,0,qs),
(471,0,o),
(601,121,o),
(601,276,qs),
(601,519,ls),
(601,571,o),
(609,601,qs),
(613,616,o),
(628,620,qs),
(746,648,o),
(746,705,qs),
(746,732,o),
(734,749,q),
(708,749,o),
(657,734,o),
(657,716,qs),
(657,704,o),
(673,686,o),
(673,679,qs),
(673,656,o),
(578,656,qs),
(556,656,o)
);
}
);
width = 751;
},
{
layerId = "5D05F7D8-7336-4C54-9046-4D1B683AB1D3";
width = 600;
},
{
layerId = "868F064F-B1BF-49D1-B6CA-957F77525378";
shapes = (
{
closed = 1;
nodes = (
(716,669,o),
(650,654,o),
(599,654,qs),
(559,654,o),
(467,662,q),
(464,658,o),
(466,625,o),
(470,625,qs),
(482,625,o),
(539,607,o),
(548,596,qs),
(561,581,o),
(561,524,qs),
(561,286,ls),
(561,172,o),
(466,75,o),
(392,75,qs),
(321,75,o),
(238,187,o),
(238,279,qs),
(238,516,ls),
(238,574,o),
(245,601,qs),
(247,608,o),
(301,625,o),
(310,625,qs),
(314,625,o),
(314,644,qs),
(314,653,o),
(311,662,q),
(191,656,o),
(171,656,qs),
(164,656,o),
(26,662,q),
(24,660,o),
(24,642,qs),
(24,625,o),
(28,625,qs),
(39,625,o),
(85,608,o),
(90,600,qs),
(98,586,o),
(98,522,qs),
(98,311,ls),
(98,147,o),
(246,-5,o),
(368,-5,qs),
(482,-5,o),
(625,145,o),
(625,291,qs),
(625,519,ls),
(625,575,o),
(639,592,qs),
(655,612,o),
(692,621,qs),
(721,628,o),
(776,651,o),
(827,696,o),
(827,722,qs),
(827,742,o),
(815,783,o),
(808,790,q),
(714,790,o),
(714,744,qs),
(714,731,o),
(736,698,o),
(736,692,qs),
(736,684,o)
);
}
);
width = 710;
}
);
note = Uhorn;
unicode = 431;
},
{
glyphname = Uogonek;
lastChange = "2021-12-15 14:24:36 +0000";
layers = (
{
layerId = m01;
shapes = (
{
closed = 1;
nodes = (
(47,662,q),
(43,658,o),
(43,646,qs),
(43,633,o),
(47,633,qs),
(60,633,o),
(111,620,o),
(114,612,qs),
(121,585,o),
(121,523,qs),
(121,296,ls),
(121,140,o),
(249,0,o),
(368,0,qs),
(396,0,o),
(421,3,q),
(384,-18,o),
(318,-107,o),
(318,-147,qs),
(318,-174,o),
(352,-224,o),
(389,-224,qs),
(443,-224,o),
(494,-157,qs),
(499,-150,o),
(499,-140,qs),
(499,-127,o),
(494,-127,qs),
(493,-127,o),
(473,-146,o),
(436,-165,o),
(390,-165,o),
(372,-138,o),
(372,-122,qs),
(372,-95,o),
(420,-35,o),
(467,1,o),
(508,28,qs),
(566,67,o),
(618,175,o),
(618,276,qs),
(618,519,ls),
(618,581,o),
(626,612,qs),
(628,619,o),
(695,635,o),
(705,635,qs),
(709,635,o),
(709,647,qs),
(709,656,o),
(707,662,q),
(700,662,o),
(621,656,o),
(595,656,qs),
(568,656,o),
(490,661,o),
(477,662,q),
(473,658,o),
(473,635,o),
(477,635,qs),
(490,635,o),
(553,620,o),
(556,612,qs),
(563,585,o),
(563,524,qs),
(563,274,ls),
(563,49,o),
(392,49,qs),
(304,49,o),
(208,183,o),
(208,296,qs),
(208,519,ls),
(208,577,o),
(217,612,qs),
(219,619,o),
(271,633,o),
(281,633,qs),
(285,633,o),
(285,648,qs),
(285,656,o),
(283,662,q),
(183,657,o),
(167,657,qs),
(162,657,o)
);
}
);
width = 757;
},
{
layerId = "5D05F7D8-7336-4C54-9046-4D1B683AB1D3";
shapes = (
{
closed = 1;
nodes = (
(19,662,o),
(14,662,q),
(12,660,o),
(12,644,qs),
(12,629,o),
(16,629,qs),
(28,629,o),
(76,614,o),
(80,606,q),
(88,582,o),
(88,522,qs),
(88,304,ls),
(88,-2,o),
(346,-2,qs),
(380,-2,o),
(404,2,q),
(367,-21,o),
(308,-107,o),
(308,-144,qs),
(308,-175,o),
(352,-221,o),
(384,-221,qs),
(417,-221,o),
(480,-177,o),
(498,-153,qs),
(504,-145,o),
(504,-134,qs),
(504,-118,o),
(499,-118,q),
(498,-119,o),
(478,-133,o),
(461,-144,o),
(432,-154,o),
(418,-154,qs),
(398,-154,o),
(378,-131,o),
(378,-116,qs),
(378,-81,o),
(446,2,o),
(492,34,qs),
(547,72,o),
(600,189,o),
(600,284,qs),
(600,519,ls),
(600,577,o),
(610,602,q),
(619,615,o),
(678,630,o),
(692,630,qs),
(696,630,o),
(696,646,qs),
(696,656,o),
(693,662,q),
(683,662,o),
(601,655,o),
(575,655,qs),
(557,655,o),
(450,662,q),
(447,658,o),
(448,630,o),
(452,630,qs),
(464,630,o),
(523,613,o),
(530,604,q),
(540,584,o),
(540,524,qs),
(540,280,ls),
(540,62,o),
(370,62,qs),
(290,62,o),
(201,186,o),
(201,288,qs),
(201,518,ls),
(201,575,o),
(209,606,qs),
(211,613,o),
(265,629,o),
(274,629,qs),
(278,629,o),
(278,646,qs),
(278,653,o),
(275,662,q),
(155,656,o),
(147,656,qs),
(120,656,o)
);
}
);
width = 731;
},
{
layerId = "868F064F-B1BF-49D1-B6CA-957F77525378";
shapes = (
{
closed = 1;
nodes = (
(4,662,q),
(2,660,o),
(2,642,qs),
(2,625,o),
(6,625,qs),
(17,625,o),
(63,608,o),
(68,600,qs),
(76,586,o),
(76,522,qs),
(76,311,ls),
(76,147,o),
(224,-5,o),
(346,-5,qs),
(378,-5,o),
(408,1,q),
(373,-24,o),
(321,-107,o),
(321,-140,qs),
(321,-176,o),
(373,-218,o),
(402,-218,qs),
(439,-218,o),
(508,-171,o),
(525,-149,qs),
(531,-141,o),
(531,-127,qs),
(531,-109,o),
(526,-109,q),
(514,-119,o),
(465,-142,o),
(446,-142,qs),
(429,-142,o),
(405,-125,o),
(405,-110,qs),
(405,-78,o),
(462,13,o),
(499,41,qs),
(603,118,o),
(603,291,qs),
(603,519,ls),
(603,575,o),
(617,592,qs),
(645,625,o),
(700,625,qs),
(705,625,o),
(705,644,qs),
(705,654,o),
(701,662,q),
(689,661,o),
(602,654,o),
(577,654,qs),
(537,654,o),
(445,662,q),
(442,658,o),
(444,625,o),
(448,625,qs),
(460,625,o),
(517,607,o),
(526,596,qs),
(539,581,o),
(539,524,qs),
(539,286,ls),
(539,172,o),
(444,75,o),
(370,75,qs),
(299,75,o),
(216,187,o),
(216,279,qs),
(216,516,ls),
(216,574,o),
(223,601,qs),
(225,608,o),
(279,625,o),
(288,625,qs),
(292,625,o),
(292,644,qs),
(292,653,o),
(289,662,q),
(169,656,o),
(149,656,qs),
(142,656,o)
);
}
);
width = 718;
}
);
note = Uogonek;
unicode = 370;
},
{
glyphname = V;
lastChange = "2021-12-15 14:24:36 +0000";
layers = (
{
layerId = m01;
shapes = (
{
closed = 1;
nodes = (
(81,659,o),
(37,661,o),
(21,662,q),
(17,658,o),
(17,646,qs),
(17,633,o),
(21,633,qs),
(34,633,o),
(78,621,o),
(85,610,qs),
(105,580,o),
(130,514,qs),
(335,-3,ls),
(338,-9,o),
(345,-9,qs),
(367,-9,o),
(380,24,qs),
(580,502,ls),
(606,563,o),
(629,605,qs),
(644,633,o),
(689,633,qs),
(693,633,o),
(693,647,qs),
(693,656,o),
(691,662,q),
(591,657,o),
(590,657,qs),
(576,657,o),
(483,662,q),
(479,658,o),
(479,633,o),
(483,633,qs),
(492,633,o),
(521,628,o),
(553,608,o),
(553,594,qs),
(553,573,o),
(534,524,qs),
(384,162,ls),
(382,157,o),
(371,152,o),
(368,157,q),
(352,195,o),
(325,263,qs),
(199,571,o),
(199,600,qs),
(199,613,o),
(227,629,o),
(251,633,o),
(258,633,qs),
(261,633,o),
(262,658,o),
(260,662,q),
(160,657,o),
(136,657,qs),
(116,657,o)
);
}
);
width = 709;
},
{
layerId = "5D05F7D8-7336-4C54-9046-4D1B683AB1D3";
shapes = (
{
closed = 1;
nodes = (
(25,662,o),
(18,662,q),
(15,658,o),
(15,644,qs),
(15,629,o),
(19,629,qs),
(33,629,o),
(81,614,o),
(88,601,qs),
(103,572,o),
(126,512,qs),
(332,0,l),
(338,-10,o),
(348,-10,qs),
(372,-10,o),
(387,26,qs),
(595,513,ls),
(623,577,o),
(638,601,q),
(650,615,o),
(693,630,o),
(706,630,qs),
(708,630,o),
(708,647,qs),
(708,657,o),
(706,662,q),
(691,661,o),
(623,656,o),
(597,656,qs),
(573,656,o),
(495,662,o),
(486,662,q),
(484,658,o),
(483,629,o),
(487,629,qs),
(511,629,o),
(558,610,o),
(558,592,qs),
(558,570,o),
(538,523,qs),
(392,178,l),
(392,176,o),
(366,228,o),
(330,309,o),
(318,340,qs),
(310,357,o),
(298,389,qs),
(222,575,o),
(222,594,qs),
(222,607,o),
(250,624,o),
(276,629,o),
(284,629,qs),
(288,629,o),
(288,658,o),
(285,662,q),
(162,656,o),
(148,656,qs),
(121,656,o)
);
}
);
width = 715;
},
{
layerId = "868F064F-B1BF-49D1-B6CA-957F77525378";
shapes = (
{
closed = 1;
nodes = (
(23,662,o),
(18,662,q),
(16,659,o),
(16,625,o),
(20,625,qs),
(34,625,o),
(87,608,o),
(93,592,qs),
(96,585,o),
(126,510,qs),
(331,3,l),
(340,-10,o),
(354,-10,qs),
(364,-10,o),
(389,10,o),
(397,27,qs),
(613,524,ls),
(643,590,o),
(651,597,qs),
(666,609,o),
(714,626,o),
(725,626,qs),
(727,626,o),
(727,647,qs),
(727,658,o),
(723,662,q),
(704,661,o),
(632,654,o),
(582,654,o),
(507,661,o),
(493,662,q),
(491,656,o),
(491,626,o),
(494,625,q),
(524,625,o),
(565,605,o),
(565,590,qs),
(565,567,o),
(545,522,qs),
(404,193,l),
(270,523,ls),
(247,580,o),
(247,589,qs),
(247,607,o),
(296,625,o),
(313,625,qs),
(317,625,o),
(317,658,o),
(313,662,q),
(169,654,o),
(162,654,qs),
(136,654,o)
);
}
);
width = 729;
}
);
note = V;
unicode = 86;
},
{
glyphname = W;
lastChange = "2021-12-15 14:24:36 +0000";
layers = (
{
layerId = m01;
shapes = (
{
closed = 1;
nodes = (
(20,662,q),
(16,658,o),
(16,646,qs),
(16,633,o),
(20,633,qs),
(32,633,o),
(70,620,o),
(78,610,qs),
(107,573,o),
(136,514,qs),
(396,-3,ls),
(399,-8,o),
(405,-8,qs),
(429,-8,o),
(444,24,qs),
(552,247,l),
(674,-3,ls),
(677,-8,o),
(683,-8,qs),
(707,-8,o),
(722,24,qs),
(934,504,ls),
(963,571,o),
(992,605,qs),
(1003,618,o),
(1047,633,o),
(1057,633,qs),
(1061,633,o),
(1061,647,qs),
(1061,656,o),
(1059,662,q),
(1045,661,o),
(1013,659,o),
(983,657,o),
(960,657,qs),
(938,657,o),
(858,662,q),
(854,658,o),
(854,633,o),
(858,633,qs),
(874,633,o),
(915,616,o),
(915,599,qs),
(915,577,o),
(898,536,qs),
(719,125,ls),
(713,109,o),
(707,120,qs),
(598,344,l),
(675,502,ls),
(715,583,o),
(733,605,qs),
(743,617,o),
(792,633,o),
(802,633,qs),
(805,633,o),
(806,658,o),
(804,662,q),
(704,657,o),
(700,657,qs),
(679,657,o),
(599,662,q),
(595,658,o),
(595,633,o),
(599,633,qs),
(615,633,o),
(658,617,o),
(658,600,qs),
(658,573,o),
(644,542,qs),
(574,395,l),
(508,530,ls),
(485,578,o),
(485,604,qs),
(485,616,o),
(508,630,o),
(527,633,o),
(534,633,qs),
(537,633,o),
(538,658,o),
(536,662,q),
(436,657,o),
(432,657,qs),
(421,657,o),
(306,662,q),
(302,658,o),
(302,648,qs),
(302,633,o),
(306,633,qs),
(318,633,o),
(356,620,o),
(364,610,qs),
(393,573,o),
(422,514,qs),
(527,298,l),
(444,125,ls),
(442,120,o),
(432,115,o),
(429,120,qs),
(222,530,ls),
(199,574,o),
(199,604,qs),
(199,615,o),
(222,630,o),
(242,633,o),
(249,633,qs),
(252,633,o),
(253,658,o),
(251,662,q),
(151,657,o),
(146,657,qs),
(135,657,o)
);
}
);
width = 1076;
},
{
layerId = "5D05F7D8-7336-4C54-9046-4D1B683AB1D3";
shapes = (
{
closed = 1;
nodes = (
(7,662,q),
(4,659,o),
(4,645,qs),
(4,629,o),
(8,629,qs),
(20,629,o),
(59,617,o),
(67,607,qs),
(91,576,o),
(119,520,qs),
(384,-6,l),
(388,-10,o),
(394,-10,qs),
(401,-11,o),
(422,6,o),
(430,22,qs),
(544,240,l),
(666,-6,l),
(670,-10,o),
(676,-10,qs),
(684,-10,o),
(705,6,o),
(713,22,qs),
(942,507,ls),
(973,571,o),
(1000,602,qs),
(1011,613,o),
(1056,630,o),
(1068,630,qs),
(1072,630,o),
(1072,642,qs),
(1072,655,o),
(1070,662,q),
(1056,661,o),
(1016,658,o),
(980,656,o),
(935,656,o),
(847,662,q),
(843,658,o),
(844,630,o),
(848,630,qs),
(864,630,o),
(912,614,o),
(912,596,qs),
(912,578,o),
(894,540,qs),
(887,524,o),
(739,212,o),
(719,165,qs),
(712,150,o),
(706,160,q),
(609,358,l),
(682,506,ls),
(717,575,o),
(739,600,qs),
(749,612,o),
(798,630,o),
(810,630,q),
(813,631,o),
(813,656,o),
(811,662,q),
(798,661,o),
(756,658,o),
(719,656,o),
(696,656,qs),
(674,656,o),
(586,662,q),
(583,658,o),
(583,630,o),
(587,630,qs),
(605,630,o),
(654,615,o),
(654,597,qs),
(654,578,o),
(636,542,qs),
(577,421,l),
(516,546,ls),
(498,582,o),
(498,598,qs),
(498,610,o),
(518,625,o),
(537,629,o),
(546,629,q),
(549,630,o),
(548,656,o),
(546,662,q),
(436,656,o),
(428,656,qs),
(422,656,o),
(296,662,q),
(293,659,o),
(293,646,qs),
(293,629,o),
(297,629,qs),
(311,629,o),
(346,615,o),
(355,605,qs),
(376,581,o),
(406,520,qs),
(513,304,l),
(440,162,ls),
(438,158,o),
(429,153,o),
(426,158,qs),
(230,545,ls),
(212,579,o),
(212,598,qs),
(212,611,o),
(235,626,o),
(253,629,o),
(260,629,q),
(264,630,o),
(263,656,o),
(262,662,q),
(152,656,o),
(141,656,qs),
(134,656,o)
);
}
);
width = 1078;
},
{
layerId = "868F064F-B1BF-49D1-B6CA-957F77525378";
shapes = (
{
closed = 1;
nodes = (
(4,662,q),
(2,660,o),
(2,644,qs),
(2,625,o),
(6,625,qs),
(19,625,o),
(58,614,o),
(66,604,qs),
(85,580,o),
(112,527,qs),
(383,-8,ls),
(386,-13,o),
(392,-13,qs),
(408,-13,o),
(426,19,qs),
(546,233,l),
(669,-8,ls),
(672,-13,o),
(680,-13,qs),
(698,-13,o),
(714,19,qs),
(961,510,ls),
(991,568,o),
(1019,598,qs),
(1029,608,o),
(1075,626,o),
(1090,626,qs),
(1093,626,o),
(1093,637,qs),
(1093,654,o),
(1090,662,q),
(970,656,o),
(965,656,qs),
(942,656,o),
(846,662,q),
(842,658,o),
(843,626,o),
(847,626,qs),
(865,626,o),
(918,611,o),
(918,594,qs),
(918,580,o),
(900,544,qs),
(729,205,ls),
(721,191,o),
(716,201,qs),
(629,372,l),
(699,510,ls),
(728,567,o),
(755,596,qs),
(765,607,o),
(813,626,o),
(828,626,q),
(831,627,o),
(830,656,o),
(828,662,q),
(708,656,o),
(703,656,qs),
(680,656,o),
(584,662,q),
(580,658,o),
(581,626,o),
(585,626,qs),
(595,626,o),
(624,622,o),
(659,607,o),
(659,594,qs),
(659,583,o),
(639,542,qs),
(591,447,l),
(533,562,l),
(521,593,l),
(521,610,o),
(551,625,o),
(567,625,q),
(570,626,o),
(569,656,o),
(567,662,q),
(447,656,o),
(435,656,qs),
(434,656,o),
(296,662,q),
(294,660,o),
(294,644,qs),
(294,625,o),
(298,625,qs),
(331,625,o),
(356,600,qs),
(368,588,o),
(399,527,qs),
(509,310,l),
(447,200,ls),
(437,184,o),
(432,195,qs),
(248,560,l),
(236,591,l),
(236,625,o),
(282,625,q),
(285,626,o),
(284,656,o),
(282,662,q),
(162,656,o),
(146,656,qs),
(142,656,o)
);
}
);
width = 1094;
}
);
note = W;
unicode = 87;
},
{
glyphname = X;
lastChange = "2021-12-15 14:24:36 +0000";
layers = (
{
layerId = m01;
shapes = (
{
closed = 1;
nodes = (
(51,662,q),
(47,658,o),
(47,633,o),
(51,633,qs),
(80,633,o),
(107,617,qs),
(142,597,o),
(173,548,qs),
(313,334,l),
(99,54,l),
(88,43,o),
(46,29,o),
(19,26,o),
(11,26,qs),
(7,26,o),
(7,10,qs),
(7,3,o),
(9,-3,q),
(109,2,o),
(132,2,qs),
(152,2,o),
(245,-3,q),
(247,0,o),
(247,10,qs),
(247,26,o),
(243,26,qs),
(218,26,o),
(184,39,o),
(175,51,o),
(175,55,qs),
(175,75,o),
(339,295,q),
(489,66,ls),
(494,58,o),
(494,54,qs),
(494,42,o),
(450,26,o),
(436,26,qs),
(432,26,o),
(432,1,o),
(436,-3,q),
(576,2,o),
(582,2,qs),
(587,2,o),
(687,-3,q),
(689,1,o),
(689,10,qs),
(689,26,o),
(684,26,qs),
(656,26,o),
(599,46,o),
(586,66,qs),
(394,358,l),
(582,604,ls),
(592,617,o),
(664,633,o),
(678,633,qs),
(681,633,o),
(682,658,o),
(680,662,q),
(580,657,o),
(568,657,qs),
(534,657,o),
(441,662,q),
(437,658,o),
(437,633,o),
(441,633,qs),
(470,633,o),
(511,613,o),
(511,602,qs),
(511,596,o),
(502,576,o),
(481,544,o),
(464,519,o),
(429,473,o),
(412,451,o),
(373,402,o),
(369,396,q),
(254,571,ls),
(242,589,o),
(242,601,qs),
(242,618,o),
(284,633,o),
(302,633,qs),
(305,633,o),
(306,658,o),
(304,662,q),
(204,657,o),
(176,657,qs),
(174,657,o)
);
}
);
width = 688;
},
{
layerId = "5D05F7D8-7336-4C54-9046-4D1B683AB1D3";
shapes = (
{
closed = 1;
nodes = (
(137,658,o),
(86,661,o),
(68,662,q),
(65,658,o),
(65,629,o),
(68,629,qs),
(99,629,o),
(123,614,qs),
(147,599,o),
(183,542,qs),
(320,333,l),
(116,60,l),
(103,45,o),
(42,30,o),
(28,30,qs),
(24,30,o),
(24,10,qs),
(24,5,o),
(28,-4,q),
(138,2,o),
(153,2,qs),
(179,2,o),
(276,-4,q),
(278,0,o),
(278,11,qs),
(278,30,o),
(273,30,qs),
(243,30,o),
(202,49,o),
(202,60,qs),
(202,79,o),
(354,282,q),
(494,69,ls),
(498,63,o),
(498,58,qs),
(498,45,o),
(454,30,o),
(441,30,qs),
(437,30,o),
(436,0,o),
(440,-4,q),
(459,-3,o),
(519,0,o),
(567,2,o),
(592,2,qs),
(608,2,o),
(718,-4,q),
(720,2,o),
(720,10,qs),
(720,30,o),
(716,30,qs),
(695,30,o),
(640,50,o),
(624,71,qs),
(620,77,o),
(433,357,q),
(621,595,ls),
(634,612,o),
(699,629,o),
(714,629,qs),
(717,629,o),
(717,658,o),
(715,662,q),
(605,656,o),
(592,656,qs),
(569,656,o),
(467,662,q),
(463,658,o),
(464,629,o),
(468,629,qs),
(495,629,o),
(540,609,o),
(540,598,qs),
(540,591,o),
(522,560,o),
(488,514,o),
(459,477,o),
(411,417,o),
(402,405,q),
(289,576,ls),
(279,592,o),
(279,602,qs),
(279,616,o),
(319,629,o),
(336,629,qs),
(339,629,o),
(339,658,o),
(338,662,q),
(228,656,o),
(202,656,qs),
(180,656,o)
);
}
);
width = 752;
},
{
layerId = "868F064F-B1BF-49D1-B6CA-957F77525378";
shapes = (
{
closed = 1;
nodes = (
(77,662,o),
(71,662,q),
(67,658,o),
(67,625,o),
(71,625,qs),
(103,625,o),
(124,610,qs),
(136,602,o),
(178,537,qs),
(312,332,l),
(119,67,ls),
(108,52,o),
(44,33,o),
(31,33,qs),
(27,33,o),
(27,10,qs),
(27,8,o),
(31,-4,q),
(151,2,o),
(159,2,qs),
(192,2,o),
(291,-4,q),
(293,0,o),
(293,12,qs),
(293,33,o),
(288,33,qs),
(262,33,o),
(214,51,o),
(214,66,qs),
(214,83,o),
(354,269,q),
(484,72,ls),
(487,67,o),
(487,61,qs),
(487,49,o),
(444,33,o),
(431,33,qs),
(427,33,o),
(425,0,o),
(429,-4,q),
(438,-4,o),
(554,2,o),
(587,2,qs),
(613,2,o),
(733,-4,q),
(736,2,o),
(736,11,qs),
(736,33,o),
(733,33,qs),
(720,33,o),
(667,54,o),
(648,76,qs),
(630,97,o),
(458,356,q),
(645,586,ls),
(662,607,o),
(720,625,o),
(734,625,qs),
(738,625,o),
(738,657,o),
(735,662,q),
(615,656,o),
(589,656,o),
(478,662,q),
(474,658,o),
(475,625,o),
(479,625,qs),
(506,625,o),
(553,606,o),
(553,594,qs),
(553,588,o),
(536,559,o),
(504,518,o),
(474,480,o),
(432,429,o),
(420,414,q),
(309,582,ls),
(301,594,o),
(301,604,qs),
(302,614,o),
(339,625,o),
(354,625,qs),
(357,625,o),
(358,658,o),
(356,662,q),
(236,656,o),
(212,656,qs),
(183,656,o)
);
}
);
width = 768;
}
);
note = X;
unicode = 88;
},
{
glyphname = Y;
lastChange = "2021-12-15 14:24:36 +0000";
layers = (
{
layerId = m01;
shapes = (
{
closed = 1;
nodes = (
(35,661,o),
(19,662,q),
(15,658,o),
(15,646,qs),
(15,635,o),
(19,635,qs),
(29,635,o),
(73,621,o),
(84,613,qs),
(100,602,o),
(117,579,o),
(133,549,qs),
(236,364,o),
(279,281,o),
(279,267,qs),
(279,142,ls),
(279,77,o),
(271,46,qs),
(268,38,o),
(219,24,o),
(207,24,qs),
(203,24,o),
(203,11,qs),
(203,1,o),
(207,-3,q),
(322,2,o),
(325,2,qs),
(337,2,o),
(437,-3,q),
(439,3,o),
(439,11,qs),
(439,24,o),
(435,24,qs),
(426,24,o),
(376,39,o),
(374,46,qs),
(366,77,o),
(366,139,qs),
(366,291,ls),
(366,305,o),
(511,545,o),
(549,604,q),
(559,617,o),
(619,635,o),
(631,635,qs),
(635,635,o),
(635,647,qs),
(635,656,o),
(633,662,q),
(624,662,o),
(558,656,o),
(527,656,qs),
(520,656,o),
(409,662,q),
(405,658,o),
(405,635,o),
(409,635,qs),
(438,635,o),
(478,613,o),
(478,602,qs),
(478,567,o),
(342,361,qs),
(337,354,o),
(332,359,q),
(220,571,ls),
(209,590,o),
(209,601,qs),
(209,618,o),
(252,635,o),
(269,635,qs),
(272,635,o),
(273,658,o),
(271,662,q),
(151,656,o),
(139,656,qs),
(111,656,o)
);
}
);
width = 649;
},
{
layerId = "5D05F7D8-7336-4C54-9046-4D1B683AB1D3";
shapes = (
{
closed = 1;
nodes = (
(24,654,q),
(22,650,o),
(23,630,o),
(26,630,qs),
(35,630,o),
(74,619,o),
(84,612,qs),
(107,597,o),
(136,543,qs),
(149,520,o),
(203,424,o),
(227,381,o),
(259,322,o),
(272,293,o),
(272,288,qs),
(272,140,ls),
(272,81,o),
(264,52,qs),
(261,44,o),
(211,28,o),
(199,28,qs),
(196,28,o),
(196,12,qs),
(196,0,o),
(200,-4,q),
(211,-3,o),
(304,3,o),
(331,3,qs),
(351,3,o),
(393,1,o),
(443,-3,o),
(456,-4,q),
(458,2,o),
(458,12,qs),
(458,28,o),
(454,28,qs),
(446,28,o),
(395,45,o),
(393,52,qs),
(385,83,o),
(385,142,qs),
(385,298,ls),
(385,311,o),
(535,554,o),
(564,597,q),
(576,612,o),
(629,630,o),
(644,630,qs),
(648,630,o),
(648,646,qs),
(648,654,o),
(646,662,q),
(635,661,o),
(596,658,o),
(559,656,o),
(536,656,qs),
(517,656,o),
(416,662,q),
(413,658,o),
(413,630,o),
(417,630,qs),
(447,630,o),
(484,613,o),
(484,602,qs),
(484,584,o),
(404,448,o),
(361,384,qs),
(356,377,o),
(351,382,q),
(245,576,ls),
(236,593,o),
(236,602,qs),
(236,616,o),
(276,630,o),
(292,630,qs),
(295,630,o),
(296,658,o),
(294,662,q),
(174,656,o),
(156,656,qs),
(48,656,o)
);
}
);
width = 657;
},
{
layerId = "868F064F-B1BF-49D1-B6CA-957F77525378";
shapes = (
{
closed = 1;
nodes = (
(108,658,o),
(52,661,o),
(35,662,q),
(31,658,o),
(31,625,o),
(35,625,qs),
(63,625,o),
(88,610,qs),
(109,598,o),
(142,537,qs),
(173,484,ls),
(204,430,o),
(267,316,o),
(267,309,qs),
(267,139,ls),
(267,85,o),
(260,58,qs),
(257,50,o),
(205,33,o),
(194,33,qs),
(191,33,o),
(191,12,qs),
(191,0,o),
(195,-4,q),
(209,-3,o),
(313,4,o),
(340,4,qs),
(366,4,o),
(472,-4,o),
(479,-4,q),
(481,2,o),
(481,14,qs),
(481,33,o),
(477,33,qs),
(468,33,o),
(417,51,o),
(415,58,qs),
(407,89,o),
(407,145,qs),
(407,304,ls),
(407,317,o),
(556,555,o),
(582,590,qs),
(596,608,o),
(642,626,o),
(660,626,qs),
(664,626,o),
(664,644,qs),
(664,653,o),
(661,662,q),
(574,656,o),
(548,656,qs),
(517,656,o),
(427,662,q),
(423,658,o),
(424,625,o),
(428,625,qs),
(492,625,o),
(492,603,qs),
(492,587,o),
(412,449,o),
(383,407,qs),
(378,400,o),
(373,405,q),
(273,582,ls),
(265,596,o),
(265,604,qs),
(266,614,o),
(303,625,o),
(318,625,qs),
(321,625,o),
(322,658,o),
(320,662,q),
(200,656,o),
(177,656,qs),
(155,656,o)
);
}
);
width = 669;
}
);
note = Y;
unicode = 89;
},
{
glyphname = Z;
lastChange = "2021-12-15 14:24:36 +0000";
layers = (
{
layerId = m01;
shapes = (
{
closed = 1;
nodes = (
(72,662,o),
(62,665,q),
(56,613,o),
(29,489,q),
(38,480,o),
(61,480,qs),
(70,480,o),
(71,484,qs),
(90,553,o),
(147,608,o),
(213,608,qs),
(425,608,l),
(42,43,ls),
(38,38,o),
(38,26,qs),
(38,9,o),
(46,0,q),
(542,0,l),
(554,62,o),
(586,166,q),
(577,175,o),
(562,175,qs),
(550,175,o),
(548,172,q),
(538,145,o),
(523,116,o),
(490,72,o),
(438,51,o),
(402,51,qs),
(176,51,ls),
(162,51,o),
(162,61,qs),
(162,66,o),
(169,76,qs),
(543,633,l),
(543,641,o),
(536,665,o),
(533,666,q),
(393,656,o),
(323,656,qs),
(214,656,ls),
(197,656,o)
);
}
);
width = 600;
},
{
layerId = "5D05F7D8-7336-4C54-9046-4D1B683AB1D3";
shapes = (
{
closed = 1;
nodes = (
(77,661,o),
(67,664,q),
(61,611,o),
(36,486,q),
(42,479,o),
(68,479,qs),
(78,479,o),
(80,484,qs),
(90,517,o),
(106,552,o),
(136,589,o),
(184,603,o),
(220,604,qs),
(412,604,l),
(36,43,ls),
(32,38,o),
(32,26,qs),
(32,9,o),
(40,0,q),
(547,0,l),
(553,35,o),
(596,170,q),
(588,178,o),
(568,178,qs),
(557,178,o),
(555,173,qs),
(512,54,o),
(394,54,qs),
(202,54,ls),
(188,54,o),
(188,64,qs),
(188,68,o),
(194,79,q),
(286,216,ls),
(378,352,o),
(563,629,o),
(564,633,q),
(564,641,o),
(557,665,o),
(554,666,q),
(414,656,o),
(333,656,qs),
(224,656,ls),
(204,656,o)
);
}
);
width = 622;
},
{
layerId = "868F064F-B1BF-49D1-B6CA-957F77525378";
shapes = (
{
closed = 1;
nodes = (
(75,662,q),
(69,609,o),
(45,482,q),
(49,478,o),
(78,478,qs),
(89,478,o),
(91,484,qs),
(93,488,o),
(96,497,qs),
(107,526,o),
(118,549,o),
(148,585,o),
(195,599,o),
(231,599,qs),
(402,599,l),
(34,43,ls),
(30,38,o),
(30,26,qs),
(30,9,o),
(38,0,q),
(555,0,l),
(557,16,o),
(570,61,o),
(582,97,o),
(603,157,o),
(609,174,q),
(602,180,o),
(578,180,qs),
(568,180,o),
(565,174,q),
(548,124,o),
(459,57,o),
(389,57,qs),
(230,57,ls),
(216,57,o),
(216,67,qs),
(216,72,o),
(223,82,qs),
(588,633,l),
(588,641,o),
(581,665,o),
(578,666,q),
(438,656,o),
(346,656,qs),
(237,656,ls),
(99,656,o)
);
}
);
width = 635;
}
);
note = Z;
unicode = 90;
},
{
glyphname = A.ordn;
lastChange = "2021-12-15 14:24:46 +0000";
layers = (
{
layerId = m01;
shapes = (
{
closed = 1;
nodes = (
(265,695,qs),
(255,695,o),
(238,678,o),
(229,661,o),
(223,644,qs),
(101,351,ls),
(86,315,o),
(68,293,qs),
(58,280,o),
(28,280,qs),
(26,280,o),
(26,268,qs),
(26,260,o),
(28,258,q),
(40,258,o),
(83,261,o),
(119,261,o),
(170,258,o),
(176,258,q),
(182,280,o),
(175,280,qs),
(150,280,o),
(134,291,qs),
(129,295,o),
(129,304,qs),
(129,312,o),
(141,346,qs),
(171,418,l),
(174,420,l),
(222,423,o),
(260,423,qs),
(275,423,o),
(311,421,qs),
(313,421,o),
(316,419,q),
(344,345,l),
(346,338,ls),
(349,332,o),
(354,311,o),
(354,302,qs),
(354,295,o),
(353,292,qs),
(347,280,o),
(317,280,qs),
(314,280,o),
(313,260,o),
(316,258,q),
(325,258,o),
(380,261,o),
(399,261,qs),
(417,261,o),
(477,258,o),
(480,258,q),
(482,262,o),
(482,265,qs),
(482,280,o),
(479,280,qs),
(470,280,o),
(436,292,o),
(431,302,qs),
(418,330,o),
(411,347,qs),
(271,693,l),
(267,695,o)
);
},
{
closed = 1;
nodes = (
(187,459,q),
(246,605,l),
(299,460,l),
(297,457,l),
(253,455,o),
(236,455,qs),
(207,455,o),
(189,456,qs),
(188,456,o)
);
}
);
width = 505;
},
{
layerId = "5D05F7D8-7336-4C54-9046-4D1B683AB1D3";
shapes = (
{
ref = A;
}
);
width = 736;
},
{
layerId = "868F064F-B1BF-49D1-B6CA-957F77525378";
shapes = (
{
ref = A;
}
);
width = 720;
}
);
note = A.ordn;
},
{
glyphname = B.ordn;
lastChange = "2021-12-15 14:24:46 +0000";
layers = (
{
layerId = m01;
shapes = (
{
closed = 1;
nodes = (
(192,293,qs),
(164,293,o),
(154,302,qs),
(142,311,o),
(142,357,qs),
(142,451,ls),
(142,470,o),
(146,471,qs),
(158,475,o),
(196,475,qs),
(260,475,o),
(319,417,o),
(319,375,qs),
(319,293,o)
);
},
{
closed = 1;
nodes = (
(73,295,qs),
(69,289,o),
(33,280,o),
(24,280,qs),
(22,280,o),
(22,269,qs),
(22,260,o),
(24,258,q),
(113,260,l),
(209,260,ls),
(289,260,o),
(391,327,o),
(391,383,qs),
(391,427,o),
(312,491,o),
(284,496,q),
(284,497,o),
(287,500,q),
(298,504,o),
(326,519,o),
(361,560,o),
(361,583,qs),
(361,621,o),
(307,673,o),
(243,691,o),
(210,691,qs),
(192,691,o),
(148,690,o),
(112,690,qs),
(65,690,o),
(24,691,q),
(22,689,o),
(22,680,qs),
(22,669,o),
(24,669,qs),
(33,669,o),
(70,660,o),
(73,655,q),
(78,636,o),
(78,602,qs),
(78,354,ls),
(78,303,o)
);
},
{
closed = 1;
nodes = (
(189,507,qs),
(142,507,o),
(142,511,qs),
(142,584,ls),
(142,596,o),
(145,650,qs),
(145,654,o),
(150,656,qs),
(167,661,o),
(199,661,qs),
(293,661,o),
(293,568,qs),
(293,542,o),
(257,511,o),
(228,509,qs),
(206,507,o)
);
}
);
width = 415;
},
{
layerId = "5D05F7D8-7336-4C54-9046-4D1B683AB1D3";
shapes = (
{
ref = B;
}
);
width = 586;
},
{
layerId = "868F064F-B1BF-49D1-B6CA-957F77525378";
shapes = (
{
ref = B;
}
);
width = 605;
}
);
note = B.ordn;
},
{
glyphname = C.ordn;
lastChange = "2021-12-15 14:24:46 +0000";
layers = (
{
layerId = m01;
shapes = (
{
closed = 1;
nodes = (
(412,386,o),
(404,364,o),
(389,331,o),
(380,322,qs),
(345,287,o),
(275,287,qs),
(188,287,o),
(94,403,o),
(94,485,qs),
(94,556,o),
(189,667,o),
(258,667,qs),
(299,667,o),
(357,647,o),
(385,614,o),
(396,592,o),
(398,580,q),
(400,577,o),
(410,577,qs),
(425,577,o),
(425,586,qs),
(425,593,o),
(426,681,q),
(336,697,o),
(256,697,qs),
(159,697,o),
(23,564,o),
(23,471,qs),
(23,384,o),
(156,256,o),
(249,256,qs),
(364,256,o),
(416,285,qs),
(420,287,o),
(440,373,o),
(440,380,q),
(414,386,l)
);
}
);
width = 468;
},
{
layerId = "5D05F7D8-7336-4C54-9046-4D1B683AB1D3";
shapes = (
{
ref = C;
}
);
width = 639;
},
{
layerId = "868F064F-B1BF-49D1-B6CA-957F77525378";
shapes = (
{
ref = C;
}
);
width = 638;
}
);
note = C.ordn;
},
{
glyphname = D.ordn;
lastChange = "2021-12-15 14:24:46 +0000";
layers = (
{
layerId = m01;
shapes = (
{
closed = 1;
nodes = (
(28,691,q),
(26,689,o),
(26,680,qs),
(26,669,o),
(28,669,qs),
(37,669,o),
(74,660,o),
(77,655,q),
(82,636,o),
(82,602,qs),
(82,354,ls),
(82,303,o),
(77,295,qs),
(73,289,o),
(37,280,o),
(28,280,qs),
(26,280,o),
(26,268,qs),
(26,260,o),
(28,258,q),
(113,260,ls),
(141,261,o),
(224,258,o),
(233,258,qs),
(346,258,o),
(475,385,o),
(475,480,qs),
(475,566,o),
(348,691,o),
(234,691,qs),
(221,691,o),
(138,690,o),
(112,690,qs),
(65,690,o)
);
},
{
closed = 1;
nodes = (
(152,652,qs),
(161,663,o),
(236,663,qs),
(239,663,ls),
(320,663,o),
(405,557,o),
(405,483,qs),
(405,288,o),
(244,288,qs),
(225,288,o),
(156,295,o),
(153,301,qs),
(142,323,o),
(142,351,qs),
(142,611,ls),
(142,640,o)
);
}
);
width = 503;
},
{
layerId = "5D05F7D8-7336-4C54-9046-4D1B683AB1D3";
shapes = (
{
ref = D;
}
);
width = 708;
},
{
layerId = "868F064F-B1BF-49D1-B6CA-957F77525378";
shapes = (
{
ref = D;
}
);
width = 724;
}
);
note = D.ordn;
},
{
glyphname = E.ordn;
lastChange = "2021-12-15 14:24:46 +0000";
layers = (
{
layerId = m01;
shapes = (
{
closed = 1;
nodes = (
(24,691,q),
(22,689,o),
(22,680,qs),
(22,669,o),
(24,669,qs),
(33,669,o),
(70,660,o),
(73,655,q),
(78,636,o),
(78,602,qs),
(78,354,ls),
(78,303,o),
(73,295,qs),
(69,289,o),
(33,280,o),
(24,280,qs),
(22,280,o),
(22,269,qs),
(22,260,o),
(24,258,q),
(113,260,ls),
(162,260,o),
(316,257,o),
(352,257,q),
(357,287,o),
(388,370,q),
(384,374,o),
(370,374,qs),
(359,374,o),
(358,370,qs),
(341,315,o),
(318,303,qs),
(296,292,o),
(230,292,qs),
(196,292,ls),
(151,292,o),
(149,298,qs),
(142,316,o),
(142,355,qs),
(142,455,ls),
(142,461,o),
(193,461,qs),
(255,461,o),
(265,455,q),
(266,455,o),
(269,453,o),
(271,451,o),
(274,448,o),
(276,443,o),
(279,435,o),
(283,424,o),
(285,416,qs),
(287,411,o),
(298,411,qs),
(307,411,o),
(309,413,q),
(309,537,l),
(305,541,o),
(297,541,qs),
(287,541,o),
(285,536,qs),
(276,503,o),
(259,493,o),
(210,493,qs),
(173,493,ls),
(142,493,o),
(142,497,qs),
(142,600,ls),
(142,636,o),
(146,652,q),
(147,661,o),
(208,661,qs),
(254,661,ls),
(286,661,o),
(323,640,o),
(333,604,qs),
(334,600,o),
(346,600,qs),
(355,600,o),
(358,603,q),
(356,613,o),
(341,676,o),
(338,695,q),
(299,695,o),
(144,690,o),
(112,690,qs),
(65,690,o)
);
}
);
width = 417;
},
{
layerId = "5D05F7D8-7336-4C54-9046-4D1B683AB1D3";
shapes = (
{
ref = E;
}
);
width = 584;
},
{
layerId = "868F064F-B1BF-49D1-B6CA-957F77525378";
shapes = (
{
ref = E;
}
);
width = 598;
}
);
note = E.ordn;
},
{
glyphname = Egrave.ordn;
lastChange = "2021-12-15 14:24:46 +0000";
layers = (
{
layerId = m01;
shapes = (
{
closed = 1;
nodes = (
(24,691,q),
(22,689,o),
(22,680,qs),
(22,669,o),
(24,669,qs),
(33,669,o),
(70,660,o),
(73,655,q),
(78,636,o),
(78,602,qs),
(78,354,ls),
(78,303,o),
(73,295,qs),
(69,289,o),
(33,280,o),
(24,280,qs),
(22,280,o),
(22,269,qs),
(22,260,o),
(24,258,q),
(113,260,ls),
(162,260,o),
(316,257,o),
(352,257,q),
(357,287,o),
(388,370,q),
(384,374,o),
(370,374,qs),
(359,374,o),
(358,370,qs),
(341,315,o),
(318,303,qs),
(296,292,o),
(230,292,qs),
(196,292,ls),
(151,292,o),
(149,298,qs),
(142,316,o),
(142,355,qs),
(142,455,ls),
(142,461,o),
(193,461,qs),
(255,461,o),
(265,455,q),
(266,455,o),
(269,453,o),
(271,451,o),
(274,448,o),
(276,443,o),
(279,435,o),
(283,424,o),
(285,416,qs),
(287,411,o),
(298,411,qs),
(307,411,o),
(309,413,q),
(309,537,l),
(305,541,o),
(297,541,qs),
(287,541,o),
(285,536,qs),
(276,503,o),
(259,493,o),
(210,493,qs),
(173,493,ls),
(142,493,o),
(142,497,qs),
(142,600,ls),
(142,636,o),
(146,652,q),
(147,661,o),
(208,661,qs),
(254,661,ls),
(286,661,o),
(323,640,o),
(333,604,qs),
(334,600,o),
(346,600,qs),
(355,600,o),
(358,603,q),
(356,613,o),
(341,676,o),
(338,695,q),
(299,695,o),
(144,690,o),
(112,690,qs),
(65,690,o)
);
},
{
closed = 1;
nodes = (
(170,809,o),
(151,823,q),
(148,824,o),
(138,824,qs),
(119,824,o),
(97,812,o),
(97,805,qs),
(97,790,o),
(209,737,o),
(223,737,qs),
(234,737,o),
(234,746,qs),
(234,751,o)
);
}
);
width = 417;
},
{
layerId = "5D05F7D8-7336-4C54-9046-4D1B683AB1D3";
shapes = (
{
ref = gravecomb.cap;
},
{
pos = (242,0);
ref = E.ordn;
}
);
width = 826;
},
{
layerId = "868F064F-B1BF-49D1-B6CA-957F77525378";
shapes = (
{
ref = gravecomb.cap;
},
{
pos = (244,0);
ref = E.ordn;
}
);
width = 842;
}
);
note = Egrave.ordn;
},
{
glyphname = F.ordn;
lastChange = "2021-12-15 14:24:46 +0000";
layers = (
{
layerId = m01;
shapes = (
{
closed = 1;
nodes = (
(201,258,q),
(203,260,o),
(203,269,qs),
(203,280,o),
(201,280,qs),
(192,280,o),
(151,289,o),
(147,295,qs),
(142,303,o),
(142,354,qs),
(142,455,ls),
(142,461,o),
(193,461,qs),
(255,461,o),
(265,455,q),
(266,455,o),
(269,453,o),
(271,451,o),
(274,448,o),
(276,443,o),
(279,435,o),
(283,424,o),
(285,416,qs),
(287,411,o),
(298,411,qs),
(307,411,o),
(309,413,q),
(309,537,l),
(305,541,o),
(297,541,qs),
(287,541,o),
(285,536,qs),
(276,503,o),
(259,493,o),
(210,493,qs),
(173,493,ls),
(142,493,o),
(142,497,qs),
(142,600,ls),
(142,636,o),
(146,652,q),
(147,661,o),
(208,661,qs),
(254,661,ls),
(286,661,o),
(323,640,o),
(333,604,qs),
(334,600,o),
(346,600,qs),
(355,600,o),
(358,603,q),
(356,613,o),
(341,676,o),
(338,695,q),
(299,695,o),
(144,690,o),
(112,690,qs),
(65,690,o),
(24,691,q),
(22,689,o),
(22,680,qs),
(22,669,o),
(24,669,qs),
(33,669,o),
(70,660,o),
(73,655,q),
(78,636,o),
(78,602,qs),
(78,354,ls),
(78,303,o),
(73,295,qs),
(69,289,o),
(33,280,o),
(24,280,qs),
(22,280,o),
(22,269,qs),
(22,260,o),
(24,258,q),
(107,260,o),
(107,260,q),
(140,260,o)
);
}
);
width = 417;
},
{
layerId = "5D05F7D8-7336-4C54-9046-4D1B683AB1D3";
shapes = (
{
ref = F;
}
);
width = 538;
},
{
layerId = "868F064F-B1BF-49D1-B6CA-957F77525378";
shapes = (
{
ref = F;
}
);
width = 553;
}
);
note = F.ordn;
},
{
glyphname = G.ordn;
lastChange = "2021-12-15 14:24:46 +0000";
layers = (
{
layerId = m01;
shapes = (
{
closed = 1;
nodes = (
(367,362,qs),
(367,312,ls),
(367,304,o),
(362,302,qs),
(332,287,o),
(275,287,qs),
(197,287,o),
(96,408,o),
(96,480,qs),
(96,558,o),
(188,667,o),
(258,667,qs),
(380,667,o),
(398,578,q),
(400,575,o),
(410,575,qs),
(425,575,o),
(425,584,qs),
(425,591,o),
(422,668,q),
(304,697,o),
(256,697,qs),
(159,697,o),
(23,564,o),
(23,471,qs),
(23,384,o),
(156,256,o),
(249,256,qs),
(270,256,o),
(305,258,o),
(337,262,o),
(357,265,o),
(384,274,o),
(394,276,o),
(421,286,o),
(423,287,qs),
(441,294,o),
(441,299,qs),
(441,302,o),
(433,325,o),
(431,335,qs),
(429,349,o),
(429,382,qs),
(429,421,o),
(436,426,qs),
(442,430,o),
(472,438,o),
(477,438,qs),
(479,438,o),
(479,458,o),
(478,460,q),
(467,460,o),
(419,456,o),
(403,456,qs),
(383,456,o),
(321,460,o),
(307,460,q),
(304,458,o),
(304,438,o),
(307,438,qs),
(318,438,o),
(358,429,o),
(361,423,qs),
(367,409,o)
);
}
);
width = 506;
},
{
layerId = "5D05F7D8-7336-4C54-9046-4D1B683AB1D3";
shapes = (
{
ref = G;
}
);
width = 702;
},
{
layerId = "868F064F-B1BF-49D1-B6CA-957F77525378";
shapes = (
{
ref = G;
}
);
width = 705;
}
);
note = G.ordn;
},
{
glyphname = H.ordn;
lastChange = "2021-12-15 14:24:46 +0000";
layers = (
{
layerId = m01;
shapes = (
{
closed = 1;
nodes = (
(349,293,q),
(346,288,o),
(311,280,o),
(302,280,qs),
(299,280,o),
(299,260,o),
(302,258,q),
(309,258,o),
(370,261,o),
(389,261,qs),
(403,261,o),
(430,260,o),
(461,258,o),
(471,258,q),
(472,260,o),
(472,267,qs),
(472,280,o),
(469,280,qs),
(462,280,o),
(425,288,o),
(424,293,qs),
(419,311,o),
(419,351,qs),
(419,600,ls),
(419,640,o),
(424,658,qs),
(425,663,o),
(462,672,o),
(469,672,qs),
(472,672,o),
(472,684,qs),
(472,692,o),
(471,694,q),
(462,694,o),
(407,690,o),
(371,690,o),
(314,694,o),
(302,694,q),
(299,692,o),
(299,672,o),
(302,672,qs),
(311,672,o),
(346,663,o),
(349,658,q),
(354,639,o),
(354,603,qs),
(354,505,ls),
(354,504,o),
(352,503,q),
(288,501,o),
(210,501,o),
(142,503,q),
(141,505,l),
(141,600,ls),
(141,636,o),
(147,658,qs),
(148,663,o),
(185,672,o),
(192,672,qs),
(195,672,o),
(195,691,o),
(194,694,q),
(185,694,o),
(128,690,o),
(92,690,o),
(36,694,o),
(24,694,q),
(22,692,o),
(22,684,qs),
(22,672,o),
(24,672,qs),
(33,672,o),
(68,663,o),
(71,658,q),
(76,639,o),
(76,603,qs),
(76,349,ls),
(76,312,o),
(71,293,q),
(68,288,o),
(33,280,o),
(24,280,qs),
(22,280,o),
(22,268,qs),
(22,260,o),
(24,258,q),
(32,258,o),
(91,261,o),
(110,261,qs),
(194,258,l),
(195,261,o),
(195,280,o),
(192,280,qs),
(185,280,o),
(148,288,o),
(147,293,qs),
(141,315,o),
(141,351,qs),
(141,463,ls),
(141,466,o),
(249,466,qs),
(319,466,o),
(352,465,q),
(354,462,o),
(354,462,q),
(354,349,ls),
(354,312,o)
);
}
);
width = 496;
},
{
layerId = "5D05F7D8-7336-4C54-9046-4D1B683AB1D3";
shapes = (
{
ref = H;
}
);
width = 708;
},
{
layerId = "868F064F-B1BF-49D1-B6CA-957F77525378";
shapes = (
{
ref = H;
}
);
width = 727;
}
);
note = H.ordn;
},
{
glyphname = I.ordn;
lastChange = "2021-12-15 14:24:46 +0000";
layers = (
{
layerId = m01;
shapes = (
{
closed = 1;
nodes = (
(76,312,o),
(71,293,q),
(68,288,o),
(33,280,o),
(24,280,qs),
(22,280,o),
(22,268,qs),
(22,260,o),
(24,258,q),
(32,258,o),
(91,261,o),
(110,261,qs),
(194,258,l),
(195,260,o),
(195,267,qs),
(195,280,o),
(192,280,qs),
(185,280,o),
(148,288,o),
(147,293,qs),
(141,315,o),
(141,351,qs),
(141,600,ls),
(141,636,o),
(147,658,qs),
(148,663,o),
(185,672,o),
(192,672,qs),
(195,672,o),
(195,684,qs),
(195,692,o),
(194,694,q),
(110,691,ls),
(91,691,o),
(32,694,o),
(24,694,q),
(22,692,o),
(22,684,qs),
(22,672,o),
(24,672,qs),
(33,672,o),
(68,663,o),
(71,658,q),
(76,639,o),
(76,603,qs),
(76,349,ls)
);
}
);
width = 223;
},
{
layerId = "5D05F7D8-7336-4C54-9046-4D1B683AB1D3";
shapes = (
{
ref = I;
}
);
width = 323;
},
{
layerId = "868F064F-B1BF-49D1-B6CA-957F77525378";
shapes = (
{
ref = I;
}
);
width = 346;
}
);
note = I.ordn;
},
{
glyphname = J.ordn;
lastChange = "2021-12-15 14:24:46 +0000";
layers = (
{
layerId = m01;
shapes = (
{
closed = 1;
nodes = (
(133,256,o),
(111,181,o),
(85,153,o),
(71,153,qs),
(62,153,o),
(26,181,o),
(14,181,qs),
(-3,181,o),
(-25,161,o),
(-25,146,qs),
(-25,130,o),
(-17,122,q),
(-12,119,ls),
(-7,116,o),
(11,111,o),
(19,111,qs),
(96,111,o),
(198,234,o),
(198,316,qs),
(198,600,ls),
(198,633,o),
(205,658,qs),
(206,663,o),
(242,672,o),
(249,672,qs),
(252,672,o),
(252,684,qs),
(252,692,o),
(251,694,q),
(242,694,o),
(186,690,o),
(150,690,o),
(94,694,o),
(82,694,q),
(79,691,o),
(79,684,qs),
(79,672,o),
(82,672,qs),
(91,672,o),
(126,663,o),
(129,658,q),
(133,643,o),
(133,603,qs),
(133,310,ls)
);
}
);
width = 260;
},
{
layerId = "5D05F7D8-7336-4C54-9046-4D1B683AB1D3";
shapes = (
{
ref = J;
}
);
width = 466;
},
{
layerId = "868F064F-B1BF-49D1-B6CA-957F77525378";
shapes = (
{
ref = J;
}
);
width = 493;
}
);
note = J.ordn;
},
{
glyphname = K.ordn;
lastChange = "2021-12-15 14:24:46 +0000";
layers = (
{
layerId = m01;
shapes = (
{
closed = 1;
nodes = (
(141,493,qs),
(141,600,ls),
(141,636,o),
(147,658,qs),
(148,663,o),
(185,672,o),
(192,672,qs),
(195,672,o),
(195,684,qs),
(195,692,o),
(194,694,q),
(110,691,ls),
(91,691,o),
(32,694,o),
(24,694,q),
(22,692,o),
(22,684,qs),
(22,672,o),
(24,672,qs),
(33,672,o),
(68,663,o),
(71,658,q),
(76,639,o),
(76,603,qs),
(76,349,ls),
(76,312,o),
(71,293,q),
(68,288,o),
(33,280,o),
(24,280,qs),
(22,280,o),
(22,268,qs),
(22,260,o),
(24,258,q),
(32,258,o),
(91,261,o),
(110,261,qs),
(194,258,l),
(195,260,o),
(195,267,qs),
(195,280,o),
(192,280,qs),
(185,280,o),
(148,288,o),
(147,293,qs),
(141,315,o),
(141,351,qs),
(141,459,ls),
(141,464,o),
(146,464,qs),
(156,464,o),
(159,461,qs),
(163,457,o),
(171,449,qs),
(316,303,o),
(316,291,qs),
(316,280,o),
(286,280,qs),
(283,280,o),
(283,260,o),
(286,258,q),
(298,258,o),
(361,261,o),
(383,261,qs),
(389,261,o),
(473,258,q),
(475,260,o),
(475,265,qs),
(475,280,o),
(471,280,qs),
(425,280,o),
(397,308,qs),
(228,479,ls),
(216,490,o),
(223,497,qs),
(366,645,ls),
(385,666,o),
(428,673,q),
(434,673,o),
(429,694,q),
(418,694,o),
(375,690,o),
(358,690,qs),
(343,690,o),
(292,694,o),
(283,694,q),
(281,690,o),
(282,673,o),
(285,673,qs),
(325,673,o),
(325,661,qs),
(325,654,o),
(308,637,qs),
(185,508,o),
(185,508,q),
(167,489,o),
(151,489,qs),
(141,489,o)
);
}
);
width = 487;
},
{
layerId = "5D05F7D8-7336-4C54-9046-4D1B683AB1D3";
shapes = (
{
ref = K;
}
);
width = 722;
},
{
layerId = "868F064F-B1BF-49D1-B6CA-957F77525378";
shapes = (
{
ref = K;
}
);
width = 741;
}
);
note = K.ordn;
},
{
glyphname = L.ordn;
lastChange = "2021-12-15 14:24:46 +0000";
layers = (
{
layerId = m01;
shapes = (
{
closed = 1;
nodes = (
(148,658,qs),
(149,663,o),
(186,672,o),
(193,672,qs),
(196,672,o),
(196,684,qs),
(196,690,o),
(194,694,q),
(185,694,o),
(129,690,o),
(93,690,o),
(37,694,o),
(25,694,q),
(22,691,o),
(22,684,qs),
(22,672,o),
(25,672,qs),
(34,672,o),
(69,663,o),
(72,658,q),
(77,639,o),
(77,602,qs),
(77,354,ls),
(77,303,o),
(72,295,qs),
(68,289,o),
(33,281,o),
(24,281,qs),
(22,281,o),
(22,270,qs),
(22,261,o),
(24,259,q),
(110,261,ls),
(157,261,o),
(316,257,o),
(352,257,q),
(357,287,o),
(388,370,q),
(384,374,o),
(369,374,qs),
(359,374,o),
(358,370,qs),
(341,315,o),
(318,303,qs),
(296,292,o),
(229,292,qs),
(196,292,ls),
(150,292,o),
(148,298,qs),
(142,320,o),
(142,353,qs),
(142,600,ls),
(142,636,o)
);
}
);
width = 416;
},
{
layerId = "5D05F7D8-7336-4C54-9046-4D1B683AB1D3";
shapes = (
{
ref = L;
}
);
width = 584;
},
{
layerId = "868F064F-B1BF-49D1-B6CA-957F77525378";
shapes = (
{
ref = L;
}
);
width = 598;
}
);
note = L.ordn;
},
{
glyphname = M.ordn;
lastChange = "2021-12-15 14:24:46 +0000";
layers = (
{
layerId = m01;
shapes = (
{
closed = 1;
nodes = (
(54,694,o),
(44,694,q),
(41,691,o),
(41,684,qs),
(41,672,o),
(44,672,qs),
(53,672,o),
(96,663,o),
(99,658,q),
(102,648,o),
(102,632,qs),
(102,622,o),
(99,548,o),
(95,417,o),
(94,349,qs),
(92,305,o),
(82,294,qs),
(76,288,o),
(36,280,o),
(27,280,qs),
(24,280,o),
(24,268,qs),
(24,261,o),
(27,258,q),
(36,258,o),
(92,261,o),
(111,261,qs),
(129,261,o),
(189,258,o),
(192,258,q),
(194,262,o),
(194,267,qs),
(194,280,o),
(191,280,qs),
(183,280,o),
(142,289,o),
(137,295,qs),
(133,301,o),
(133,312,qs),
(133,314,o),
(136,416,o),
(141,576,o),
(142,639,q),
(304,260,l),
(306,259,o),
(310,259,qs),
(322,259,o),
(336,287,qs),
(484,618,l),
(485,622,o),
(487,622,qs),
(490,622,o),
(497,575,o),
(497,564,qs),
(505,353,l),
(505,318,ls),
(505,295,o),
(497,290,qs),
(481,280,o),
(455,280,qs),
(452,280,o),
(452,269,qs),
(452,261,o),
(455,258,q),
(464,258,o),
(520,261,o),
(539,261,qs),
(542,261,o),
(626,258,q),
(627,260,o),
(627,268,qs),
(627,280,o),
(625,280,qs),
(617,280,o),
(581,288,o),
(578,294,qs),
(568,317,o),
(567,352,qs),
(561,607,o),
(561,618,qs),
(561,654,o),
(569,659,q),
(584,672,o),
(608,672,qs),
(610,672,ls),
(613,672,o),
(613,684,qs),
(613,690,o),
(611,694,q),
(557,691,o),
(529,691,qs),
(523,691,o),
(503,692,o),
(476,694,o),
(468,694,q),
(440,615,o),
(440,615,q),
(399,517,o),
(334,380,q),
(332,377,o),
(330,377,qs),
(329,377,o),
(327,379,q),
(195,687,o),
(193,694,q),
(148,691,o),
(124,691,qs),
(106,691,o)
);
}
);
width = 650;
},
{
layerId = "5D05F7D8-7336-4C54-9046-4D1B683AB1D3";
shapes = (
{
ref = M;
}
);
width = 913;
},
{
layerId = "868F064F-B1BF-49D1-B6CA-957F77525378";
shapes = (
{
ref = M;
}
);
width = 918;
}
);
note = M.ordn;
},
{
glyphname = N.ordn;
lastChange = "2021-12-15 14:24:46 +0000";
layers = (
{
layerId = m01;
shapes = (
{
closed = 1;
nodes = (
(397,393,o),
(395,382,q),
(371,413,o),
(250,567,o),
(172,670,o),
(158,694,q),
(148,693,o),
(102,693,qs),
(55,693,o),
(28,694,q),
(25,692,o),
(25,672,o),
(28,672,qs),
(38,672,o),
(81,663,o),
(84,658,q),
(89,640,o),
(89,609,qs),
(89,354,ls),
(89,313,o),
(82,296,qs),
(79,290,o),
(35,280,o),
(26,280,qs),
(24,280,o),
(24,268,qs),
(24,260,o),
(26,258,q),
(35,258,o),
(90,261,o),
(126,261,o),
(186,258,o),
(189,258,q),
(190,261,o),
(190,280,o),
(187,280,qs),
(180,280,o),
(136,289,o),
(135,294,qs),
(130,312,o),
(130,352,qs),
(130,622,l),
(402,272,ls),
(414,257,o),
(427,257,qs),
(438,257,o),
(440,259,q),
(438,327,o),
(438,351,qs),
(438,600,ls),
(438,640,o),
(443,658,qs),
(444,663,o),
(492,673,o),
(499,673,qs),
(502,673,o),
(502,684,qs),
(502,690,o),
(500,694,q),
(491,694,o),
(437,690,o),
(401,690,o),
(350,694,o),
(337,694,q),
(334,692,o),
(334,673,o),
(337,673,qs),
(346,673,o),
(389,663,o),
(392,658,q),
(397,639,o),
(397,604,qs),
(397,409,ls)
);
}
);
width = 527;
},
{
layerId = "5D05F7D8-7336-4C54-9046-4D1B683AB1D3";
shapes = (
{
ref = N;
}
);
width = 753;
},
{
layerId = "868F064F-B1BF-49D1-B6CA-957F77525378";
shapes = (
{
ref = N;
}
);
width = 777;
}
);
note = N.ordn;
},
{
glyphname = O.ordn;
lastChange = "2021-12-15 14:24:46 +0000";
layers = (
{
layerId = m01;
shapes = (
{
closed = 1;
nodes = (
(403,546,o),
(403,463,qs),
(403,391,o),
(328,285,o),
(261,285,qs),
(184,285,o),
(99,406,o),
(99,489,qs),
(99,561,o),
(173,667,o),
(239,667,qs),
(316,667,o)
);
},
{
closed = 1;
nodes = (
(343,253,o),
(476,383,o),
(476,567,o),
(343,697,o),
(157,697,o),
(25,567,o),
(25,383,o),
(157,253,o)
);
}
);
width = 502;
},
{
layerId = "5D05F7D8-7336-4C54-9046-4D1B683AB1D3";
shapes = (
{
ref = O;
}
);
width = 693;
},
{
layerId = "868F064F-B1BF-49D1-B6CA-957F77525378";
shapes = (
{
ref = O;
}
);
width = 695;
}
);
note = O.ordn;
},
{
glyphname = P.ordn;
lastChange = "2021-12-15 14:24:46 +0000";
layers = (
{
layerId = m01;
shapes = (
{
closed = 1;
nodes = (
(153,470,o),
(155,460,o),
(156,458,q),
(170,440,o),
(210,440,qs),
(277,440,o),
(357,529,o),
(357,573,qs),
(357,634,o),
(264,693,o),
(211,693,qs),
(190,693,o),
(130,690,o),
(110,690,qs),
(24,691,l),
(22,689,o),
(22,680,qs),
(22,669,o),
(24,669,qs),
(33,669,o),
(70,660,o),
(73,655,q),
(78,636,o),
(78,602,qs),
(78,354,ls),
(78,303,o),
(73,295,qs),
(69,289,o),
(33,281,o),
(24,281,qs),
(22,281,o),
(22,270,qs),
(22,260,o),
(24,258,q),
(112,261,ls),
(121,261,o),
(205,258,q),
(206,261,o),
(206,281,o),
(203,281,qs),
(193,281,o),
(152,291,o),
(148,299,qs),
(142,312,o),
(142,353,qs),
(142,587,ls),
(142,618,o),
(144,649,o),
(147,655,o),
(151,656,qs),
(168,661,o),
(200,661,qs),
(288,661,o),
(288,563,qs),
(288,526,o),
(238,471,o),
(203,471,qs),
(179,471,o),
(156,478,q),
(154,478,o)
);
}
);
width = 380;
},
{
layerId = "5D05F7D8-7336-4C54-9046-4D1B683AB1D3";
shapes = (
{
ref = P;
}
);
width = 546;
},
{
layerId = "868F064F-B1BF-49D1-B6CA-957F77525378";
shapes = (
{
ref = P;
}
);
width = 572;
}
);
note = P.ordn;
},
{
glyphname = Q.ordn;
lastChange = "2021-12-15 14:24:46 +0000";
layers = (
{
layerId = m01;
shapes = (
{
closed = 1;
nodes = (
(405,545,o),
(405,463,qs),
(405,391,o),
(328,285,o),
(261,285,qs),
(184,285,o),
(95,407,o),
(95,489,qs),
(95,560,o),
(172,667,o),
(239,667,qs),
(316,667,o)
);
},
{
closed = 1;
nodes = (
(345,229,o),
(333,243,o),
(317,263,q),
(371,273,o),
(476,391,o),
(476,475,qs),
(476,567,o),
(343,697,o),
(157,697,o),
(25,567,o),
(25,475,qs),
(25,392,o),
(132,277,o),
(190,260,qs),
(222,251,o),
(325,170,o),
(367,170,qs),
(436,170,o),
(484,194,q),
(484,197,ls),
(484,214,o),
(478,214,qs),
(477,214,o),
(463,210,o),
(440,207,o),
(428,207,qs),
(394,207,o)
);
}
);
width = 563;
},
{
layerId = "5D05F7D8-7336-4C54-9046-4D1B683AB1D3";
shapes = (
{
ref = Q;
}
);
width = 744;
},
{
layerId = "868F064F-B1BF-49D1-B6CA-957F77525378";
shapes = (
{
ref = Q;
}
);
width = 775;
}
);
note = Q.ordn;
},
{
glyphname = R.ordn;
lastChange = "2021-12-15 14:24:46 +0000";
layers = (
{
layerId = m01;
shapes = (
{
closed = 1;
nodes = (
(130,690,o),
(110,690,qs),
(24,691,l),
(22,689,o),
(22,680,qs),
(22,672,o),
(24,672,qs),
(33,672,o),
(70,663,o),
(73,658,q),
(78,639,o),
(78,602,qs),
(78,354,ls),
(78,300,o),
(73,292,qs),
(69,286,o),
(33,278,o),
(24,278,qs),
(22,278,o),
(22,270,qs),
(22,260,o),
(24,258,q),
(112,261,ls),
(121,261,o),
(205,258,q),
(206,261,o),
(206,277,o),
(203,277,qs),
(194,277,o),
(152,288,o),
(148,296,qs),
(142,309,o),
(142,353,qs),
(142,449,ls),
(142,461,o),
(157,461,qs),
(174,461,o),
(183,458,qs),
(190,455,o),
(204,445,o),
(221,424,o),
(235,405,o),
(264,366,o),
(275,351,qs),
(346,257,o),
(445,257,qs),
(459,257,o),
(469,259,q),
(471,263,o),
(471,269,qs),
(471,272,o),
(469,278,q),
(427,278,o),
(360,347,qs),
(310,398,o),
(276,462,q),
(273,466,o),
(280,468,q),
(318,485,o),
(368,546,o),
(368,573,qs),
(368,633,o),
(266,693,o),
(211,693,qs),
(190,693,o)
);
},
{
closed = 1;
nodes = (
(142,492,o),
(142,511,qs),
(142,587,ls),
(142,618,o),
(144,654,qs),
(144,658,o),
(150,660,qs),
(163,664,o),
(200,664,qs),
(298,664,o),
(298,573,qs),
(298,535,o),
(246,492,o),
(221,492,qs),
(203,492,ls)
);
}
);
width = 495;
},
{
layerId = "5D05F7D8-7336-4C54-9046-4D1B683AB1D3";
shapes = (
{
ref = R;
}
);
width = 685;
},
{
layerId = "868F064F-B1BF-49D1-B6CA-957F77525378";
shapes = (
{
ref = R;
}
);
width = 709;
}
);
note = R.ordn;
},
{
glyphname = S.ordn;
lastChange = "2021-12-15 14:24:46 +0000";
layers = (
{
layerId = m01;
shapes = (
{
closed = 1;
nodes = (
(57,517,o),
(101,482,o),
(131,462,o),
(159,447,qs),
(167,442,o),
(206,424,o),
(222,414,o),
(245,395,o),
(254,372,o),
(254,356,qs),
(254,320,o),
(206,283,o),
(171,283,qs),
(80,283,o),
(56,379,q),
(52,385,o),
(37,385,qs),
(24,385,o),
(24,381,qs),
(24,370,o),
(44,272,q),
(136,253,o),
(170,253,qs),
(229,253,o),
(319,321,o),
(319,373,qs),
(319,386,o),
(311,411,o),
(293,434,o),
(279,450,o),
(249,471,o),
(235,481,o),
(200,501,o),
(197,503,qs),
(189,508,o),
(150,529,o),
(132,542,o),
(107,563,o),
(97,587,o),
(97,602,qs),
(97,667,o),
(172,667,qs),
(210,667,o),
(261,611,o),
(265,582,qs),
(266,576,o),
(284,576,qs),
(294,576,o),
(294,581,qs),
(294,630,o),
(283,678,q),
(270,681,o),
(225,693,o),
(197,697,o),
(177,697,qs),
(122,697,o),
(37,631,o),
(37,581,qs),
(37,558,o)
);
}
);
width = 344;
},
{
layerId = "5D05F7D8-7336-4C54-9046-4D1B683AB1D3";
shapes = (
{
ref = S;
}
);
width = 474;
},
{
layerId = "868F064F-B1BF-49D1-B6CA-957F77525378";
shapes = (
{
ref = S;
}
);
width = 483;
}
);
note = S.ordn;
},
{
glyphname = T.ordn;
lastChange = "2021-12-15 14:24:46 +0000";
layers = (
{
layerId = m01;
shapes = (
{
closed = 1;
nodes = (
(203,293,q),
(200,288,o),
(165,280,o),
(156,280,qs),
(154,280,o),
(154,268,qs),
(154,260,o),
(156,258,q),
(164,258,o),
(223,261,o),
(242,261,qs),
(326,258,l),
(327,260,o),
(327,267,qs),
(327,280,o),
(324,280,qs),
(317,280,o),
(281,288,o),
(280,293,qs),
(273,318,o),
(273,351,qs),
(273,585,ls),
(273,629,o),
(280,650,q),
(282,660,o),
(356,660,qs),
(395,660,o),
(423,637,o),
(433,599,qs),
(434,596,o),
(442,596,qs),
(455,596,o),
(459,600,q),
(445,700,l),
(419,693,o),
(397,693,qs),
(377,693,o),
(273,690,o),
(209,690,o),
(106,693,o),
(86,693,qs),
(64,693,o),
(38,700,q),
(24,600,l),
(28,596,o),
(41,596,qs),
(49,596,o),
(50,599,qs),
(60,637,o),
(87,660,o),
(126,660,qs),
(196,660,o),
(202,650,qs),
(208,641,o),
(208,583,qs),
(208,349,ls),
(208,312,o)
);
}
);
width = 484;
},
{
layerId = "5D05F7D8-7336-4C54-9046-4D1B683AB1D3";
shapes = (
{
ref = T;
}
);
width = 664;
},
{
layerId = "868F064F-B1BF-49D1-B6CA-957F77525378";
shapes = (
{
ref = T;
}
);
width = 665;
}
);
note = T.ordn;
},
{
glyphname = U.ordn;
lastChange = "2021-12-15 14:24:46 +0000";
layers = (
{
layerId = m01;
shapes = (
{
closed = 1;
nodes = (
(33,694,o),
(26,694,q),
(23,691,o),
(23,684,qs),
(23,672,o),
(26,672,qs),
(35,672,o),
(70,663,o),
(73,658,q),
(78,639,o),
(78,603,qs),
(78,454,ls),
(78,260,o),
(254,260,qs),
(338,260,o),
(431,340,o),
(431,441,qs),
(431,600,ls),
(431,640,o),
(436,658,qs),
(437,663,o),
(485,673,o),
(492,673,qs),
(494,673,o),
(494,684,qs),
(494,692,o),
(493,694,q),
(483,694,o),
(432,690,o),
(396,690,o),
(341,694,o),
(329,694,q),
(326,692,o),
(326,673,o),
(329,673,qs),
(338,673,o),
(381,663,o),
(384,658,q),
(389,639,o),
(389,604,qs),
(389,440,ls),
(389,295,o),
(270,295,qs),
(208,295,o),
(143,380,o),
(143,454,qs),
(143,600,ls),
(143,636,o),
(149,658,qs),
(150,663,o),
(187,672,o),
(194,672,qs),
(197,672,o),
(197,685,qs),
(197,690,o),
(195,694,q),
(185,694,o),
(154,692,o),
(127,691,o),
(113,691,qs),
(94,691,o)
);
}
);
width = 519;
},
{
layerId = "5D05F7D8-7336-4C54-9046-4D1B683AB1D3";
shapes = (
{
ref = U;
}
);
width = 733;
},
{
layerId = "868F064F-B1BF-49D1-B6CA-957F77525378";
shapes = (
{
ref = U;
}
);
width = 753;
}
);
note = U.ordn;
},
{
glyphname = V.ordn;
lastChange = "2021-12-15 14:24:46 +0000";
layers = (
{
layerId = m01;
shapes = (
{
closed = 1;
nodes = (
(452,646,qs),
(470,672,o),
(499,672,qs),
(501,672,o),
(501,684,qs),
(501,692,o),
(500,694,q),
(493,694,o),
(446,691,o),
(427,691,qs),
(415,691,o),
(389,692,o),
(358,694,o),
(349,694,q),
(346,692,o),
(346,672,o),
(349,672,qs),
(384,672,o),
(392,658,qs),
(395,652,o),
(395,641,qs),
(395,627,o),
(385,604,qs),
(283,366,ls),
(282,363,o),
(274,360,o),
(272,363,q),
(157,627,o),
(157,650,qs),
(157,660,l),
(159,672,o),
(198,672,qs),
(204,672,o),
(199,694,q),
(115,691,o),
(110,691,qs),
(91,691,o),
(33,694,o),
(25,694,q),
(22,691,o),
(22,684,qs),
(22,672,o),
(25,672,qs),
(34,672,o),
(65,664,o),
(70,657,qs),
(84,637,o),
(101,597,qs),
(245,258,l),
(246,254,o),
(252,254,qs),
(272,254,o),
(282,276,qs),
(422,589,ls),
(438,626,o)
);
}
);
width = 526;
},
{
layerId = "5D05F7D8-7336-4C54-9046-4D1B683AB1D3";
shapes = (
{
ref = V;
}
);
width = 715;
},
{
layerId = "868F064F-B1BF-49D1-B6CA-957F77525378";
shapes = (
{
ref = V;
}
);
width = 729;
}
);
note = V.ordn;
},
{
glyphname = W.ordn;
lastChange = "2021-12-15 14:24:46 +0000";
layers = (
{
layerId = m01;
shapes = (
{
closed = 1;
nodes = (
(454,613,qs),
(411,520,l),
(365,607,ls),
(349,639,o),
(349,650,qs),
(349,656,o),
(350,659,qs),
(352,672,o),
(389,672,qs),
(396,672,o),
(390,694,q),
(385,694,o),
(330,691,o),
(312,691,qs),
(293,691,o),
(234,694,o),
(226,694,q),
(223,692,o),
(223,672,o),
(226,672,qs),
(249,672,o),
(261,657,qs),
(285,629,o),
(302,597,qs),
(370,468,l),
(368,461,l),
(316,352,ls),
(315,349,o),
(308,345,o),
(306,348,qs),
(165,607,ls),
(149,635,o),
(149,650,qs),
(149,659,l),
(151,672,o),
(189,672,qs),
(192,672,o),
(192,691,o),
(191,694,q),
(181,694,o),
(150,692,o),
(123,691,o),
(109,691,qs),
(90,691,o),
(31,694,o),
(23,694,q),
(20,691,o),
(20,684,qs),
(20,672,o),
(23,672,qs),
(46,672,o),
(58,657,qs),
(82,629,o),
(99,597,qs),
(281,258,l),
(282,255,o),
(287,255,qs),
(306,255,o),
(317,276,qs),
(393,430,l),
(478,258,ls),
(480,255,o),
(485,255,qs),
(508,255,o),
(518,276,qs),
(667,589,ls),
(687,632,o),
(707,654,qs),
(724,672,o),
(752,672,qs),
(755,672,o),
(755,684,qs),
(755,692,o),
(754,694,q),
(747,694,o),
(702,691,o),
(681,691,qs),
(676,691,o),
(610,694,q),
(607,692,o),
(607,672,o),
(610,672,qs),
(646,672,o),
(646,642,qs),
(646,636,o),
(635,611,qs),
(513,345,ls),
(512,342,o),
(504,339,o),
(502,342,qs),
(434,479,ls),
(432,484,o),
(433,486,qs),
(484,589,ls),
(508,636,o),
(524,654,qs),
(531,662,o),
(567,672,o),
(575,672,qs),
(582,672,o),
(576,694,q),
(571,694,o),
(520,691,o),
(499,691,qs),
(493,691,o),
(427,694,q),
(424,692,o),
(424,672,o),
(427,672,qs),
(437,672,o),
(464,658,o),
(464,642,qs),
(464,636,o)
);
}
);
width = 779;
},
{
layerId = "5D05F7D8-7336-4C54-9046-4D1B683AB1D3";
shapes = (
{
ref = W;
}
);
width = 1078;
},
{
layerId = "868F064F-B1BF-49D1-B6CA-957F77525378";
shapes = (
{
ref = W;
}
);
width = 1094;
}
);
note = W.ordn;
},
{
glyphname = X.ordn;
lastChange = "2021-12-15 14:24:46 +0000";
layers = (
{
layerId = m01;
shapes = (
{
closed = 1;
nodes = (
(285,524,q),
(282,519,o),
(278,523,q),
(201,634,ls),
(193,647,o),
(193,651,qs),
(193,662,o),
(222,672,o),
(235,672,qs),
(238,672,o),
(238,691,o),
(237,694,q),
(153,691,o),
(144,691,qs),
(124,691,o),
(57,694,o),
(50,694,q),
(47,692,o),
(47,672,o),
(50,672,qs),
(83,672,o),
(97,659,qs),
(128,634,o),
(149,604,qs),
(233,486,ls),
(237,480,o),
(234,476,qs),
(211,446,ls),
(188,417,o),
(115,328,o),
(89,298,qs),
(74,280,o),
(27,280,qs),
(25,280,o),
(25,267,qs),
(25,260,o),
(26,258,q),
(110,261,o),
(116,261,o),
(194,258,q),
(196,262,o),
(196,267,qs),
(196,280,o),
(193,280,qs),
(175,280,o),
(152,288,o),
(145,296,o),
(145,299,qs),
(145,315,o),
(253,449,qs),
(257,455,o),
(259,451,q),
(358,304,l),
(361,298,o),
(361,296,qs),
(361,288,o),
(333,280,o),
(323,280,qs),
(320,280,o),
(320,260,o),
(323,258,q),
(331,258,o),
(408,261,o),
(431,261,qs),
(444,261,o),
(471,260,o),
(502,258,o),
(512,258,q),
(514,260,o),
(514,267,qs),
(514,280,o),
(510,280,qs),
(463,280,o),
(437,308,qs),
(427,319,o),
(380,383,o),
(315,473,o),
(305,487,qs),
(302,491,o),
(306,497,qs),
(430,653,ls),
(436,661,o),
(487,672,o),
(497,672,qs),
(500,672,o),
(500,691,o),
(499,694,q),
(489,694,o),
(461,692,o),
(434,691,o),
(418,691,qs),
(406,691,o),
(328,694,q),
(325,692,o),
(325,672,o),
(328,672,qs),
(349,672,o),
(377,659,o),
(377,652,qs),
(377,636,o)
);
}
);
width = 538;
},
{
layerId = "5D05F7D8-7336-4C54-9046-4D1B683AB1D3";
shapes = (
{
ref = X;
}
);
width = 752;
},
{
layerId = "868F064F-B1BF-49D1-B6CA-957F77525378";
shapes = (
{
ref = X;
}
);
width = 768;
}
);
note = X.ordn;
},
